Amma-Regular.ufo
<glyph name="exclam" format="2">
  <advance width="320"/>
  <unicode hex="0021"/>
  <outline>
    <contour>
      <point x="110" y="210" type="line"/>
      <point x="210" y="210" type="line"/>
      <point x="225" y="730" type="line"/>
      <point x="95" y="730" type="line"/>
    </contour>
    <contour>
      <point x="160" y="-10" type="curve" smooth="yes"/>
      <point x="204" y="-10"/>
      <point x="232" y="18"/>
      <point x="232" y="62" type="curve" smooth="yes"/>
      <point x="232" y="106"/>
      <point x="204" y="134"/>
      <point x="160" y="134" type="curve" smooth="yes"/>
      <point x="116" y="134"/>
      <point x="88" y="106"/>
      <point x="88" y="62" type="curve" smooth="yes"/>
      <point x="88" y="18"/>
      <point x="116" y="-10"/>
    </contour>
  </outline>
</glyph>
<glyph name="parenleft" format="2">
  <advance width="397"/>
  <unicode hex="0028"/>
  <outline>
    <contour>
      <point x="235" y="-110" type="curve"/>
      <point x="342" y="-110" type="line"/>
      <point x="248" y="22"/>
      <point x="204" y="162"/>
      <point x="204" y="330" type="curve" smooth="yes"/>
      <point x="204" y="498"/>
      <point x="248" y="638"/>
      <point x="342" y="770" type="curve"/>
      <point x="235" y="770" type="line"/>
      <point x="141" y="649"/>
      <point x="91" y="496"/>
      <point x="91" y="330" type="curve" smooth="yes"/>
      <point x="91" y="165"/>
      <point x="141" y="12"/>
    </contour>
  </outline>
</glyph>
<glyph name="asterisk" format="2">
  <advance width="554"/>
  <unicode hex="002A"/>
  <outline>
    <contour>
      <point x="183" y="326" type="line"/>
      <point x="277" y="460" type="line"/>
      <point x="371" y="326" type="line"/>
      <point x="447" y="381" type="line"/>
      <point x="349" y="512" type="line"/>
      <point x="505" y="559" type="line"/>
      <point x="476" y="649" type="line"/>
      <point x="322" y="597" type="line"/>
      <point x="324" y="759" type="line"/>
      <point x="230" y="759" type="line"/>
      <point x="232" y="597" type="line"/>
      <point x="78" y="649" type="line"/>
      <point x="49" y="559" type="line"/>
      <point x="205" y="512" type="line"/>
      <point x="107" y="381" type="line"/>
    </contour>
  </outline>
</glyph>
<glyph name="comma" format="2">
  <advance width="332"/>
  <unicode hex="002C"/>
  <outline>
    <contour>
      <point x="44" y="-170" type="line"/>
      <point x="144" y="-170" type="line"/>
      <point x="244" y="130" type="line"/>
      <point x="114" y="130" type="line"/>
    </contour>
  </outline>
</glyph>
<glyph name="hyphen" format="2">
  <advance width="600"/>
  <unicode hex="002D"/>
  <outline>
    <contour>
      <point x="100" y="250" type="line"/>
      <point x="500" y="250" type="line"/>
      <point x="510" y="350" type="line"/>
      <point x="110" y="350" type="line"/>
    </contour>
  </outline>
</glyph>
<glyph name="period" format="2">
	<unicode hex="002E"/>
	<advance width="600"/>
	<outline>
		<contour>
			<point x="318" y="-9" type="curve" smooth="yes"/>
			<point x="352" y="-9"/>
			<point x="379" y="18"/>
			<point x="379" y="52" type="curve" smooth="yes"/>
			<point x="379" y="86"/>
			<point x="352" y="113"/>
			<point x="318" y="113" type="curve" smooth="yes"/>
			<point x="284" y="113"/>
			<point x="257" y="86"/>
			<point x="257" y="52" type="curve" smooth="yes"/>
			<point x="257" y="18"/>
			<point x="284" y="-9"/>
		</contour>
	</outline>
</glyph>
<glyph name="zero" format="2">
  <advance width="600"/>
  <unicode hex="0030"/>
  <outline>
    <contour>
      <point x="320" y="-10" type="curve" smooth="yes"/>
      <point x="512" y="-10"/>
      <point x="605" y="112"/>
      <point x="605" y="365" type="curve" smooth="yes"/>
      <point x="605" y="618"/>
      <point x="512" y="740"/>
      <point x="320" y="740" type="curve" smooth="yes"/>
      <point x="128" y="740"/>
      <point x="35" y="618"/>
      <point x="35" y="365" type="curve" smooth="yes"/>
      <point x="35" y="112"/>
      <point x="128" y="-10"/>
    </contour>
    <contour>
      <point x="320" y="90" type="curve" smooth="yes"/>
      <point x="202" y="90"/>
      <point x="148" y="177"/>
      <point x="148" y="365" type="curve" smooth="yes"/>
      <point x="148" y="554"/>
      <point x="202" y="640"/>
      <point x="320" y="640" type="curve" smooth="yes"/>
      <point x="438" y="640"/>
      <point x="492" y="554"/>
      <point x="492" y="365" type="curve" smooth="yes"/>
      <point x="492" y="177"/>
      <point x="438" y="90"/>
    </contour>
  </outline>
</glyph>
<glyph name="one" format="2">
  <advance width="485"/>
  <unicode hex="0031"/>
  <outline>
    <contour>
      <point x="333" y="0" type="line"/>
      <point x="445" y="0" type="line"/>
      <point x="445" y="730" type="line"/>
      <point x="333" y="730" type="line"/>
      <point x="278" y="658"/>
      <point x="170" y="571"/>
      <point x="75" y="523" type="curve"/>
      <point x="111" y="427" type="line"/>
      <point x="191" y="466"/>
      <point x="276" y="528"/>
      <point x="331" y="588" type="curve"/>
      <point x="333" y="588" type="line"/>
    </contour>
  </outline>
</glyph>
<glyph name="two" format="2">
  <advance width="640"/>
  <unicode hex="0032"/>
  <outline>
    <contour>
      <point x="64" y="0" type="line"/>
      <point x="558" y="0" type="line"/>
      <point x="558" y="93" type="line"/>
      <point x="210" y="93" type="line"/>
      <point x="210" y="95" type="line"/>
      <point x="459" y="306"/>
      <point x="551" y="430"/>
      <point x="551" y="554" type="curve" smooth="yes"/>
      <point x="551" y="673"/>
      <point x="467" y="740"/>
      <point x="320" y="740" type="curve" smooth="yes"/>
      <point x="231" y="740"/>
      <point x="138" y="715"/>
      <point x="48" y="666" type="curve"/>
      <point x="77" y="578" type="line"/>
      <point x="163" y="623"/>
      <point x="237" y="645"/>
      <point x="304" y="645" type="curve" smooth="yes"/>
      <point x="392" y="645"/>
      <point x="438" y="607"/>
      <point x="438" y="535" type="curve" smooth="yes"/>
      <point x="438" y="443"/>
      <point x="356" y="346"/>
      <point x="64" y="93" type="curve"/>
    </contour>
  </outline>
</glyph>
<glyph name="three" format="2">
  <advance width="640"/>
  <unicode hex="0033"/>
  <outline>
    <contour>
      <point x="278" y="-10" type="curve" smooth="yes"/>
      <point x="451" y="-10"/>
      <point x="555" y="68"/>
      <point x="555" y="197" type="curve" smooth="yes"/>
      <point x="555" y="295"/>
      <point x="494" y="364"/>
      <point x="393" y="381" type="curve"/>
      <point x="393" y="383" type="line"/>
      <point x="480" y="411"/>
      <point x="542" y="493"/>
      <point x="542" y="579" type="curve" smooth="yes"/>
      <point x="542" y="681"/>
      <point x="455" y="740"/>
      <point x="304" y="740" type="curve" smooth="yes"/>
      <point x="220" y="740"/>
      <point x="130" y="722"/>
      <point x="48" y="689" type="curve"/>
      <point x="73" y="603" type="line"/>
      <point x="155" y="633"/>
      <point x="229" y="648"/>
      <point x="292" y="648" type="curve" smooth="yes"/>
      <point x="384" y="648"/>
      <point x="432" y="616"/>
      <point x="432" y="555" type="curve" smooth="yes"/>
      <point x="432" y="474"/>
      <point x="343" y="424"/>
      <point x="199" y="424" type="curve" smooth="yes"/>
      <point x="168" y="424" type="line"/>
      <point x="168" y="334" type="line"/>
      <point x="199" y="334" type="line" smooth="yes"/>
      <point x="366" y="334"/>
      <point x="443" y="294"/>
      <point x="443" y="208" type="curve" smooth="yes"/>
      <point x="443" y="129"/>
      <point x="381" y="83"/>
      <point x="273" y="83" type="curve" smooth="yes"/>
      <point x="210" y="83"/>
      <point x="131" y="99"/>
      <point x="69" y="124" type="curve"/>
      <point x="45" y="36" type="line"/>
      <point x="120" y="6"/>
      <point x="200" y="-10"/>
    </contour>
  </outline>
</glyph>
<glyph name="four" format="2">
  <advance width="640"/>
  <unicode hex="0034"/>
  <outline>
    <contour>
      <point x="385" y="0" type="line"/>
      <point x="495" y="0" type="line"/>
      <point x="495" y="180" type="line"/>
      <point x="615" y="180" type="line"/>
      <point x="615" y="273" type="line"/>
      <point x="495" y="273" type="line"/>
      <point x="495" y="730" type="line"/>
      <point x="385" y="730" type="line"/>
      <point x="5" y="273" type="line"/>
      <point x="5" y="180" type="line"/>
      <point x="385" y="180" type="line"/>
    </contour>
    <contour>
      <point x="139" y="273" type="line"/>
      <point x="139" y="275" type="line"/>
      <point x="388" y="575" type="line"/>
      <point x="390" y="575" type="line"/>
      <point x="390" y="273" type="line"/>
    </contour>
  </outline>
</glyph>
<glyph name="five" format="2">
  <advance width="640"/>
  <unicode hex="0035"/>
  <outline>
    <contour>
      <point x="292" y="-10" type="curve" smooth="yes"/>
      <point x="474" y="-10"/>
      <point x="575" y="77"/>
      <point x="575" y="235" type="curve" smooth="yes"/>
      <point x="575" y="380"/>
      <point x="489" y="463"/>
      <point x="340" y="463" type="curve" smooth="yes"/>
      <point x="294" y="463"/>
      <point x="244" y="455"/>
      <point x="196" y="440" type="curve"/>
      <point x="209" y="638" type="line"/>
      <point x="541" y="638" type="line"/>
      <point x="541" y="730" type="line"/>
      <point x="110" y="730" type="line"/>
      <point x="86" y="348" type="line"/>
      <point x="186" y="347" type="line"/>
      <point x="232" y="367"/>
      <point x="268" y="375"/>
      <point x="312" y="375" type="curve" smooth="yes"/>
      <point x="408" y="375"/>
      <point x="463" y="325"/>
      <point x="463" y="237" type="curve" smooth="yes"/>
      <point x="463" y="138"/>
      <point x="394" y="83"/>
      <point x="270" y="83" type="curve" smooth="yes"/>
      <point x="210" y="83"/>
      <point x="148" y="96"/>
      <point x="87" y="122" type="curve"/>
      <point x="65" y="33" type="line"/>
      <point x="130" y="6"/>
      <point x="214" y="-10"/>
    </contour>
  </outline>
</glyph>
<glyph name="six" format="2">
  <advance width="640"/>
  <unicode hex="0036"/>
  <outline>
    <contour>
      <point x="320" y="-10" type="curve" smooth="yes"/>
      <point x="490" y="-10"/>
      <point x="595" y="85"/>
      <point x="595" y="238" type="curve" smooth="yes"/>
      <point x="595" y="386"/>
      <point x="498" y="470"/>
      <point x="327" y="470" type="curve" smooth="yes"/>
      <point x="263" y="470"/>
      <point x="223" y="458"/>
      <point x="182" y="426" type="curve"/>
      <point x="180" y="427" type="line"/>
      <point x="227" y="548"/>
      <point x="330" y="625"/>
      <point x="488" y="650" type="curve"/>
      <point x="468" y="740" type="line"/>
      <point x="219" y="705"/>
      <point x="45" y="513"/>
      <point x="45" y="272" type="curve" smooth="yes"/>
      <point x="45" y="92"/>
      <point x="144" y="-10"/>
    </contour>
    <contour>
      <point x="320" y="78" type="curve" smooth="yes"/>
      <point x="217" y="78"/>
      <point x="155" y="138"/>
      <point x="155" y="236" type="curve" smooth="yes"/>
      <point x="155" y="323"/>
      <point x="226" y="384"/>
      <point x="327" y="384" type="curve" smooth="yes"/>
      <point x="424" y="384"/>
      <point x="485" y="325"/>
      <point x="485" y="231" type="curve" smooth="yes"/>
      <point x="485" y="135"/>
      <point x="424" y="78"/>
    </contour>
  </outline>
</glyph>
<glyph name="seven" format="2">
  <advance width="640"/>
  <unicode hex="0037"/>
  <outline>
    <contour>
      <point x="145" y="0" type="curve"/>
      <point x="265" y="0" type="line"/>
      <point x="360" y="268"/>
      <point x="431" y="415"/>
      <point x="570" y="630" type="curve"/>
      <point x="570" y="730" type="line"/>
      <point x="50" y="730" type="line"/>
      <point x="50" y="630" type="line"/>
      <point x="448" y="630" type="line"/>
      <point x="448" y="628" type="line"/>
      <point x="315" y="416"/>
      <point x="230" y="240"/>
    </contour>
  </outline>
</glyph>
<glyph name="eight" format="2">
  <advance width="640"/>
  <unicode hex="0038"/>
  <outline>
    <contour>
      <point x="320" y="-10" type="curve" smooth="yes"/>
      <point x="497" y="-10"/>
      <point x="605" y="68"/>
      <point x="605" y="195" type="curve" smooth="yes"/>
      <point x="605" y="288"/>
      <point x="548" y="353"/>
      <point x="435" y="390" type="curve"/>
      <point x="435" y="392" type="line"/>
      <point x="531" y="432"/>
      <point x="580" y="489"/>
      <point x="580" y="563" type="curve" smooth="yes"/>
      <point x="580" y="670"/>
      <point x="477" y="740"/>
      <point x="320" y="740" type="curve" smooth="yes"/>
      <point x="162" y="740"/>
      <point x="61" y="671"/>
      <point x="61" y="563" type="curve" smooth="yes"/>
      <point x="61" y="486"/>
      <point x="113" y="418"/>
      <point x="202" y="380" type="curve"/>
      <point x="202" y="378" type="line"/>
      <point x="88" y="340"/>
      <point x="35" y="282"/>
      <point x="35" y="195" type="curve" smooth="yes"/>
      <point x="35" y="69"/>
      <point x="145" y="-10"/>
    </contour>
    <contour>
      <point x="320" y="85" type="curve" smooth="yes"/>
      <point x="214" y="85"/>
      <point x="148" y="129"/>
      <point x="148" y="200" type="curve" smooth="yes"/>
      <point x="148" y="263"/>
      <point x="203" y="307"/>
      <point x="309" y="330" type="curve"/>
      <point x="435" y="305"/>
      <point x="492" y="264"/>
      <point x="492" y="200" type="curve" smooth="yes"/>
      <point x="492" y="129"/>
      <point x="426" y="85"/>
    </contour>
    <contour>
      <point x="325" y="437" type="curve"/>
      <point x="225" y="456"/>
      <point x="171" y="497"/>
      <point x="171" y="553" type="curve" smooth="yes"/>
      <point x="171" y="610"/>
      <point x="228" y="645"/>
      <point x="320" y="645" type="curve" smooth="yes"/>
      <point x="413" y="645"/>
      <point x="469" y="610"/>
      <point x="469" y="553" type="curve" smooth="yes"/>
      <point x="469" y="498"/>
      <point x="416" y="456"/>
    </contour>
  </outline>
</glyph>
<glyph name="colon" format="2">
  <advance width="352"/>
  <unicode hex="003A"/>
  <outline>
    <contour>
      <point x="176" y="386" type="curve" smooth="yes"/>
      <point x="220" y="386"/>
      <point x="248" y="414"/>
      <point x="248" y="458" type="curve" smooth="yes"/>
      <point x="248" y="502"/>
      <point x="220" y="530"/>
      <point x="176" y="530" type="curve" smooth="yes"/>
      <point x="132" y="530"/>
      <point x="104" y="502"/>
      <point x="104" y="458" type="curve" smooth="yes"/>
      <point x="104" y="414"/>
      <point x="132" y="386"/>
    </contour>
    <contour>
      <point x="176" y="-10" type="curve" smooth="yes"/>
      <point x="220" y="-10"/>
      <point x="248" y="18"/>
      <point x="248" y="62" type="curve" smooth="yes"/>
      <point x="248" y="106"/>
      <point x="220" y="134"/>
      <point x="176" y="134" type="curve" smooth="yes"/>
      <point x="132" y="134"/>
      <point x="104" y="106"/>
      <point x="104" y="62" type="curve" smooth="yes"/>
      <point x="104" y="18"/>
      <point x="132" y="-10"/>
    </contour>
  </outline>
</glyph>
<glyph name="semicolon" format="2">
  <advance width="368"/>
  <unicode hex="003B"/>
  <outline>
    <contour>
      <point x="48" y="-170" type="line"/>
      <point x="148" y="-170" type="line"/>
      <point x="263" y="130" type="line"/>
      <point x="133" y="130" type="line"/>
    </contour>
    <contour>
      <point x="192" y="386" type="curve" smooth="yes"/>
      <point x="236" y="386"/>
      <point x="264" y="414"/>
      <point x="264" y="458" type="curve" smooth="yes"/>
      <point x="264" y="502"/>
      <point x="236" y="530"/>
      <point x="192" y="530" type="curve" smooth="yes"/>
      <point x="148" y="530"/>
      <point x="120" y="502"/>
      <point x="120" y="458" type="curve" smooth="yes"/>
      <point x="120" y="414"/>
      <point x="148" y="386"/>
    </contour>
  </outline>
</glyph>
<glyph name="question" format="2">
  <advance width="579"/>
  <unicode hex="003F"/>
  <outline>
    <contour>
      <point x="230" y="210" type="curve"/>
      <point x="340" y="210" type="line"/>
      <point x="341" y="276"/>
      <point x="355" y="340"/>
      <point x="419" y="383" type="curve" smooth="yes"/>
      <point x="513" y="447"/>
      <point x="550" y="501"/>
      <point x="550" y="575" type="curve" smooth="yes"/>
      <point x="550" y="686"/>
      <point x="466" y="740"/>
      <point x="295" y="740" type="curve" smooth="yes"/>
      <point x="207" y="740"/>
      <point x="117" y="726"/>
      <point x="42" y="702" type="curve"/>
      <point x="66" y="604" type="line"/>
      <point x="142" y="629"/>
      <point x="206" y="640"/>
      <point x="280" y="640" type="curve" smooth="yes"/>
      <point x="387" y="640"/>
      <point x="435" y="615"/>
      <point x="435" y="560" type="curve" smooth="yes"/>
      <point x="435" y="518"/>
      <point x="406" y="482"/>
      <point x="334" y="432" type="curve" smooth="yes"/>
      <point x="249" y="372"/>
      <point x="230" y="297"/>
    </contour>
    <contour>
      <point x="285" y="-10" type="curve" smooth="yes"/>
      <point x="329" y="-10"/>
      <point x="357" y="18"/>
      <point x="357" y="62" type="curve" smooth="yes"/>
      <point x="357" y="106"/>
      <point x="329" y="134"/>
      <point x="285" y="134" type="curve" smooth="yes"/>
      <point x="241" y="134"/>
      <point x="213" y="106"/>
      <point x="213" y="62" type="curve" smooth="yes"/>
      <point x="213" y="18"/>
      <point x="241" y="-10"/>
    </contour>
  </outline>
</glyph>
<glyph name="bracketleft" format="2">
  <advance width="466"/>
  <unicode hex="005B"/>
  <outline>
    <contour>
      <point x="114" y="-110" type="line"/>
      <point x="409" y="-110" type="line"/>
      <point x="409" y="-15" type="line"/>
      <point x="219" y="-15" type="line"/>
      <point x="219" y="675" type="line"/>
      <point x="409" y="675" type="line"/>
      <point x="409" y="770" type="line"/>
      <point x="114" y="770" type="line"/>
    </contour>
  </outline>
</glyph>
<glyph name="braceleft" format="2">
  <advance width="518"/>
  <unicode hex="007B"/>
  <outline>
    <contour>
      <point x="345" y="-110" type="curve" smooth="yes"/>
      <point x="450" y="-110" type="line"/>
      <point x="450" y="-15" type="line"/>
      <point x="400" y="-15" type="line" smooth="yes"/>
      <point x="322" y="-15"/>
      <point x="305" y="4"/>
      <point x="305" y="90" type="curve" smooth="yes"/>
      <point x="305" y="172" type="line" smooth="yes"/>
      <point x="305" y="256"/>
      <point x="277" y="304"/>
      <point x="214" y="329" type="curve"/>
      <point x="214" y="331" type="line"/>
      <point x="277" y="356"/>
      <point x="305" y="404"/>
      <point x="305" y="488" type="curve" smooth="yes"/>
      <point x="305" y="570" type="line" smooth="yes"/>
      <point x="305" y="656"/>
      <point x="322" y="675"/>
      <point x="400" y="675" type="curve" smooth="yes"/>
      <point x="450" y="675" type="line"/>
      <point x="450" y="770" type="line"/>
      <point x="345" y="770" type="line" smooth="yes"/>
      <point x="243" y="770"/>
      <point x="200" y="725"/>
      <point x="200" y="615" type="curve" smooth="yes"/>
      <point x="200" y="500" type="line" smooth="yes"/>
      <point x="200" y="420"/>
      <point x="172" y="380"/>
      <point x="115" y="380" type="curve" smooth="yes"/>
      <point x="70" y="380" type="line"/>
      <point x="70" y="280" type="line"/>
      <point x="115" y="280" type="line" smooth="yes"/>
      <point x="172" y="280"/>
      <point x="200" y="240"/>
      <point x="200" y="160" type="curve" smooth="yes"/>
      <point x="200" y="45" type="line" smooth="yes"/>
      <point x="200" y="-65"/>
      <point x="243" y="-110"/>
    </contour>
  </outline>
</glyph>
<glyph name="anusvara-tamil" format="2">
	<unicode hex="0B82"/>
	<outline>
		<contour>
			<point x="-250" y="676" type="curve" smooth="yes"/>
			<point x="-250" y="742"/>
			<point x="-193" y="799"/>
			<point x="-127" y="799" type="curve" smooth="yes"/>
			<point x="-61" y="799"/>
			<point x="-4" y="743"/>
			<point x="-4" y="676" type="curve" smooth="yes"/>
			<point x="-4" y="609"/>
			<point x="-59" y="553"/>
			<point x="-126" y="553" type="curve" smooth="yes"/>
			<point x="-192" y="553"/>
			<point x="-250" y="610"/>
		</contour>
		<contour>
			<point x="-200" y="676" type="curve" smooth="yes"/>
			<point x="-200" y="635"/>
			<point x="-167" y="602"/>
			<point x="-126" y="602" type="curve" smooth="yes"/>
			<point x="-85" y="602"/>
			<point x="-53" y="635"/>
			<point x="-53" y="676" type="curve" smooth="yes"/>
			<point x="-53" y="717"/>
			<point x="-86" y="750"/>
			<point x="-127" y="750" type="curve" smooth="yes"/>
			<point x="-168" y="750"/>
			<point x="-200" y="717"/>
		</contour>
	</outline>
</glyph>
<glyph name="aytham-tamil" format="2">
	<unicode hex="0B83"/>
	<advance width="803"/>
	<outline>
		<contour>
			<point x="252" y="676" type="curve" smooth="yes"/>
			<point x="252" y="756"/>
			<point x="322" y="826"/>
			<point x="402" y="826" type="curve" smooth="yes"/>
			<point x="482" y="826"/>
			<point x="552" y="758"/>
			<point x="552" y="676" type="curve" smooth="yes"/>
			<point x="552" y="596"/>
			<point x="482" y="526"/>
			<point x="402" y="526" type="curve" smooth="yes"/>
			<point x="322" y="526"/>
			<point x="252" y="596"/>
		</contour>
		<contour>
			<point x="328" y="676" type="curve" smooth="yes"/>
			<point x="328" y="635"/>
			<point x="361" y="602"/>
			<point x="402" y="602" type="curve" smooth="yes"/>
			<point x="443" y="602"/>
			<point x="476" y="635"/>
			<point x="476" y="676" type="curve" smooth="yes"/>
			<point x="476" y="717"/>
			<point x="443" y="750"/>
			<point x="402" y="750" type="curve" smooth="yes"/>
			<point x="361" y="750"/>
			<point x="328" y="717"/>
		</contour>
		<contour>
			<point x="9" y="150" type="curve" smooth="yes"/>
			<point x="9" y="229"/>
			<point x="77" y="298"/>
			<point x="156" y="298" type="curve" smooth="yes"/>
			<point x="237" y="298"/>
			<point x="303" y="230"/>
			<point x="303" y="151" type="curve" smooth="yes"/>
			<point x="303" y="72"/>
			<point x="236" y="4"/>
			<point x="156" y="4" type="curve" smooth="yes"/>
			<point x="76" y="4"/>
			<point x="9" y="70"/>
		</contour>
		<contour>
			<point x="82" y="150" type="curve" smooth="yes"/>
			<point x="82" y="109"/>
			<point x="115" y="77"/>
			<point x="156" y="77" type="curve" smooth="yes"/>
			<point x="197" y="77"/>
			<point x="230" y="110"/>
			<point x="230" y="151" type="curve" smooth="yes"/>
			<point x="230" y="192"/>
			<point x="197" y="224"/>
			<point x="156" y="224" type="curve" smooth="yes"/>
			<point x="115" y="224"/>
			<point x="82" y="191"/>
		</contour>
		<contour>
			<point x="504" y="150" type="curve" smooth="yes"/>
			<point x="504" y="228"/>
			<point x="569" y="295"/>
			<point x="648" y="295" type="curve" smooth="yes"/>
			<point x="725" y="295"/>
			<point x="792" y="228"/>
			<point x="792" y="151" type="curve" smooth="yes"/>
			<point x="792" y="74"/>
			<point x="725" y="7"/>
			<point x="648" y="7" type="curve" smooth="yes"/>
			<point x="571" y="7"/>
			<point x="504" y="71"/>
		</contour>
		<contour>
			<point x="574" y="150" type="curve" smooth="yes"/>
			<point x="574" y="109"/>
			<point x="607" y="77"/>
			<point x="648" y="77" type="curve" smooth="yes"/>
			<point x="689" y="77"/>
			<point x="722" y="110"/>
			<point x="722" y="151" type="curve" smooth="yes"/>
			<point x="722" y="192"/>
			<point x="689" y="224"/>
			<point x="648" y="224" type="curve" smooth="yes"/>
			<point x="607" y="224"/>
			<point x="574" y="191"/>
		</contour>
	</outline>
</glyph>
<glyph name="nga-tamil" format="2">
	<unicode hex="0B99"/>
	<advance width="897"/>
	<outline>
		<contour>
			<point x="547" y="155" type="curve" smooth="yes"/>
			<point x="547" y="210"/>
			<point x="502" y="246"/>
			<point x="446" y="246" type="curve" smooth="yes"/>
			<point x="417" y="246"/>
			<point x="390" y="230"/>
			<point x="363" y="197" type="curve"/>
			<point x="363" y="98" type="line"/>
			<point x="301" y="98" type="line"/>
			<point x="301" y="443" type="line"/>
			<point x="154" y="443" type="line"/>
			<point x="154" y="0" type="line"/>
			<point x="92" y="0" type="line"/>
			<point x="92" y="492" type="line"/>
			<point x="535" y="492" type="line"/>
			<point x="535" y="443" type="line"/>
			<point x="363" y="443" type="line"/>
			<point x="363" y="264" type="line"/>
			<point x="397" y="293"/>
			<point x="432" y="307"/>
			<point x="468" y="307" type="curve" smooth="yes"/>
			<point x="504" y="307"/>
			<point x="536" y="293"/>
			<point x="565" y="264" type="curve" smooth="yes"/>
			<point x="594" y="235"/>
			<point x="608" y="199"/>
			<point x="608" y="155" type="curve" smooth="yes"/>
			<point x="608" y="111"/>
			<point x="592" y="76"/>
			<point x="559" y="49" type="curve"/>
			<point x="744" y="49" type="line"/>
			<point x="744" y="492" type="line"/>
			<point x="805" y="492" type="line"/>
			<point x="805" y="0" type="line"/>
			<point x="301" y="0" type="line"/>
			<point x="301" y="49" type="line"/>
			<point x="436" y="49" type="line" smooth="yes"/>
			<point x="493" y="49"/>
			<point x="547" y="99"/>
		</contour>
	</outline>
</glyph>
<glyph name="ca-tamil" format="2">
	<unicode hex="0B9A"/>
	<advance width="567"/>
	<outline>
		<contour>
			<point x="342" y="270" type="line"/>
			<point x="342" y="443" type="line"/>
			<point x="219" y="443" type="line"/>
			<point x="219" y="270" type="line"/>
		</contour>
		<contour>
			<point x="96" y="160" type="curve" smooth="yes"/>
			<point x="96" y="94"/>
			<point x="160" y="37"/>
			<point x="226" y="37" type="curve" smooth="yes"/>
			<point x="287" y="37"/>
			<point x="342" y="77"/>
			<point x="342" y="135" type="curve" smooth="yes"/>
			<point x="342" y="221" type="line"/>
			<point x="157" y="221" type="line" smooth="yes"/>
			<point x="123" y="221"/>
			<point x="96" y="194"/>
		</contour>
		<contour>
			<point x="34" y="160" type="curve" smooth="yes"/>
			<point x="34" y="222"/>
			<point x="94" y="270"/>
			<point x="157" y="270" type="curve"/>
			<point x="157" y="492" type="line"/>
			<point x="551" y="492" type="line"/>
			<point x="551" y="443" type="line"/>
			<point x="403" y="443" type="line"/>
			<point x="403" y="270" type="line"/>
			<point x="551" y="270" type="line"/>
			<point x="551" y="221" type="line"/>
			<point x="403" y="221" type="line"/>
			<point x="403" y="135" type="line" smooth="yes"/>
			<point x="403" y="47"/>
			<point x="318" y="-12"/>
			<point x="226" y="-12" type="curve" smooth="yes"/>
			<point x="175" y="-12"/>
			<point x="131" y="4"/>
			<point x="92" y="38" type="curve" smooth="yes"/>
			<point x="53" y="72"/>
			<point x="34" y="113"/>
		</contour>
	</outline>
</glyph>
<glyph name="nya-tamil" format="2">
	<unicode hex="0B9E"/>
	<advance width="1100"/>
	<outline>
		<contour>
			<point x="380" y="135" type="curve" smooth="yes"/>
			<point x="380" y="84"/>
			<point x="416" y="37"/>
			<point x="466" y="37" type="curve" smooth="yes"/>
			<point x="516" y="37"/>
			<point x="552" y="85"/>
			<point x="552" y="136" type="curve" smooth="yes"/>
			<point x="552" y="187"/>
			<point x="516" y="234"/>
			<point x="466" y="234" type="curve" smooth="yes"/>
			<point x="416" y="234"/>
			<point x="380" y="186"/>
		</contour>
		<contour>
			<point x="601" y="136" type="curve" smooth="yes"/>
			<point x="601" y="58"/>
			<point x="543" y="-12"/>
			<point x="466" y="-12" type="curve" smooth="yes"/>
			<point x="398" y="-12"/>
			<point x="340" y="9"/>
			<point x="292" y="52" type="curve" smooth="yes"/>
			<point x="244" y="95"/>
			<point x="220" y="148"/>
			<point x="220" y="209" type="curve" smooth="yes"/>
			<point x="220" y="287"/>
			<point x="250" y="354"/>
			<point x="310" y="409" type="curve" smooth="yes"/>
			<point x="370" y="464"/>
			<point x="442" y="492"/>
			<point x="527" y="492" type="curve" smooth="yes"/>
			<point x="1007" y="492" type="line"/>
			<point x="1007" y="443" type="line"/>
			<point x="810" y="443" type="line"/>
			<point x="810" y="246" type="line"/>
			<point x="832" y="271"/>
			<point x="856" y="283"/>
			<point x="884" y="283" type="curve" smooth="yes"/>
			<point x="981" y="283"/>
			<point x="1056" y="197"/>
			<point x="1056" y="98" type="curve" smooth="yes"/>
			<point x="1056" y="-17"/>
			<point x="1012" y="-116"/>
			<point x="926" y="-198" type="curve" smooth="yes"/>
			<point x="840" y="-280"/>
			<point x="736" y="-320"/>
			<point x="613" y="-320" type="curve" smooth="yes"/>
			<point x="464" y="-320"/>
			<point x="336" y="-269"/>
			<point x="231" y="-168" type="curve" smooth="yes"/>
			<point x="126" y="-67"/>
			<point x="73" y="54"/>
			<point x="73" y="197" type="curve" smooth="yes"/>
			<point x="73" y="321"/>
			<point x="104" y="420"/>
			<point x="165" y="492" type="curve"/>
			<point x="208" y="461" type="line"/>
			<point x="155" y="395"/>
			<point x="128" y="307"/>
			<point x="128" y="197" type="curve" smooth="yes"/>
			<point x="128" y="68"/>
			<point x="175" y="-42"/>
			<point x="270" y="-133" type="curve" smooth="yes"/>
			<point x="365" y="-224"/>
			<point x="479" y="-270"/>
			<point x="613" y="-270" type="curve" smooth="yes"/>
			<point x="718" y="-270"/>
			<point x="807" y="-234"/>
			<point x="882" y="-162" type="curve" smooth="yes"/>
			<point x="957" y="-90"/>
			<point x="994" y="-3"/>
			<point x="994" y="98" type="curve" smooth="yes"/>
			<point x="994" y="165"/>
			<point x="950" y="234"/>
			<point x="886" y="234" type="curve" smooth="yes"/>
			<point x="857" y="234"/>
			<point x="832" y="215"/>
			<point x="810" y="178" type="curve"/>
			<point x="810" y="0" type="line"/>
			<point x="749" y="0" type="line"/>
			<point x="749" y="443" type="line"/>
			<point x="527" y="443" type="line" smooth="yes"/>
			<point x="458" y="443"/>
			<point x="398" y="420"/>
			<point x="349" y="374" type="curve" smooth="yes"/>
			<point x="300" y="328"/>
			<point x="275" y="274"/>
			<point x="275" y="209" type="curve" smooth="yes"/>
			<point x="275" y="151"/>
			<point x="300" y="102"/>
			<point x="349" y="61" type="curve"/>
			<point x="337" y="82"/>
			<point x="331" y="107"/>
			<point x="331" y="135" type="curve" smooth="yes"/>
			<point x="331" y="213"/>
			<point x="389" y="283"/>
			<point x="466" y="283" type="curve" smooth="yes"/>
			<point x="544" y="283"/>
			<point x="601" y="215"/>
		</contour>
	</outline>
</glyph>
<glyph name="nna-tamil" format="2">
	<unicode hex="0BA3"/>
	<advance width="1303"/>
	<outline>
		<contour>
			<point x="189" y="135" type="curve" smooth="yes"/>
			<point x="189" y="87"/>
			<point x="217" y="37"/>
			<point x="263" y="37" type="curve" smooth="yes"/>
			<point x="308" y="37"/>
			<point x="337" y="88"/>
			<point x="337" y="136" type="curve" smooth="yes"/>
			<point x="337" y="184"/>
			<point x="309" y="234"/>
			<point x="263" y="234" type="curve" smooth="yes"/>
			<point x="217" y="234"/>
			<point x="189" y="183"/>
		</contour>
		<contour>
			<point x="546" y="37" type="curve" smooth="yes"/>
			<point x="590" y="37"/>
			<point x="607" y="135"/>
			<point x="607" y="186" type="curve" smooth="yes"/>
			<point x="607" y="254"/>
			<point x="587" y="313"/>
			<point x="546" y="363" type="curve"/>
			<point x="505" y="313"/>
			<point x="484" y="258"/>
			<point x="484" y="197" type="curve" smooth="yes"/>
			<point x="484" y="153"/>
			<point x="490" y="115"/>
			<point x="502" y="84" type="curve" smooth="yes"/>
			<point x="514" y="53"/>
			<point x="529" y="37"/>
		</contour>
		<contour>
			<point x="841" y="37" type="curve" smooth="yes"/>
			<point x="885" y="37"/>
			<point x="902" y="136"/>
			<point x="902" y="188" type="curve" smooth="yes"/>
			<point x="902" y="259"/>
			<point x="882" y="319"/>
			<point x="841" y="369" type="curve"/>
			<point x="800" y="319"/>
			<point x="779" y="262"/>
			<point x="779" y="197" type="curve" smooth="yes"/>
			<point x="779" y="153"/>
			<point x="785" y="115"/>
			<point x="797" y="84" type="curve" smooth="yes"/>
			<point x="809" y="53"/>
			<point x="824" y="37"/>
		</contour>
		<contour>
			<point x="546" y="-12" type="curve" smooth="yes"/>
			<point x="465" y="-12"/>
			<point x="423" y="107"/>
			<point x="423" y="197" type="curve" smooth="yes"/>
			<point x="423" y="274"/>
			<point x="450" y="346"/>
			<point x="503" y="412" type="curve"/>
			<point x="469" y="441"/>
			<point x="419" y="455"/>
			<point x="353" y="455" type="curve" smooth="yes"/>
			<point x="287" y="455"/>
			<point x="228" y="431"/>
			<point x="178" y="383" type="curve" smooth="yes"/>
			<point x="128" y="335"/>
			<point x="103" y="277"/>
			<point x="103" y="209" type="curve" smooth="yes"/>
			<point x="103" y="134"/>
			<point x="130" y="72"/>
			<point x="171" y="37" type="curve"/>
			<point x="150" y="73"/>
			<point x="140" y="108"/>
			<point x="140" y="143" type="curve" smooth="yes"/>
			<point x="140" y="211"/>
			<point x="196" y="283"/>
			<point x="263" y="283" type="curve" smooth="yes"/>
			<point x="335" y="283"/>
			<point x="386" y="211"/>
			<point x="386" y="136" type="curve" smooth="yes"/>
			<point x="386" y="51"/>
			<point x="319" y="-12"/>
			<point x="231" y="-12" type="curve" smooth="yes"/>
			<point x="185" y="-12"/>
			<point x="144" y="9"/>
			<point x="108" y="52" type="curve" smooth="yes"/>
			<point x="72" y="95"/>
			<point x="54" y="148"/>
			<point x="54" y="209" type="curve" smooth="yes"/>
			<point x="54" y="290"/>
			<point x="84" y="360"/>
			<point x="144" y="418" type="curve" smooth="yes"/>
			<point x="204" y="476"/>
			<point x="275" y="504"/>
			<point x="357" y="504" type="curve" smooth="yes"/>
			<point x="439" y="504"/>
			<point x="503" y="486"/>
			<point x="546" y="449" type="curve"/>
			<point x="589" y="486"/>
			<point x="639" y="504"/>
			<point x="696" y="504" type="curve" smooth="yes"/>
			<point x="753" y="504"/>
			<point x="804" y="486"/>
			<point x="847" y="449" type="curve"/>
			<point x="881" y="478"/>
			<point x="924" y="492"/>
			<point x="976" y="492" type="curve" smooth="yes"/>
			<point x="1296" y="492" type="line"/>
			<point x="1296" y="443" type="line"/>
			<point x="1148" y="443" type="line"/>
			<point x="1148" y="0" type="line"/>
			<point x="1087" y="0" type="line"/>
			<point x="1087" y="443" type="line"/>
			<point x="976" y="443" type="line" smooth="yes"/>
			<point x="946" y="443"/>
			<point x="914" y="433"/>
			<point x="878" y="412" type="curve"/>
			<point x="935" y="345"/>
			<point x="964" y="273"/>
			<point x="964" y="197" type="curve" smooth="yes"/>
			<point x="964" y="107"/>
			<point x="922" y="-12"/>
			<point x="841" y="-12" type="curve" smooth="yes"/>
			<point x="763" y="-12"/>
			<point x="718" y="105"/>
			<point x="718" y="189" type="curve" smooth="yes"/>
			<point x="718" y="293"/>
			<point x="745" y="367"/>
			<point x="798" y="412" type="curve"/>
			<point x="764" y="441"/>
			<point x="729" y="455"/>
			<point x="693" y="455" type="curve" smooth="yes"/>
			<point x="659" y="455"/>
			<point x="623" y="439"/>
			<point x="583" y="406" type="curve"/>
			<point x="638" y="361"/>
			<point x="669" y="286"/>
			<point x="669" y="186" type="curve" smooth="yes"/>
			<point x="669" y="103"/>
			<point x="623" y="-12"/>
		</contour>
	</outline>
</glyph>
<glyph name="nnna-tamil" format="2">
	<unicode hex="0BA9"/>
	<advance width="993"/>
	<outline>
		<contour>
			<point x="187" y="135" type="curve" smooth="yes"/>
			<point x="187" y="84"/>
			<point x="223" y="37"/>
			<point x="273" y="37" type="curve" smooth="yes"/>
			<point x="323" y="37"/>
			<point x="359" y="85"/>
			<point x="359" y="136" type="curve" smooth="yes"/>
			<point x="359" y="187"/>
			<point x="323" y="234"/>
			<point x="273" y="234" type="curve" smooth="yes"/>
			<point x="223" y="234"/>
			<point x="187" y="186"/>
		</contour>
		<contour>
			<point x="580" y="37" type="curve" smooth="yes"/>
			<point x="624" y="37"/>
			<point x="642" y="136"/>
			<point x="642" y="188" type="curve" smooth="yes"/>
			<point x="642" y="259"/>
			<point x="621" y="319"/>
			<point x="580" y="369" type="curve"/>
			<point x="539" y="320"/>
			<point x="519" y="263"/>
			<point x="519" y="197" type="curve" smooth="yes"/>
			<point x="519" y="153"/>
			<point x="524" y="115"/>
			<point x="536" y="84" type="curve" smooth="yes"/>
			<point x="548" y="53"/>
			<point x="563" y="37"/>
		</contour>
		<contour>
			<point x="408" y="136" type="curve" smooth="yes"/>
			<point x="408" y="58"/>
			<point x="350" y="-12"/>
			<point x="273" y="-12" type="curve" smooth="yes"/>
			<point x="212" y="-12"/>
			<point x="159" y="9"/>
			<point x="116" y="52" type="curve" smooth="yes"/>
			<point x="73" y="95"/>
			<point x="52" y="148"/>
			<point x="52" y="209" type="curve" smooth="yes"/>
			<point x="52" y="290"/>
			<point x="83" y="360"/>
			<point x="145" y="418" type="curve" smooth="yes"/>
			<point x="207" y="476"/>
			<point x="283" y="504"/>
			<point x="372" y="504" type="curve" smooth="yes"/>
			<point x="461" y="504"/>
			<point x="531" y="484"/>
			<point x="580" y="443" type="curve"/>
			<point x="620" y="476"/>
			<point x="669" y="492"/>
			<point x="728" y="492" type="curve" smooth="yes"/>
			<point x="986" y="492" type="line"/>
			<point x="986" y="443" type="line"/>
			<point x="888" y="443" type="line"/>
			<point x="888" y="0" type="line"/>
			<point x="826" y="0" type="line"/>
			<point x="826" y="443" type="line"/>
			<point x="728" y="443" type="line" smooth="yes"/>
			<point x="683" y="443"/>
			<point x="646" y="431"/>
			<point x="617" y="406" type="curve"/>
			<point x="672" y="361"/>
			<point x="703" y="286"/>
			<point x="703" y="186" type="curve" smooth="yes"/>
			<point x="703" y="103"/>
			<point x="657" y="-12"/>
			<point x="580" y="-12" type="curve" smooth="yes"/>
			<point x="503" y="-12"/>
			<point x="457" y="104"/>
			<point x="457" y="186" type="curve" smooth="yes"/>
			<point x="457" y="279"/>
			<point x="486" y="350"/>
			<point x="543" y="400" type="curve"/>
			<point x="500" y="437"/>
			<point x="441" y="455"/>
			<point x="368" y="455" type="curve" smooth="yes"/>
			<point x="295" y="455"/>
			<point x="233" y="431"/>
			<point x="180" y="383" type="curve" smooth="yes"/>
			<point x="127" y="335"/>
			<point x="101" y="277"/>
			<point x="101" y="209" type="curve" smooth="yes"/>
			<point x="101" y="155"/>
			<point x="117" y="114"/>
			<point x="150" y="86" type="curve"/>
			<point x="142" y="101"/>
			<point x="138" y="117"/>
			<point x="138" y="135" type="curve" smooth="yes"/>
			<point x="138" y="213"/>
			<point x="196" y="283"/>
			<point x="273" y="283" type="curve" smooth="yes"/>
			<point x="351" y="283"/>
			<point x="408" y="215"/>
		</contour>
	</outline>
</glyph>
<glyph name="rra-tamil" format="2">
	<unicode hex="0BB1"/>
	<advance width="697"/>
	<outline>
		<contour>
			<point x="328" y="443" type="curve"/>
			<point x="347" y="480"/>
			<point x="395" y="504"/>
			<point x="451" y="504" type="curve" smooth="yes"/>
			<point x="500" y="504"/>
			<point x="542" y="477"/>
			<point x="577" y="424" type="curve" smooth="yes"/>
			<point x="612" y="371"/>
			<point x="629" y="308"/>
			<point x="629" y="234" type="curve" smooth="yes"/>
			<point x="629" y="135"/>
			<point x="604" y="52"/>
			<point x="554" y="-18" type="curve" smooth="yes"/>
			<point x="504" y="-88"/>
			<point x="442" y="-123"/>
			<point x="371" y="-123" type="curve" smooth="yes"/>
			<point x="175" y="-123" type="line" smooth="yes"/>
			<point x="148" y="-123"/>
			<point x="129" y="-137"/>
			<point x="118" y="-164" type="curve" smooth="yes"/>
			<point x="107" y="-191"/>
			<point x="110" y="-219"/>
			<point x="125" y="-246" type="curve"/>
			<point x="76" y="-270" type="line"/>
			<point x="60" y="-242"/>
			<point x="52" y="-218"/>
			<point x="52" y="-197" type="curve" smooth="yes"/>
			<point x="52" y="-130"/>
			<point x="108" y="-74"/>
			<point x="175" y="-74" type="curve" smooth="yes"/>
			<point x="371" y="-74" type="line" smooth="yes"/>
			<point x="425" y="-74"/>
			<point x="471" y="-44"/>
			<point x="510" y="16" type="curve" smooth="yes"/>
			<point x="549" y="76"/>
			<point x="568" y="149"/>
			<point x="568" y="234" type="curve" smooth="yes"/>
			<point x="568" y="295"/>
			<point x="558" y="347"/>
			<point x="536" y="390" type="curve" smooth="yes"/>
			<point x="514" y="433"/>
			<point x="489" y="455"/>
			<point x="460" y="455" type="curve" smooth="yes"/>
			<point x="407" y="455"/>
			<point x="359" y="419"/>
			<point x="359" y="369" type="curve" smooth="yes"/>
			<point x="359" y="0" type="line"/>
			<point x="297" y="0" type="line"/>
			<point x="297" y="369" type="line" smooth="yes"/>
			<point x="297" y="414"/>
			<point x="267" y="455"/>
			<point x="224" y="455" type="curve" smooth="yes"/>
			<point x="181" y="455"/>
			<point x="150" y="413"/>
			<point x="150" y="369" type="curve" smooth="yes"/>
			<point x="150" y="0" type="line"/>
			<point x="89" y="0" type="line"/>
			<point x="89" y="369" type="line" smooth="yes"/>
			<point x="89" y="444"/>
			<point x="149" y="504"/>
			<point x="224" y="504" type="curve" smooth="yes"/>
			<point x="272" y="504"/>
			<point x="312" y="477"/>
		</contour>
	</outline>
</glyph>
<glyph name="lla-tamil" format="2">
	<unicode hex="0BB3"/>
	<advance width="924"/>
	<outline>
		<contour>
			<point x="204" y="145" type="curve" smooth="yes"/>
			<point x="204" y="99"/>
			<point x="234" y="49"/>
			<point x="278" y="49" type="curve" smooth="yes"/>
			<point x="322" y="49"/>
			<point x="352" y="100"/>
			<point x="352" y="146" type="curve" smooth="yes"/>
			<point x="352" y="193"/>
			<point x="323" y="234"/>
			<point x="278" y="234" type="curve" smooth="yes"/>
			<point x="234" y="234"/>
			<point x="204" y="191"/>
		</contour>
		<contour>
			<point x="290" y="504" type="curve" smooth="yes"/>
			<point x="379" y="504"/>
			<point x="454" y="463"/>
			<point x="487" y="406" type="curve"/>
			<point x="487" y="492" type="line"/>
			<point x="917" y="492" type="line"/>
			<point x="917" y="443" type="line"/>
			<point x="782" y="443" type="line"/>
			<point x="782" y="0" type="line"/>
			<point x="720" y="0" type="line"/>
			<point x="720" y="443" type="line"/>
			<point x="536" y="443" type="line"/>
			<point x="536" y="0" type="line"/>
			<point x="475" y="0" type="line"/>
			<point x="475" y="246" type="line" smooth="yes"/>
			<point x="475" y="303"/>
			<point x="456" y="353"/>
			<point x="420" y="394" type="curve" smooth="yes"/>
			<point x="384" y="435"/>
			<point x="341" y="455"/>
			<point x="290" y="455" type="curve" smooth="yes"/>
			<point x="239" y="455"/>
			<point x="196" y="433"/>
			<point x="160" y="390" type="curve" smooth="yes"/>
			<point x="124" y="347"/>
			<point x="106" y="295"/>
			<point x="106" y="234" type="curve" smooth="yes"/>
			<point x="106" y="164"/>
			<point x="138" y="108"/>
			<point x="179" y="74" type="curve"/>
			<point x="163" y="102"/>
			<point x="155" y="127"/>
			<point x="155" y="148" type="curve" smooth="yes"/>
			<point x="155" y="220"/>
			<point x="208" y="283"/>
			<point x="278" y="283" type="curve" smooth="yes"/>
			<point x="350" y="283"/>
			<point x="401" y="218"/>
			<point x="401" y="143" type="curve" smooth="yes"/>
			<point x="401" y="102"/>
			<point x="387" y="66"/>
			<point x="358" y="35" type="curve" smooth="yes"/>
			<point x="329" y="4"/>
			<point x="294" y="-12"/>
			<point x="253" y="-12" type="curve" smooth="yes"/>
			<point x="199" y="-12"/>
			<point x="152" y="12"/>
			<point x="114" y="60" type="curve" smooth="yes"/>
			<point x="76" y="108"/>
			<point x="57" y="168"/>
			<point x="57" y="239" type="curve" smooth="yes"/>
			<point x="57" y="310"/>
			<point x="80" y="372"/>
			<point x="125" y="425" type="curve" smooth="yes"/>
			<point x="170" y="478"/>
			<point x="225" y="504"/>
		</contour>
	</outline>
</glyph>
<glyph name="llla-tamil" format="2">
	<unicode hex="0BB4"/>
	<advance width="824"/>
	<outline>
		<contour>
			<point x="522" y="455" type="curve" smooth="yes"/>
			<point x="479" y="455"/>
			<point x="449" y="413"/>
			<point x="449" y="369" type="curve" smooth="yes"/>
			<point x="449" y="49" type="line"/>
			<point x="621" y="49" type="line" smooth="yes"/>
			<point x="677" y="49"/>
			<point x="707" y="123"/>
			<point x="707" y="184" type="curve" smooth="yes"/>
			<point x="707" y="259"/>
			<point x="689" y="323"/>
			<point x="653" y="376" type="curve" smooth="yes"/>
			<point x="617" y="429"/>
			<point x="573" y="455"/>
		</contour>
		<contour>
			<point x="387" y="369" type="line" smooth="yes"/>
			<point x="387" y="444"/>
			<point x="447" y="504"/>
			<point x="522" y="504" type="curve" smooth="yes"/>
			<point x="590" y="504"/>
			<point x="648" y="472"/>
			<point x="696" y="410" type="curve" smooth="yes"/>
			<point x="744" y="348"/>
			<point x="768" y="273"/>
			<point x="768" y="184" type="curve" smooth="yes"/>
			<point x="768" y="92"/>
			<point x="709" y="0"/>
			<point x="621" y="0" type="curve" smooth="yes"/>
			<point x="449" y="0" type="line"/>
			<point x="457" y="-52"/>
			<point x="501" y="-98"/>
			<point x="559" y="-98" type="curve" smooth="yes"/>
			<point x="707" y="-98" type="line"/>
			<point x="707" y="-148" type="line"/>
			<point x="608" y="-148" type="line" smooth="yes"/>
			<point x="536" y="-148"/>
			<point x="487" y="-189"/>
			<point x="458" y="-240" type="curve" smooth="yes"/>
			<point x="427" y="-294"/>
			<point x="358" y="-344"/>
			<point x="277" y="-344" type="curve" smooth="yes"/>
			<point x="226" y="-344"/>
			<point x="182" y="-330"/>
			<point x="146" y="-301" type="curve" smooth="yes"/>
			<point x="110" y="-272"/>
			<point x="92" y="-239"/>
			<point x="92" y="-202" type="curve" smooth="yes"/>
			<point x="92" y="-131"/>
			<point x="146" y="-74"/>
			<point x="215" y="-74" type="curve" smooth="yes"/>
			<point x="313" y="-74" type="line"/>
			<point x="313" y="-123" type="line"/>
			<point x="215" y="-123" type="line" smooth="yes"/>
			<point x="176" y="-123"/>
			<point x="154" y="-160"/>
			<point x="154" y="-202" type="curve" smooth="yes"/>
			<point x="154" y="-253"/>
			<point x="216" y="-295"/>
			<point x="268" y="-295" type="curve" smooth="yes"/>
			<point x="324" y="-295"/>
			<point x="364" y="-275"/>
			<point x="387" y="-234" type="curve" smooth="yes"/>
			<point x="410" y="-191"/>
			<point x="443" y="-158"/>
			<point x="486" y="-135" type="curve"/>
			<point x="435" y="-116"/>
			<point x="387" y="-66"/>
			<point x="387" y="0" type="curve"/>
			<point x="92" y="0" type="line"/>
			<point x="92" y="492" type="line"/>
			<point x="154" y="492" type="line"/>
			<point x="154" y="49" type="line"/>
			<point x="387" y="49" type="line"/>
		</contour>
	</outline>
</glyph>
<glyph name="sa-tamil" format="2">
	<unicode hex="0BB8"/>
	<advance width="1100"/>
	<outline>
		<contour>
			<point x="215" y="135" type="curve" smooth="yes"/>
			<point x="215" y="87"/>
			<point x="243" y="37"/>
			<point x="289" y="37" type="curve" smooth="yes"/>
			<point x="334" y="37"/>
			<point x="363" y="88"/>
			<point x="363" y="136" type="curve" smooth="yes"/>
			<point x="363" y="184"/>
			<point x="335" y="234"/>
			<point x="289" y="234" type="curve" smooth="yes"/>
			<point x="243" y="234"/>
			<point x="215" y="183"/>
		</contour>
		<contour>
			<point x="486" y="307" type="line" smooth="yes"/>
			<point x="486" y="394"/>
			<point x="390" y="449"/>
			<point x="298" y="449" type="curve" smooth="yes"/>
			<point x="246" y="449"/>
			<point x="201" y="426"/>
			<point x="162" y="382" type="curve" smooth="yes"/>
			<point x="123" y="338"/>
			<point x="104" y="284"/>
			<point x="104" y="221" type="curve" smooth="yes"/>
			<point x="104" y="149"/>
			<point x="133" y="87"/>
			<point x="178" y="61" type="curve"/>
			<point x="170" y="84"/>
			<point x="166" y="108"/>
			<point x="166" y="135" type="curve" smooth="yes"/>
			<point x="166" y="210"/>
			<point x="216" y="283"/>
			<point x="288" y="283" type="curve" smooth="yes"/>
			<point x="360" y="283"/>
			<point x="412" y="211"/>
			<point x="412" y="136" type="curve" smooth="yes"/>
			<point x="412" y="58"/>
			<point x="354" y="-12"/>
			<point x="277" y="-12" type="curve" smooth="yes"/>
			<point x="216" y="-12"/>
			<point x="163" y="11"/>
			<point x="120" y="56" type="curve" smooth="yes"/>
			<point x="77" y="101"/>
			<point x="55" y="156"/>
			<point x="55" y="221" type="curve" smooth="yes"/>
			<point x="55" y="299"/>
			<point x="79" y="366"/>
			<point x="127" y="421" type="curve" smooth="yes"/>
			<point x="175" y="476"/>
			<point x="233" y="504"/>
			<point x="301" y="504" type="curve" smooth="yes"/>
			<point x="393" y="504"/>
			<point x="470" y="464"/>
			<point x="504" y="406" type="curve"/>
			<point x="518" y="459"/>
			<point x="562" y="504"/>
			<point x="626" y="504" type="curve" smooth="yes"/>
			<point x="656" y="504"/>
			<point x="684" y="490"/>
			<point x="708" y="464" type="curve" smooth="yes"/>
			<point x="732" y="438"/>
			<point x="744" y="406"/>
			<point x="744" y="369" type="curve" smooth="yes"/>
			<point x="744" y="135" type="line" smooth="yes"/>
			<point x="744" y="84"/>
			<point x="780" y="37"/>
			<point x="830" y="37" type="curve" smooth="yes"/>
			<point x="920" y="37"/>
			<point x="977" y="146"/>
			<point x="977" y="240" type="curve" smooth="yes"/>
			<point x="977" y="351"/>
			<point x="926" y="437"/>
			<point x="854" y="479" type="curve"/>
			<point x="897" y="529" type="line"/>
			<point x="982" y="479"/>
			<point x="1039" y="373"/>
			<point x="1039" y="239" type="curve" smooth="yes"/>
			<point x="1039" y="172"/>
			<point x="1019" y="114"/>
			<point x="978" y="64" type="curve" smooth="yes"/>
			<point x="937" y="14"/>
			<point x="887" y="-12"/>
			<point x="830" y="-12" type="curve" smooth="yes"/>
			<point x="749" y="-12"/>
			<point x="682" y="54"/>
			<point x="682" y="135" type="curve" smooth="yes"/>
			<point x="682" y="369" type="line" smooth="yes"/>
			<point x="682" y="410"/>
			<point x="658" y="449"/>
			<point x="618" y="449" type="curve" smooth="yes"/>
			<point x="574" y="449"/>
			<point x="547" y="392"/>
			<point x="547" y="344" type="curve" smooth="yes"/>
			<point x="547" y="0" type="line"/>
			<point x="486" y="0" type="line"/>
		</contour>
	</outline>
</glyph>
<glyph name="ha-tamil" format="2">
	<unicode hex="0BB9"/>
	<advance width="1255"/>
	<outline>
		<contour>
			<point x="205" y="135" type="curve" smooth="yes"/>
			<point x="205" y="84"/>
			<point x="242" y="37"/>
			<point x="292" y="37" type="curve" smooth="yes"/>
			<point x="341" y="37"/>
			<point x="377" y="85"/>
			<point x="377" y="136" type="curve" smooth="yes"/>
			<point x="377" y="187"/>
			<point x="341" y="234"/>
			<point x="291" y="234" type="curve" smooth="yes"/>
			<point x="241" y="234"/>
			<point x="205" y="186"/>
		</contour>
		<contour>
			<point x="660" y="381" type="line" smooth="yes"/>
			<point x="660" y="449"/>
			<point x="718" y="504"/>
			<point x="787" y="504" type="curve" smooth="yes"/>
			<point x="823" y="504"/>
			<point x="854" y="488"/>
			<point x="881" y="455" type="curve"/>
			<point x="909" y="488"/>
			<point x="950" y="504"/>
			<point x="1002" y="504" type="curve" smooth="yes"/>
			<point x="1054" y="504"/>
			<point x="1098" y="478"/>
			<point x="1134" y="428" type="curve" smooth="yes"/>
			<point x="1170" y="378"/>
			<point x="1189" y="317"/>
			<point x="1189" y="246" type="curve" smooth="yes"/>
			<point x="1189" y="145"/>
			<point x="1163" y="58"/>
			<point x="1110" y="-14" type="curve" smooth="yes"/>
			<point x="1057" y="-86"/>
			<point x="993" y="-123"/>
			<point x="918" y="-123" type="curve" smooth="yes"/>
			<point x="205" y="-123" type="line" smooth="yes"/>
			<point x="167" y="-123"/>
			<point x="132" y="-155"/>
			<point x="132" y="-191" type="curve" smooth="yes"/>
			<point x="132" y="-208"/>
			<point x="140" y="-230"/>
			<point x="156" y="-258" type="curve"/>
			<point x="107" y="-295" type="line"/>
			<point x="82" y="-266"/>
			<point x="70" y="-234"/>
			<point x="70" y="-199" type="curve" smooth="yes"/>
			<point x="70" y="-128"/>
			<point x="133" y="-74"/>
			<point x="205" y="-74" type="curve" smooth="yes"/>
			<point x="918" y="-74" type="line" smooth="yes"/>
			<point x="975" y="-74"/>
			<point x="1025" y="-42"/>
			<point x="1066" y="20" type="curve" smooth="yes"/>
			<point x="1107" y="82"/>
			<point x="1127" y="157"/>
			<point x="1127" y="246" type="curve" smooth="yes"/>
			<point x="1127" y="303"/>
			<point x="1115" y="353"/>
			<point x="1091" y="394" type="curve" smooth="yes"/>
			<point x="1067" y="435"/>
			<point x="1040" y="455"/>
			<point x="1009" y="455" type="curve" smooth="yes"/>
			<point x="957" y="455"/>
			<point x="906" y="429"/>
			<point x="906" y="381" type="curve" smooth="yes"/>
			<point x="906" y="0" type="line"/>
			<point x="845" y="0" type="line"/>
			<point x="845" y="381" type="line" smooth="yes"/>
			<point x="845" y="419"/>
			<point x="820" y="455"/>
			<point x="783" y="455" type="curve" smooth="yes"/>
			<point x="746" y="455"/>
			<point x="722" y="419"/>
			<point x="722" y="381" type="curve" smooth="yes"/>
			<point x="722" y="0" type="line"/>
			<point x="451" y="0" type="line"/>
			<point x="451" y="37" type="line"/>
			<point x="492" y="87"/>
			<point x="513" y="146"/>
			<point x="513" y="216" type="curve" smooth="yes"/>
			<point x="513" y="347"/>
			<point x="442" y="455"/>
			<point x="315" y="455" type="curve" smooth="yes"/>
			<point x="184" y="455"/>
			<point x="113" y="346"/>
			<point x="113" y="209" type="curve" smooth="yes"/>
			<point x="113" y="150"/>
			<point x="136" y="101"/>
			<point x="181" y="61" type="curve"/>
			<point x="164" y="90"/>
			<point x="156" y="115"/>
			<point x="156" y="135" type="curve" smooth="yes"/>
			<point x="156" y="213"/>
			<point x="215" y="283"/>
			<point x="292" y="283" type="curve" smooth="yes"/>
			<point x="369" y="283"/>
			<point x="427" y="215"/>
			<point x="427" y="136" type="curve" smooth="yes"/>
			<point x="427" y="52"/>
			<point x="352" y="-12"/>
			<point x="267" y="-12" type="curve" smooth="yes"/>
			<point x="210" y="-12"/>
			<point x="161" y="9"/>
			<point x="120" y="52" type="curve" smooth="yes"/>
			<point x="79" y="95"/>
			<point x="58" y="148"/>
			<point x="58" y="209" type="curve" smooth="yes"/>
			<point x="58" y="378"/>
			<point x="152" y="504"/>
			<point x="316" y="504" type="curve" smooth="yes"/>
			<point x="480" y="504"/>
			<point x="574" y="377"/>
			<point x="574" y="209" type="curve" smooth="yes"/>
			<point x="574" y="159"/>
			<point x="558" y="106"/>
			<point x="525" y="49" type="curve"/>
			<point x="660" y="49" type="line"/>
		</contour>
	</outline>
</glyph>
<glyph name="iiMatra-tamil" format="2">
	<unicode hex="0BC0"/>
	<advance width="553"/>
	<outline>
		<contour>
			<point x="203" y="492" type="line"/>
			<point x="144" y="526"/>
			<point x="92" y="591"/>
			<point x="92" y="676" type="curve" smooth="yes"/>
			<point x="92" y="723"/>
			<point x="111" y="764"/>
			<point x="150" y="798" type="curve" smooth="yes"/>
			<point x="189" y="832"/>
			<point x="233" y="848"/>
			<point x="284" y="848" type="curve" smooth="yes"/>
			<point x="371" y="848"/>
			<point x="461" y="797"/>
			<point x="461" y="716" type="curve" smooth="yes"/>
			<point x="461" y="647"/>
			<point x="406" y="590"/>
			<point x="338" y="590" type="curve" smooth="yes"/>
			<point x="272" y="590"/>
			<point x="215" y="647"/>
			<point x="215" y="713" type="curve" smooth="yes"/>
			<point x="215" y="753"/>
			<point x="237" y="784"/>
			<point x="264" y="799" type="curve"/>
			<point x="206" y="788"/>
			<point x="154" y="741"/>
			<point x="154" y="674" type="curve" smooth="yes"/>
			<point x="154" y="643"/>
			<point x="166" y="610"/>
			<point x="190" y="577" type="curve" smooth="yes"/>
			<point x="214" y="544"/>
			<point x="247" y="515"/>
			<point x="289" y="492" type="curve"/>
		</contour>
		<contour>
			<point x="277" y="713" type="curve" smooth="yes"/>
			<point x="277" y="675"/>
			<point x="301" y="639"/>
			<point x="338" y="639" type="curve" smooth="yes"/>
			<point x="375" y="639"/>
			<point x="400" y="675"/>
			<point x="400" y="713" type="curve" smooth="yes"/>
			<point x="400" y="751"/>
			<point x="375" y="787"/>
			<point x="338" y="787" type="curve" smooth="yes"/>
			<point x="301" y="787"/>
			<point x="277" y="751"/>
		</contour>
	</outline>
</glyph>
<glyph name="uMatra-tamil" format="2">
	<unicode hex="0BC1"/>
	<advance width="532"/>
	<outline>
		<contour>
			<point x="334" y="172" type="curve" smooth="yes"/>
			<point x="246" y="172"/>
			<point x="173" y="244"/>
			<point x="173" y="332" type="curve" smooth="yes"/>
			<point x="173" y="443" type="line"/>
			<point x="-208" y="443" type="line"/>
			<point x="-208" y="492" type="line"/>
			<point x="333" y="492" type="line" smooth="yes"/>
			<point x="420" y="492"/>
			<point x="493" y="419"/>
			<point x="493" y="332" type="curve" smooth="yes"/>
			<point x="493" y="244"/>
			<point x="422" y="172"/>
		</contour>
		<contour>
			<point x="235" y="332" type="line" smooth="yes"/>
			<point x="235" y="275"/>
			<point x="278" y="221"/>
			<point x="334" y="221" type="curve" smooth="yes"/>
			<point x="390" y="221"/>
			<point x="431" y="275"/>
			<point x="431" y="332" type="curve" smooth="yes"/>
			<point x="431" y="390"/>
			<point x="389" y="443"/>
			<point x="333" y="443" type="curve" smooth="yes"/>
			<point x="235" y="443" type="line"/>
		</contour>
	</outline>
</glyph>
<glyph name="uuMatra-tamil" format="2">
	<unicode hex="0BC2"/>
	<advance width="776"/>
	<outline>
		<contour>
			<point x="345" y="246" type="curve" smooth="yes"/>
			<point x="230" y="246"/>
			<point x="148" y="341"/>
			<point x="130" y="443" type="curve"/>
			<point x="-208" y="443" type="line"/>
			<point x="-208" y="492" type="line"/>
			<point x="124" y="492" type="line"/>
			<point x="124" y="541" type="line" smooth="yes"/>
			<point x="124" y="622"/>
			<point x="152" y="692"/>
			<point x="210" y="750" type="curve" smooth="yes"/>
			<point x="268" y="808"/>
			<point x="339" y="836"/>
			<point x="424" y="836" type="curve" smooth="yes"/>
			<point x="509" y="836"/>
			<point x="584" y="799"/>
			<point x="646" y="724" type="curve" smooth="yes"/>
			<point x="708" y="649"/>
			<point x="739" y="558"/>
			<point x="739" y="450" type="curve" smooth="yes"/>
			<point x="739" y="342"/>
			<point x="699" y="247"/>
			<point x="620" y="168" type="curve" smooth="yes"/>
			<point x="541" y="89"/>
			<point x="446" y="49"/>
			<point x="333" y="49" type="curve" smooth="yes"/>
			<point x="209" y="49"/>
			<point x="110" y="101"/>
			<point x="50" y="172" type="curve"/>
			<point x="87" y="209" type="line"/>
			<point x="127" y="139"/>
			<point x="222" y="98"/>
			<point x="333" y="98" type="curve" smooth="yes"/>
			<point x="428" y="98"/>
			<point x="509" y="132"/>
			<point x="576" y="202" type="curve" smooth="yes"/>
			<point x="643" y="272"/>
			<point x="677" y="355"/>
			<point x="677" y="450" type="curve" smooth="yes"/>
			<point x="677" y="545"/>
			<point x="652" y="625"/>
			<point x="602" y="690" type="curve" smooth="yes"/>
			<point x="552" y="755"/>
			<point x="492" y="787"/>
			<point x="424" y="787" type="curve" smooth="yes"/>
			<point x="356" y="787"/>
			<point x="299" y="763"/>
			<point x="254" y="715" type="curve" smooth="yes"/>
			<point x="209" y="667"/>
			<point x="186" y="609"/>
			<point x="186" y="541" type="curve" smooth="yes"/>
			<point x="186" y="492" type="line"/>
			<point x="345" y="492" type="line" smooth="yes"/>
			<point x="417" y="492"/>
			<point x="481" y="439"/>
			<point x="481" y="369" type="curve" smooth="yes"/>
			<point x="481" y="299"/>
			<point x="417" y="246"/>
		</contour>
		<contour>
			<point x="192" y="443" type="line"/>
			<point x="205" y="369"/>
			<point x="263" y="295"/>
			<point x="345" y="295" type="curve" smooth="yes"/>
			<point x="386" y="295"/>
			<point x="419" y="328"/>
			<point x="419" y="369" type="curve" smooth="yes"/>
			<point x="419" y="410"/>
			<point x="386" y="443"/>
			<point x="345" y="443" type="curve" smooth="yes"/>
		</contour>
	</outline>
</glyph>
<glyph name="om-tamil" format="2">
	<unicode hex="0BD0"/>
	<advance width="1023"/>
	<outline>
		<contour>
			<point x="330" y="22" type="curve" smooth="yes"/>
			<point x="347" y="22"/>
			<point x="356" y="11"/>
			<point x="356" y="-4" type="curve" smooth="yes"/>
			<point x="356" y="-6" type="line" smooth="yes"/>
			<point x="356" y="-19"/>
			<point x="347" y="-30"/>
			<point x="332" y="-30" type="curve" smooth="yes"/>
			<point x="318" y="-30"/>
			<point x="308" y="-18"/>
			<point x="308" y="-4" type="curve" smooth="yes"/>
			<point x="308" y="8"/>
			<point x="320" y="22"/>
		</contour>
		<contour>
			<point x="369" y="-164" type="line"/>
			<point x="385" y="-140"/>
			<point x="386" y="-119"/>
			<point x="371" y="-100" type="curve" smooth="yes"/>
			<point x="356" y="-83"/>
			<point x="340" y="-83"/>
			<point x="326" y="-98" type="curve" smooth="yes"/>
			<point x="312" y="-113"/>
			<point x="311" y="-134"/>
			<point x="323" y="-163" type="curve"/>
		</contour>
		<contour>
			<point x="554" y="-49" type="curve"/>
			<point x="492" y="-26"/>
			<point x="431" y="32"/>
			<point x="431" y="111" type="curve" smooth="yes"/>
			<point x="431" y="158"/>
			<point x="450" y="198"/>
			<point x="489" y="232" type="curve" smooth="yes"/>
			<point x="528" y="266"/>
			<point x="574" y="283"/>
			<point x="628" y="283" type="curve"/>
			<point x="595" y="243"/>
			<point x="579" y="202"/>
			<point x="579" y="160" type="curve" smooth="yes"/>
			<point x="579" y="117"/>
			<point x="620" y="86"/>
			<point x="665" y="86" type="curve" smooth="yes"/>
			<point x="715" y="86"/>
			<point x="751" y="133"/>
			<point x="751" y="184" type="curve" smooth="yes"/>
			<point x="751" y="262"/>
			<point x="719" y="329"/>
			<point x="654" y="384" type="curve" smooth="yes"/>
			<point x="589" y="439"/>
			<point x="512" y="467"/>
			<point x="422" y="467" type="curve" smooth="yes"/>
			<point x="332" y="467"/>
			<point x="255" y="442"/>
			<point x="193" y="392" type="curve" smooth="yes"/>
			<point x="131" y="342"/>
			<point x="100" y="280"/>
			<point x="100" y="209" type="curve" smooth="yes"/>
			<point x="100" y="182"/>
			<point x="104" y="158"/>
			<point x="112" y="135" type="curve"/>
			<point x="112" y="208"/>
			<point x="163" y="277"/>
			<point x="234" y="277" type="curve" smooth="yes"/>
			<point x="303" y="277"/>
			<point x="358" y="216"/>
			<point x="358" y="146" type="curve" smooth="yes"/>
			<point x="358" y="76"/>
			<point x="303" y="12"/>
			<point x="235" y="12" type="curve" smooth="yes"/>
			<point x="184" y="12"/>
			<point x="140" y="31"/>
			<point x="104" y="70" type="curve" smooth="yes"/>
			<point x="68" y="109"/>
			<point x="50" y="155"/>
			<point x="50" y="209" type="curve" smooth="yes"/>
			<point x="50" y="294"/>
			<point x="86" y="366"/>
			<point x="158" y="426" type="curve" smooth="yes"/>
			<point x="230" y="486"/>
			<point x="319" y="516"/>
			<point x="424" y="516" type="curve" smooth="yes"/>
			<point x="529" y="516"/>
			<point x="621" y="484"/>
			<point x="698" y="419" type="curve" smooth="yes"/>
			<point x="775" y="354"/>
			<point x="813" y="276"/>
			<point x="813" y="184" type="curve" smooth="yes"/>
			<point x="813" y="104"/>
			<point x="747" y="37"/>
			<point x="668" y="37" type="curve" smooth="yes"/>
			<point x="594" y="37"/>
			<point x="530" y="88"/>
			<point x="530" y="160" type="curve" smooth="yes"/>
			<point x="530" y="174"/>
			<point x="540" y="198"/>
			<point x="561" y="234" type="curve"/>
			<point x="521" y="211"/>
			<point x="481" y="167"/>
			<point x="481" y="111" type="curve" smooth="yes"/>
			<point x="481" y="29"/>
			<point x="567" y="-25"/>
			<point x="653" y="-25" type="curve" smooth="yes"/>
			<point x="788" y="-25" type="line"/>
			<point x="788" y="-74" type="line"/>
			<point x="607" y="-74" type="line" smooth="yes"/>
			<point x="594" y="-74"/>
			<point x="578" y="-82"/>
			<point x="559" y="-98" type="curve" smooth="yes"/>
			<point x="540" y="-114"/>
			<point x="526" y="-136"/>
			<point x="515" y="-163" type="curve" smooth="yes"/>
			<point x="471" y="-278"/>
			<point x="389" y="-334"/>
			<point x="269" y="-329" type="curve" smooth="yes"/>
			<point x="114" y="-323"/>
			<point x="35" y="-265"/>
			<point x="32" y="-156" type="curve" smooth="yes"/>
			<point x="29" y="-94"/>
			<point x="62" y="-33"/>
			<point x="123" y="-33" type="curve" smooth="yes"/>
			<point x="141" y="-33"/>
			<point x="156" y="-40"/>
			<point x="168" y="-53" type="curve" smooth="yes"/>
			<point x="183" y="-72"/>
			<point x="191" y="-110"/>
			<point x="191" y="-165" type="curve"/>
			<point x="223" y="-166"/>
			<point x="253" y="-166"/>
			<point x="282" y="-165" type="curve"/>
			<point x="275" y="-122"/>
			<point x="282" y="-91"/>
			<point x="304" y="-70" type="curve" smooth="yes"/>
			<point x="326" y="-49"/>
			<point x="354" y="-48"/>
			<point x="385" y="-66" type="curve" smooth="yes"/>
			<point x="408" y="-79"/>
			<point x="418" y="-102"/>
			<point x="415" y="-136" type="curve" smooth="yes"/>
			<point x="412" y="-170"/>
			<point x="405" y="-191"/>
			<point x="395" y="-199" type="curve"/>
			<point x="148" y="-199" type="line"/>
			<point x="158" y="-143"/>
			<point x="154" y="-106"/>
			<point x="136" y="-88" type="curve" smooth="yes"/>
			<point x="118" y="-70"/>
			<point x="103" y="-69"/>
			<point x="89" y="-86" type="curve" smooth="yes"/>
			<point x="75" y="-103"/>
			<point x="70" y="-132"/>
			<point x="73" y="-174" type="curve" smooth="yes"/>
			<point x="78" y="-245"/>
			<point x="143" y="-283"/>
			<point x="267" y="-290" type="curve" smooth="yes"/>
			<point x="358" y="-295"/>
			<point x="427" y="-253"/>
			<point x="466" y="-161" type="curve" smooth="yes"/>
			<point x="489" y="-106"/>
			<point x="515" y="-68"/>
		</contour>
		<contour>
			<point x="235" y="221" type="curve" smooth="yes"/>
			<point x="197" y="221"/>
			<point x="173" y="186"/>
			<point x="173" y="146" type="curve" smooth="yes"/>
			<point x="173" y="106"/>
			<point x="197" y="61"/>
			<point x="235" y="61" type="curve" smooth="yes"/>
			<point x="273" y="61"/>
			<point x="296" y="106"/>
			<point x="296" y="146" type="curve" smooth="yes"/>
			<point x="296" y="186"/>
			<point x="273" y="221"/>
		</contour>
	</outline>
</glyph>
<glyph name="zero-tamil" format="2">
	<unicode hex="0BE6"/>
	<advance width="585"/>
	<outline>
		<contour>
			<point x="123" y="544" type="curve" smooth="yes"/>
			<point x="165" y="607"/>
			<point x="222" y="639"/>
			<point x="293" y="639" type="curve" smooth="yes"/>
			<point x="364" y="639"/>
			<point x="420" y="607"/>
			<point x="462" y="544" type="curve" smooth="yes"/>
			<point x="504" y="481"/>
			<point x="525" y="408"/>
			<point x="525" y="322" type="curve" smooth="yes"/>
			<point x="525" y="236"/>
			<point x="504" y="160"/>
			<point x="463" y="96" type="curve" smooth="yes"/>
			<point x="422" y="32"/>
			<point x="365" y="0"/>
			<point x="293" y="0" type="curve" smooth="yes"/>
			<point x="221" y="0"/>
			<point x="164" y="32"/>
			<point x="122" y="96" type="curve" smooth="yes"/>
			<point x="80" y="160"/>
			<point x="60" y="236"/>
			<point x="60" y="322" type="curve" smooth="yes"/>
			<point x="60" y="408"/>
			<point x="81" y="481"/>
		</contour>
		<contour>
			<point x="168" y="142" type="curve" smooth="yes"/>
			<point x="196" y="91"/>
			<point x="237" y="65"/>
			<point x="292" y="65" type="curve" smooth="yes"/>
			<point x="347" y="65"/>
			<point x="389" y="91"/>
			<point x="418" y="142" type="curve" smooth="yes"/>
			<point x="447" y="193"/>
			<point x="461" y="254"/>
			<point x="461" y="322" type="curve" smooth="yes"/>
			<point x="461" y="390"/>
			<point x="447" y="449"/>
			<point x="418" y="499" type="curve" smooth="yes"/>
			<point x="389" y="549"/>
			<point x="347" y="574"/>
			<point x="293" y="574" type="curve" smooth="yes"/>
			<point x="239" y="574"/>
			<point x="197" y="549"/>
			<point x="168" y="499" type="curve" smooth="yes"/>
			<point x="139" y="449"/>
			<point x="125" y="390"/>
			<point x="125" y="322" type="curve" smooth="yes"/>
			<point x="125" y="254"/>
			<point x="140" y="193"/>
		</contour>
	</outline>
</glyph>
<glyph name="one-tamil" format="2">
	<unicode hex="0BE7"/>
	<advance width="700"/>
	<outline>
		<contour>
			<point x="369" y="270" type="line"/>
			<point x="369" y="443" type="line"/>
			<point x="246" y="443" type="line"/>
			<point x="246" y="270" type="line"/>
		</contour>
		<contour>
			<point x="123" y="160" type="curve" smooth="yes"/>
			<point x="123" y="94"/>
			<point x="186" y="37"/>
			<point x="252" y="37" type="curve" smooth="yes"/>
			<point x="313" y="37"/>
			<point x="369" y="77"/>
			<point x="369" y="135" type="curve" smooth="yes"/>
			<point x="369" y="221" type="line"/>
			<point x="184" y="221" type="line" smooth="yes"/>
			<point x="150" y="221"/>
			<point x="123" y="194"/>
		</contour>
		<contour>
			<point x="639" y="133" type="curve" smooth="yes"/>
			<point x="639" y="60"/>
			<point x="587" y="-12"/>
			<point x="516" y="-12" type="curve" smooth="yes"/>
			<point x="498" y="-12"/>
			<point x="478" y="-8"/>
			<point x="455" y="0" type="curve"/>
			<point x="467" y="49" type="line"/>
			<point x="503" y="30"/>
			<point x="539" y="32"/>
			<point x="560" y="66" type="curve" smooth="yes"/>
			<point x="572" y="85"/>
			<point x="578" y="108"/>
			<point x="578" y="133" type="curve" smooth="yes"/>
			<point x="578" y="179"/>
			<point x="548" y="221"/>
			<point x="504" y="221" type="curve" smooth="yes"/>
			<point x="430" y="221" type="line"/>
			<point x="430" y="135" type="line" smooth="yes"/>
			<point x="430" y="47"/>
			<point x="345" y="-12"/>
			<point x="253" y="-12" type="curve" smooth="yes"/>
			<point x="202" y="-12"/>
			<point x="158" y="4"/>
			<point x="119" y="38" type="curve" smooth="yes"/>
			<point x="80" y="72"/>
			<point x="61" y="113"/>
			<point x="61" y="160" type="curve" smooth="yes"/>
			<point x="61" y="222"/>
			<point x="121" y="270"/>
			<point x="184" y="270" type="curve"/>
			<point x="184" y="492" type="line"/>
			<point x="565" y="492" type="line"/>
			<point x="565" y="443" type="line"/>
			<point x="430" y="443" type="line"/>
			<point x="430" y="270" type="line"/>
			<point x="504" y="270" type="line" smooth="yes"/>
			<point x="581" y="270"/>
			<point x="639" y="210"/>
		</contour>
	</outline>
</glyph>
<glyph name="two-tamil" format="2">
	<unicode hex="0BE8"/>
	<advance width="725"/>
	<outline>
		<contour>
			<point x="111" y="346" type="curve" smooth="yes"/>
			<point x="111" y="310"/>
			<point x="136" y="283"/>
			<point x="172" y="283" type="curve" smooth="yes"/>
			<point x="208" y="283"/>
			<point x="234" y="309"/>
			<point x="234" y="346" type="curve" smooth="yes"/>
			<point x="234" y="382"/>
			<point x="208" y="418"/>
			<point x="172" y="418" type="curve" smooth="yes"/>
			<point x="136" y="418"/>
			<point x="111" y="382"/>
		</contour>
		<contour>
			<point x="172" y="234" type="curve" smooth="yes"/>
			<point x="107" y="234"/>
			<point x="61" y="294"/>
			<point x="61" y="362" type="curve" smooth="yes"/>
			<point x="61" y="399"/>
			<point x="81" y="431"/>
			<point x="122" y="460" type="curve" smooth="yes"/>
			<point x="163" y="489"/>
			<point x="215" y="504"/>
			<point x="278" y="504" type="curve" smooth="yes"/>
			<point x="341" y="504"/>
			<point x="396" y="485"/>
			<point x="444" y="446" type="curve" smooth="yes"/>
			<point x="492" y="407"/>
			<point x="516" y="362"/>
			<point x="516" y="310" type="curve" smooth="yes"/>
			<point x="516" y="202"/>
			<point x="416" y="123"/>
			<point x="307" y="123" type="curve" smooth="yes"/>
			<point x="172" y="123" type="line" smooth="yes"/>
			<point x="148" y="123"/>
			<point x="123" y="109"/>
			<point x="123" y="86" type="curve" smooth="yes"/>
			<point x="123" y="63"/>
			<point x="148" y="49"/>
			<point x="172" y="49" type="curve" smooth="yes"/>
			<point x="664" y="49" type="line"/>
			<point x="664" y="0" type="line"/>
			<point x="172" y="0" type="line" smooth="yes"/>
			<point x="118" y="0"/>
			<point x="61" y="34"/>
			<point x="61" y="86" type="curve" smooth="yes"/>
			<point x="61" y="138"/>
			<point x="118" y="172"/>
			<point x="172" y="172" type="curve" smooth="yes"/>
			<point x="307" y="172" type="line" smooth="yes"/>
			<point x="386" y="172"/>
			<point x="455" y="231"/>
			<point x="455" y="310" type="curve" smooth="yes"/>
			<point x="455" y="349"/>
			<point x="437" y="383"/>
			<point x="401" y="412" type="curve" smooth="yes"/>
			<point x="365" y="441"/>
			<point x="321" y="455"/>
			<point x="270" y="455" type="curve" smooth="yes"/>
			<point x="197" y="455" type="line"/>
			<point x="243" y="438"/>
			<point x="283" y="399"/>
			<point x="283" y="340" type="curve" smooth="yes"/>
			<point x="283" y="284"/>
			<point x="229" y="234"/>
		</contour>
	</outline>
</glyph>
<glyph name="three-tamil" format="2">
	<unicode hex="0BE9"/>
	<advance width="780"/>
	<outline>
		<contour>
			<point x="516" y="155" type="curve" smooth="yes"/>
			<point x="516" y="210"/>
			<point x="472" y="246"/>
			<point x="417" y="246" type="curve" smooth="yes"/>
			<point x="389" y="246"/>
			<point x="360" y="230"/>
			<point x="332" y="197" type="curve"/>
			<point x="332" y="98" type="line"/>
			<point x="270" y="98" type="line"/>
			<point x="270" y="443" type="line"/>
			<point x="123" y="443" type="line"/>
			<point x="123" y="0" type="line"/>
			<point x="61" y="0" type="line"/>
			<point x="61" y="492" type="line"/>
			<point x="504" y="492" type="line"/>
			<point x="504" y="443" type="line"/>
			<point x="332" y="443" type="line"/>
			<point x="332" y="264" type="line"/>
			<point x="357" y="289"/>
			<point x="388" y="301"/>
			<point x="426" y="301" type="curve" smooth="yes"/>
			<point x="464" y="301"/>
			<point x="500" y="287"/>
			<point x="531" y="260" type="curve" smooth="yes"/>
			<point x="562" y="233"/>
			<point x="578" y="197"/>
			<point x="578" y="155" type="curve" smooth="yes"/>
			<point x="578" y="113"/>
			<point x="562" y="77"/>
			<point x="529" y="49" type="curve"/>
			<point x="719" y="49" type="line"/>
			<point x="719" y="0" type="line"/>
			<point x="270" y="0" type="line"/>
			<point x="270" y="49" type="line"/>
			<point x="406" y="49" type="line" smooth="yes"/>
			<point x="463" y="49"/>
			<point x="516" y="99"/>
		</contour>
	</outline>
</glyph>
<glyph name="four-tamil" format="2">
	<unicode hex="0BEA"/>
	<advance width="663"/>
	<outline>
		<contour>
			<point x="369" y="270" type="line"/>
			<point x="369" y="443" type="line"/>
			<point x="246" y="443" type="line"/>
			<point x="246" y="270" type="line"/>
		</contour>
		<contour>
			<point x="123" y="160" type="curve" smooth="yes"/>
			<point x="123" y="94"/>
			<point x="186" y="37"/>
			<point x="252" y="37" type="curve" smooth="yes"/>
			<point x="313" y="37"/>
			<point x="369" y="77"/>
			<point x="369" y="135" type="curve" smooth="yes"/>
			<point x="369" y="221" type="line"/>
			<point x="184" y="221" type="line" smooth="yes"/>
			<point x="150" y="221"/>
			<point x="123" y="194"/>
		</contour>
		<contour>
			<point x="61" y="160" type="curve" smooth="yes"/>
			<point x="61" y="222"/>
			<point x="121" y="270"/>
			<point x="184" y="270" type="curve"/>
			<point x="184" y="492" type="line"/>
			<point x="578" y="492" type="line"/>
			<point x="578" y="443" type="line"/>
			<point x="430" y="443" type="line"/>
			<point x="430" y="270" type="line"/>
			<point x="541" y="270" type="line"/>
			<point x="541" y="332" type="line"/>
			<point x="602" y="332" type="line"/>
			<point x="602" y="221" type="line"/>
			<point x="430" y="221" type="line"/>
			<point x="430" y="135" type="line" smooth="yes"/>
			<point x="430" y="47"/>
			<point x="345" y="-12"/>
			<point x="253" y="-12" type="curve" smooth="yes"/>
			<point x="202" y="-12"/>
			<point x="158" y="4"/>
			<point x="119" y="38" type="curve" smooth="yes"/>
			<point x="80" y="72"/>
			<point x="61" y="113"/>
		</contour>
	</outline>
</glyph>
<glyph name="five-tamil" format="2">
	<unicode hex="0BEB"/>
	<advance width="897"/>
	<outline>
		<contour>
			<point x="774" y="123" type="curve" smooth="yes"/>
			<point x="774" y="191"/>
			<point x="726" y="258"/>
			<point x="662" y="258" type="curve" smooth="yes"/>
			<point x="633" y="258"/>
			<point x="605" y="242"/>
			<point x="578" y="209" type="curve"/>
			<point x="578" y="0" type="line"/>
			<point x="516" y="0" type="line"/>
			<point x="516" y="443" type="line"/>
			<point x="369" y="443" type="line"/>
			<point x="369" y="0" type="line"/>
			<point x="307" y="0" type="line"/>
			<point x="307" y="492" type="line"/>
			<point x="676" y="492" type="line"/>
			<point x="676" y="443" type="line"/>
			<point x="578" y="443" type="line"/>
			<point x="578" y="270" type="line"/>
			<point x="592" y="293"/>
			<point x="626" y="307"/>
			<point x="664" y="307" type="curve" smooth="yes"/>
			<point x="760" y="307"/>
			<point x="836" y="221"/>
			<point x="836" y="123" type="curve" smooth="yes"/>
			<point x="836" y="14"/>
			<point x="798" y="-78"/>
			<point x="721" y="-155" type="curve" smooth="yes"/>
			<point x="644" y="-232"/>
			<point x="553" y="-270"/>
			<point x="446" y="-270" type="curve" smooth="yes"/>
			<point x="339" y="-270"/>
			<point x="249" y="-223"/>
			<point x="174" y="-128" type="curve" smooth="yes"/>
			<point x="99" y="-33"/>
			<point x="61" y="83"/>
			<point x="61" y="222" type="curve" smooth="yes"/>
			<point x="61" y="361"/>
			<point x="102" y="482"/>
			<point x="184" y="584" type="curve" smooth="yes"/>
			<point x="266" y="686"/>
			<point x="364" y="738"/>
			<point x="479" y="738" type="curve" smooth="yes"/>
			<point x="574" y="738"/>
			<point x="656" y="706"/>
			<point x="723" y="644" type="curve" smooth="yes"/>
			<point x="790" y="582"/>
			<point x="824" y="507"/>
			<point x="824" y="418" type="curve"/>
			<point x="762" y="418" type="line"/>
			<point x="762" y="493"/>
			<point x="734" y="556"/>
			<point x="679" y="609" type="curve" smooth="yes"/>
			<point x="624" y="662"/>
			<point x="557" y="688"/>
			<point x="479" y="688" type="curve" smooth="yes"/>
			<point x="379" y="688"/>
			<point x="294" y="642"/>
			<point x="223" y="550" type="curve" smooth="yes"/>
			<point x="152" y="458"/>
			<point x="117" y="348"/>
			<point x="117" y="222" type="curve" smooth="yes"/>
			<point x="117" y="96"/>
			<point x="149" y="-9"/>
			<point x="212" y="-94" type="curve" smooth="yes"/>
			<point x="275" y="-179"/>
			<point x="353" y="-221"/>
			<point x="444" y="-221" type="curve" smooth="yes"/>
			<point x="535" y="-221"/>
			<point x="614" y="-187"/>
			<point x="678" y="-120" type="curve" smooth="yes"/>
			<point x="742" y="-53"/>
			<point x="774" y="28"/>
		</contour>
	</outline>
</glyph>
<glyph name="seven-tamil" format="2">
	<unicode hex="0BED"/>
	<advance width="768"/>
	<outline>
		<contour>
			<point x="221" y="132" type="curve" smooth="yes"/>
			<point x="221" y="86"/>
			<point x="250" y="37"/>
			<point x="295" y="37" type="curve" smooth="yes"/>
			<point x="339" y="37"/>
			<point x="369" y="87"/>
			<point x="369" y="133" type="curve" smooth="yes"/>
			<point x="369" y="179"/>
			<point x="339" y="221"/>
			<point x="295" y="221" type="curve" smooth="yes"/>
			<point x="250" y="221"/>
			<point x="221" y="179"/>
		</contour>
		<contour>
			<point x="430" y="133" type="curve" smooth="yes"/>
			<point x="430" y="51"/>
			<point x="354" y="-12"/>
			<point x="270" y="-12" type="curve" smooth="yes"/>
			<point x="213" y="-12"/>
			<point x="163" y="11"/>
			<point x="122" y="56" type="curve" smooth="yes"/>
			<point x="81" y="101"/>
			<point x="61" y="158"/>
			<point x="61" y="228" type="curve" smooth="yes"/>
			<point x="61" y="298"/>
			<point x="86" y="359"/>
			<point x="137" y="412" type="curve" smooth="yes"/>
			<point x="188" y="465"/>
			<point x="249" y="492"/>
			<point x="320" y="492" type="curve" smooth="yes"/>
			<point x="707" y="492" type="line"/>
			<point x="707" y="443" type="line"/>
			<point x="627" y="443" type="line"/>
			<point x="627" y="0" type="line"/>
			<point x="565" y="0" type="line"/>
			<point x="565" y="443" type="line"/>
			<point x="320" y="443" type="line" smooth="yes"/>
			<point x="263" y="443"/>
			<point x="213" y="421"/>
			<point x="172" y="378" type="curve" smooth="yes"/>
			<point x="131" y="335"/>
			<point x="111" y="282"/>
			<point x="111" y="221" type="curve" smooth="yes"/>
			<point x="111" y="141"/>
			<point x="155" y="80"/>
			<point x="209" y="49" type="curve"/>
			<point x="184" y="78"/>
			<point x="172" y="109"/>
			<point x="172" y="142" type="curve" smooth="yes"/>
			<point x="172" y="210"/>
			<point x="229" y="270"/>
			<point x="298" y="270" type="curve" smooth="yes"/>
			<point x="372" y="270"/>
			<point x="430" y="208"/>
		</contour>
	</outline>
</glyph>
<glyph name="eight-tamil" format="2">
	<unicode hex="0BEE"/>
	<advance width="1020"/>
	<outline>
		<contour>
			<point x="338" y="186" type="line"/>
			<point x="294" y="202"/>
			<point x="264" y="253"/>
			<point x="264" y="313" type="curve" smooth="yes"/>
			<point x="264" y="366"/>
			<point x="289" y="411"/>
			<point x="338" y="448" type="curve" smooth="yes"/>
			<point x="387" y="485"/>
			<point x="448" y="504"/>
			<point x="522" y="504" type="curve" smooth="yes"/>
			<point x="596" y="504"/>
			<point x="661" y="480"/>
			<point x="716" y="432" type="curve" smooth="yes"/>
			<point x="771" y="384"/>
			<point x="799" y="326"/>
			<point x="799" y="258" type="curve" smooth="yes"/>
			<point x="799" y="233"/>
			<point x="795" y="208"/>
			<point x="787" y="184" type="curve"/>
			<point x="897" y="184" type="line"/>
			<point x="897" y="492" type="line"/>
			<point x="959" y="492" type="line"/>
			<point x="959" y="-61" type="line"/>
			<point x="897" y="-61" type="line"/>
			<point x="897" y="135" type="line"/>
			<point x="774" y="135" type="line"/>
			<point x="727" y="9"/>
			<point x="593" y="-86"/>
			<point x="424" y="-86" type="curve" smooth="yes"/>
			<point x="309" y="-86"/>
			<point x="213" y="-53"/>
			<point x="135" y="12" type="curve" smooth="yes"/>
			<point x="86" y="53"/>
			<point x="61" y="90"/>
			<point x="61" y="123" type="curve" smooth="yes"/>
			<point x="61" y="160"/>
			<point x="97" y="184"/>
			<point x="135" y="184" type="curve" smooth="yes"/>
		</contour>
		<contour>
			<point x="320" y="313" type="curve" smooth="yes"/>
			<point x="320" y="240"/>
			<point x="386" y="184"/>
			<point x="460" y="184" type="curve" smooth="yes"/>
			<point x="534" y="184"/>
			<point x="596" y="237"/>
			<point x="596" y="310" type="curve" smooth="yes"/>
			<point x="596" y="383"/>
			<point x="534" y="443"/>
			<point x="460" y="443" type="curve" smooth="yes"/>
			<point x="386" y="443"/>
			<point x="320" y="386"/>
		</contour>
		<contour>
			<point x="148" y="135" type="line" smooth="yes"/>
			<point x="136" y="135"/>
			<point x="123" y="123"/>
			<point x="123" y="112" type="curve" smooth="yes"/>
			<point x="123" y="102"/>
			<point x="131" y="89"/>
			<point x="148" y="74" type="curve" smooth="yes"/>
			<point x="210" y="12"/>
			<point x="303" y="-37"/>
			<point x="418" y="-37" type="curve" smooth="yes"/>
			<point x="556" y="-37"/>
			<point x="676" y="34"/>
			<point x="713" y="135" type="curve"/>
		</contour>
		<contour>
			<point x="559" y="467" type="curve"/>
			<point x="604" y="435"/>
			<point x="652" y="379"/>
			<point x="652" y="310" type="curve" smooth="yes"/>
			<point x="652" y="253"/>
			<point x="631" y="212"/>
			<point x="590" y="184" type="curve"/>
			<point x="725" y="184" type="line"/>
			<point x="734" y="209"/>
			<point x="738" y="233"/>
			<point x="738" y="258" type="curve" smooth="yes"/>
			<point x="738" y="367"/>
			<point x="655" y="451"/>
		</contour>
	</outline>
</glyph>
<glyph name="nine-tamil" format="2">
	<unicode hex="0BEF"/>
	<advance width="946"/>
	<outline>
		<contour>
			<point x="369" y="270" type="line"/>
			<point x="369" y="443" type="line"/>
			<point x="246" y="443" type="line"/>
			<point x="246" y="270" type="line"/>
		</contour>
		<contour>
			<point x="123" y="160" type="curve" smooth="yes"/>
			<point x="123" y="98"/>
			<point x="189" y="49"/>
			<point x="252" y="49" type="curve" smooth="yes"/>
			<point x="310" y="49"/>
			<point x="369" y="81"/>
			<point x="369" y="135" type="curve" smooth="yes"/>
			<point x="369" y="221" type="line"/>
			<point x="184" y="221" type="line" smooth="yes"/>
			<point x="150" y="221"/>
			<point x="123" y="194"/>
		</contour>
		<contour>
			<point x="602" y="37" type="curve" smooth="yes"/>
			<point x="635" y="37"/>
			<point x="652" y="85"/>
			<point x="652" y="121" type="curve" smooth="yes"/>
			<point x="652" y="171"/>
			<point x="617" y="207"/>
			<point x="578" y="221" type="curve"/>
			<point x="561" y="192"/>
			<point x="553" y="162"/>
			<point x="553" y="132" type="curve" smooth="yes"/>
			<point x="553" y="88"/>
			<point x="565" y="37"/>
		</contour>
		<contour>
			<point x="602" y="-12" type="curve" smooth="yes"/>
			<point x="540" y="-12"/>
			<point x="504" y="57"/>
			<point x="504" y="123" type="curve" smooth="yes"/>
			<point x="504" y="161"/>
			<point x="512" y="194"/>
			<point x="529" y="221" type="curve"/>
			<point x="430" y="221" type="line"/>
			<point x="430" y="135" type="line" smooth="yes"/>
			<point x="430" y="47"/>
			<point x="345" y="-12"/>
			<point x="253" y="-12" type="curve" smooth="yes"/>
			<point x="202" y="-12"/>
			<point x="158" y="4"/>
			<point x="119" y="38" type="curve" smooth="yes"/>
			<point x="80" y="72"/>
			<point x="61" y="113"/>
			<point x="61" y="160" type="curve" smooth="yes"/>
			<point x="61" y="222"/>
			<point x="121" y="270"/>
			<point x="184" y="270" type="curve"/>
			<point x="184" y="492" type="line"/>
			<point x="547" y="492" type="line"/>
			<point x="547" y="443" type="line"/>
			<point x="430" y="443" type="line"/>
			<point x="430" y="270" type="line"/>
			<point x="553" y="270" type="line"/>
			<point x="583" y="311"/>
			<point x="638" y="344"/>
			<point x="707" y="344" type="curve" smooth="yes"/>
			<point x="803" y="344"/>
			<point x="885" y="267"/>
			<point x="885" y="172" type="curve" smooth="yes"/>
			<point x="885" y="108"/>
			<point x="865" y="50"/>
			<point x="824" y="0" type="curve"/>
			<point x="756" y="0" type="line"/>
			<point x="801" y="54"/>
			<point x="824" y="111"/>
			<point x="824" y="172" type="curve" smooth="yes"/>
			<point x="824" y="237"/>
			<point x="771" y="295"/>
			<point x="707" y="295" type="curve" smooth="yes"/>
			<point x="663" y="295"/>
			<point x="630" y="283"/>
			<point x="608" y="258" type="curve"/>
			<point x="661" y="239"/>
			<point x="701" y="188"/>
			<point x="701" y="117" type="curve" smooth="yes"/>
			<point x="701" y="56"/>
			<point x="661" y="-12"/>
		</contour>
	</outline>
</glyph>
<glyph name="ten-tamil" format="2">
	<unicode hex="0BF0"/>
	<advance width="661"/>
	<outline>
		<contour>
			<point x="434" y="-12" type="curve" smooth="yes"/>
			<point x="378" y="-12"/>
			<point x="330" y="12"/>
			<point x="311" y="49" type="curve"/>
			<point x="277" y="8"/>
			<point x="241" y="-12"/>
			<point x="202" y="-12" type="curve" smooth="yes"/>
			<point x="125" y="-12"/>
			<point x="65" y="47"/>
			<point x="65" y="123" type="curve" smooth="yes"/>
			<point x="65" y="369" type="line"/>
			<point x="127" y="369" type="line"/>
			<point x="127" y="123" type="line" smooth="yes"/>
			<point x="127" y="78"/>
			<point x="157" y="37"/>
			<point x="200" y="37" type="curve" smooth="yes"/>
			<point x="243" y="37"/>
			<point x="274" y="79"/>
			<point x="274" y="123" type="curve" smooth="yes"/>
			<point x="274" y="369" type="line"/>
			<point x="336" y="369" type="line"/>
			<point x="336" y="123" type="line"/>
			<point x="351" y="82"/>
			<point x="384" y="37"/>
			<point x="434" y="37" type="curve" smooth="yes"/>
			<point x="505" y="37"/>
			<point x="545" y="132"/>
			<point x="545" y="209" type="curve" smooth="yes"/>
			<point x="545" y="274"/>
			<point x="526" y="328"/>
			<point x="487" y="374" type="curve" smooth="yes"/>
			<point x="448" y="420"/>
			<point x="402" y="443"/>
			<point x="348" y="443" type="curve" smooth="yes"/>
			<point x="188" y="443" type="line"/>
			<point x="188" y="492" type="line"/>
			<point x="348" y="492" type="line" smooth="yes"/>
			<point x="419" y="492"/>
			<point x="480" y="464"/>
			<point x="530" y="409" type="curve" smooth="yes"/>
			<point x="580" y="354"/>
			<point x="606" y="287"/>
			<point x="606" y="209" type="curve" smooth="yes"/>
			<point x="606" y="148"/>
			<point x="590" y="95"/>
			<point x="556" y="52" type="curve" smooth="yes"/>
			<point x="522" y="9"/>
			<point x="481" y="-12"/>
		</contour>
	</outline>
</glyph>
<glyph name="onehundred-tamil" format="2">
	<unicode hex="0BF1"/>
	<advance width="684"/>
	<outline>
		<contour>
			<point x="89" y="369" type="line" smooth="yes"/>
			<point x="89" y="445"/>
			<point x="149" y="504"/>
			<point x="225" y="504" type="curve" smooth="yes"/>
			<point x="264" y="504"/>
			<point x="300" y="484"/>
			<point x="334" y="443" type="curve"/>
			<point x="353" y="480"/>
			<point x="401" y="504"/>
			<point x="457" y="504" type="curve" smooth="yes"/>
			<point x="679" y="504" type="line"/>
			<point x="679" y="449" type="line"/>
			<point x="580" y="449" type="line"/>
			<point x="580" y="0" type="line"/>
			<point x="519" y="0" type="line"/>
			<point x="519" y="449" type="line"/>
			<point x="457" y="449" type="line" smooth="yes"/>
			<point x="409" y="449"/>
			<point x="373" y="407"/>
			<point x="359" y="369" type="curve"/>
			<point x="359" y="0" type="line"/>
			<point x="297" y="0" type="line"/>
			<point x="297" y="369" type="line" smooth="yes"/>
			<point x="297" y="414"/>
			<point x="267" y="455"/>
			<point x="224" y="455" type="curve" smooth="yes"/>
			<point x="181" y="455"/>
			<point x="150" y="413"/>
			<point x="150" y="369" type="curve" smooth="yes"/>
			<point x="150" y="0" type="line"/>
			<point x="89" y="0" type="line"/>
		</contour>
	</outline>
</glyph>
<glyph name="onethousand-tamil" format="2">
	<unicode hex="0BF2"/>
	<advance width="759"/>
	<outline>
		<contour>
			<point x="219" y="270" type="line"/>
			<point x="342" y="270" type="line"/>
			<point x="342" y="443" type="line"/>
			<point x="219" y="443" type="line"/>
		</contour>
		<contour>
			<point x="96" y="160" type="curve" smooth="yes"/>
			<point x="96" y="94"/>
			<point x="160" y="37"/>
			<point x="226" y="37" type="curve" smooth="yes"/>
			<point x="287" y="37"/>
			<point x="342" y="77"/>
			<point x="342" y="135" type="curve" smooth="yes"/>
			<point x="342" y="221" type="line"/>
			<point x="157" y="221" type="line" smooth="yes"/>
			<point x="123" y="221"/>
			<point x="96" y="194"/>
		</contour>
		<contour>
			<point x="34" y="160" type="curve" smooth="yes"/>
			<point x="34" y="222"/>
			<point x="94" y="270"/>
			<point x="157" y="270" type="curve"/>
			<point x="157" y="492" type="line"/>
			<point x="575" y="492" type="line"/>
			<point x="575" y="443" type="line"/>
			<point x="403" y="443" type="line"/>
			<point x="403" y="270" type="line"/>
			<point x="649" y="270" type="line"/>
			<point x="649" y="221" type="line"/>
			<point x="514" y="221" type="line"/>
			<point x="514" y="135" type="line"/>
			<point x="536" y="160"/>
			<point x="565" y="172"/>
			<point x="602" y="172" type="curve" smooth="yes"/>
			<point x="682" y="172"/>
			<point x="735" y="93"/>
			<point x="735" y="10" type="curve" smooth="yes"/>
			<point x="735" y="-36"/>
			<point x="712" y="-76"/>
			<point x="667" y="-110" type="curve" smooth="yes"/>
			<point x="622" y="-144"/>
			<point x="567" y="-160"/>
			<point x="502" y="-160" type="curve" smooth="yes"/>
			<point x="157" y="-160" type="line" smooth="yes"/>
			<point x="98" y="-160"/>
			<point x="59" y="-221"/>
			<point x="59" y="-283" type="curve"/>
			<point x="10" y="-283" type="line"/>
			<point x="10" y="-195"/>
			<point x="71" y="-111"/>
			<point x="157" y="-111" type="curve" smooth="yes"/>
			<point x="502" y="-111" type="line" smooth="yes"/>
			<point x="549" y="-111"/>
			<point x="590" y="-98"/>
			<point x="624" y="-74" type="curve" smooth="yes"/>
			<point x="658" y="-50"/>
			<point x="674" y="-22"/>
			<point x="674" y="10" type="curve" smooth="yes"/>
			<point x="674" y="62"/>
			<point x="648" y="123"/>
			<point x="600" y="123" type="curve" smooth="yes"/>
			<point x="556" y="123"/>
			<point x="524" y="91"/>
			<point x="514" y="55" type="curve"/>
			<point x="514" y="0" type="line"/>
			<point x="452" y="0" type="line"/>
			<point x="452" y="221" type="line"/>
			<point x="403" y="221" type="line"/>
			<point x="403" y="135" type="line" smooth="yes"/>
			<point x="403" y="47"/>
			<point x="318" y="-12"/>
			<point x="226" y="-12" type="curve" smooth="yes"/>
			<point x="175" y="-12"/>
			<point x="131" y="4"/>
			<point x="92" y="38" type="curve" smooth="yes"/>
			<point x="53" y="72"/>
			<point x="34" y="113"/>
		</contour>
	</outline>
</glyph>
<glyph name="day-tamil" format="2">
	<unicode hex="0BF3"/>
	<advance width="910"/>
	<outline>
		<contour>
			<point x="200" y="135" type="curve" smooth="yes"/>
			<point x="200" y="82"/>
			<point x="237" y="37"/>
			<point x="289" y="37" type="curve" smooth="yes"/>
			<point x="340" y="37"/>
			<point x="385" y="84"/>
			<point x="385" y="136" type="curve" smooth="yes"/>
			<point x="385" y="188"/>
			<point x="340" y="234"/>
			<point x="288" y="234" type="curve" smooth="yes"/>
			<point x="236" y="234"/>
			<point x="200" y="188"/>
		</contour>
		<contour>
			<point x="434" y="136" type="curve" smooth="yes"/>
			<point x="434" y="54"/>
			<point x="368" y="-12"/>
			<point x="286" y="-12" type="curve" smooth="yes"/>
			<point x="221" y="-12"/>
			<point x="166" y="12"/>
			<point x="121" y="60" type="curve" smooth="yes"/>
			<point x="76" y="108"/>
			<point x="53" y="168"/>
			<point x="53" y="239" type="curve" smooth="yes"/>
			<point x="53" y="310"/>
			<point x="79" y="372"/>
			<point x="132" y="425" type="curve" smooth="yes"/>
			<point x="185" y="478"/>
			<point x="250" y="504"/>
			<point x="326" y="504" type="curve" smooth="yes"/>
			<point x="402" y="504"/>
			<point x="468" y="477"/>
			<point x="523" y="424" type="curve" smooth="yes"/>
			<point x="578" y="371"/>
			<point x="606" y="310"/>
			<point x="606" y="240" type="curve" smooth="yes"/>
			<point x="606" y="170"/>
			<point x="590" y="106"/>
			<point x="557" y="49" type="curve"/>
			<point x="901" y="49" type="line"/>
			<point x="901" y="0" type="line"/>
			<point x="483" y="0" type="line"/>
			<point x="483" y="37" type="line"/>
			<point x="524" y="87"/>
			<point x="545" y="152"/>
			<point x="545" y="234" type="curve" smooth="yes"/>
			<point x="545" y="295"/>
			<point x="523" y="347"/>
			<point x="480" y="390" type="curve" smooth="yes"/>
			<point x="437" y="433"/>
			<point x="386" y="455"/>
			<point x="324" y="455" type="curve" smooth="yes"/>
			<point x="262" y="455"/>
			<point x="209" y="433"/>
			<point x="166" y="390" type="curve" smooth="yes"/>
			<point x="123" y="347"/>
			<point x="102" y="295"/>
			<point x="102" y="234" type="curve" smooth="yes"/>
			<point x="102" y="176"/>
			<point x="122" y="123"/>
			<point x="163" y="74" type="curve"/>
			<point x="155" y="97"/>
			<point x="151" y="117"/>
			<point x="151" y="135" type="curve" smooth="yes"/>
			<point x="151" y="214"/>
			<point x="209" y="283"/>
			<point x="288" y="283" type="curve" smooth="yes"/>
			<point x="367" y="283"/>
			<point x="434" y="216"/>
		</contour>
	</outline>
</glyph>
<glyph name="month-tamil" format="2">
	<unicode hex="0BF4"/>
	<advance width="1062"/>
	<outline>
		<contour>
			<point x="522" y="455" type="curve" smooth="yes"/>
			<point x="479" y="455"/>
			<point x="449" y="413"/>
			<point x="449" y="369" type="curve" smooth="yes"/>
			<point x="449" y="49" type="line"/>
			<point x="621" y="49" type="line" smooth="yes"/>
			<point x="677" y="49"/>
			<point x="707" y="123"/>
			<point x="707" y="184" type="curve" smooth="yes"/>
			<point x="707" y="259"/>
			<point x="689" y="323"/>
			<point x="653" y="376" type="curve" smooth="yes"/>
			<point x="617" y="429"/>
			<point x="573" y="455"/>
		</contour>
		<contour>
			<point x="944" y="612" type="curve" smooth="yes"/>
			<point x="902" y="612"/>
			<point x="872" y="647"/>
			<point x="872" y="690" type="curve" smooth="yes"/>
			<point x="872" y="713"/>
			<point x="884" y="737"/>
			<point x="908" y="762" type="curve"/>
			<point x="882" y="793"/>
			<point x="852" y="809"/>
			<point x="816" y="809" type="curve" smooth="yes"/>
			<point x="780" y="809"/>
			<point x="751" y="801"/>
			<point x="728" y="784" type="curve"/>
			<point x="761" y="762"/>
			<point x="797" y="724"/>
			<point x="797" y="676" type="curve" smooth="yes"/>
			<point x="797" y="616"/>
			<point x="737" y="565"/>
			<point x="676" y="565" type="curve" smooth="yes"/>
			<point x="619" y="565"/>
			<point x="572" y="606"/>
			<point x="572" y="660" type="curve" smooth="yes"/>
			<point x="572" y="713"/>
			<point x="598" y="754"/>
			<point x="633" y="774" type="curve"/>
			<point x="608" y="774" type="line" smooth="yes"/>
			<point x="572" y="774"/>
			<point x="542" y="762"/>
			<point x="516" y="738" type="curve" smooth="yes"/>
			<point x="490" y="714"/>
			<point x="477" y="688"/>
			<point x="477" y="658" type="curve" smooth="yes"/>
			<point x="477" y="628"/>
			<point x="489" y="599"/>
			<point x="512" y="570" type="curve" smooth="yes"/>
			<point x="535" y="541"/>
			<point x="565" y="510"/>
			<point x="608" y="492" type="curve" smooth="yes"/>
			<point x="707" y="451"/>
			<point x="768" y="325"/>
			<point x="768" y="184" type="curve" smooth="yes"/>
			<point x="768" y="92"/>
			<point x="709" y="0"/>
			<point x="621" y="0" type="curve" smooth="yes"/>
			<point x="92" y="0" type="line"/>
			<point x="92" y="492" type="line"/>
			<point x="154" y="492" type="line"/>
			<point x="154" y="49" type="line"/>
			<point x="387" y="49" type="line"/>
			<point x="387" y="369" type="line" smooth="yes"/>
			<point x="387" y="441"/>
			<point x="440" y="504"/>
			<point x="510" y="504" type="curve"/>
			<point x="464" y="531"/>
			<point x="424" y="584"/>
			<point x="424" y="652" type="curve" smooth="yes"/>
			<point x="424" y="748"/>
			<point x="510" y="824"/>
			<point x="608" y="824" type="curve" smooth="yes"/>
			<point x="639" y="824"/>
			<point x="663" y="821"/>
			<point x="681" y="815" type="curve"/>
			<point x="726" y="844"/>
			<point x="771" y="858"/>
			<point x="816" y="858" type="curve" smooth="yes"/>
			<point x="871" y="858"/>
			<point x="916" y="831"/>
			<point x="939" y="797" type="curve"/>
			<point x="965" y="831"/>
			<point x="1008" y="858"/>
			<point x="1062" y="858" type="curve"/>
			<point x="1062" y="809" type="line"/>
			<point x="1026" y="809"/>
			<point x="998" y="784"/>
			<point x="982" y="760" type="curve"/>
			<point x="1003" y="732"/>
			<point x="1014" y="708"/>
			<point x="1014" y="687" type="curve" smooth="yes"/>
			<point x="1014" y="647"/>
			<point x="984" y="612"/>
		</contour>
		<contour>
			<point x="621" y="668" type="curve" smooth="yes"/>
			<point x="621" y="635"/>
			<point x="641" y="615"/>
			<point x="675" y="615" type="curve" smooth="yes"/>
			<point x="709" y="615"/>
			<point x="744" y="642"/>
			<point x="744" y="676" type="curve" smooth="yes"/>
			<point x="744" y="715"/>
			<point x="717" y="743"/>
			<point x="688" y="756" type="curve"/>
			<point x="656" y="741"/>
			<point x="621" y="709"/>
		</contour>
		<contour>
			<point x="944" y="664" type="curve" smooth="yes"/>
			<point x="956" y="664"/>
			<point x="965" y="676"/>
			<point x="965" y="688" type="curve" smooth="yes"/>
			<point x="965" y="703"/>
			<point x="958" y="715"/>
			<point x="944" y="725" type="curve"/>
			<point x="929" y="715"/>
			<point x="922" y="702"/>
			<point x="922" y="688" type="curve" smooth="yes"/>
			<point x="922" y="675"/>
			<point x="932" y="664"/>
		</contour>
	</outline>
</glyph>
<glyph name="year-tamil" format="2">
	<unicode hex="0BF5"/>
	<advance width="1800"/>
	<outline>
		<contour>
			<point x="386" y="135" type="curve" smooth="yes"/>
			<point x="386" y="85"/>
			<point x="419" y="37"/>
			<point x="467" y="37" type="curve" smooth="yes"/>
			<point x="514" y="37"/>
			<point x="548" y="87"/>
			<point x="548" y="136" type="curve" smooth="yes"/>
			<point x="548" y="185"/>
			<point x="514" y="234"/>
			<point x="467" y="234" type="curve" smooth="yes"/>
			<point x="420" y="234"/>
			<point x="386" y="185"/>
		</contour>
		<contour>
			<point x="461" y="-12" type="curve" smooth="yes"/>
			<point x="321" y="-12"/>
			<point x="236" y="91"/>
			<point x="236" y="234" type="curve" smooth="yes"/>
			<point x="236" y="309"/>
			<point x="263" y="372"/>
			<point x="316" y="425" type="curve" smooth="yes"/>
			<point x="369" y="478"/>
			<point x="434" y="504"/>
			<point x="509" y="504" type="curve" smooth="yes"/>
			<point x="584" y="504"/>
			<point x="649" y="477"/>
			<point x="702" y="424" type="curve" smooth="yes"/>
			<point x="755" y="371"/>
			<point x="782" y="310"/>
			<point x="782" y="240" type="curve" smooth="yes"/>
			<point x="782" y="170"/>
			<point x="768" y="106"/>
			<point x="739" y="49" type="curve"/>
			<point x="929" y="49" type="line"/>
			<point x="929" y="492" type="line"/>
			<point x="1302" y="492" type="line"/>
			<point x="1302" y="443" type="line"/>
			<point x="1175" y="443" type="line"/>
			<point x="1175" y="240" type="line"/>
			<point x="1198" y="260"/>
			<point x="1225" y="270"/>
			<point x="1256" y="270" type="curve" smooth="yes"/>
			<point x="1287" y="270"/>
			<point x="1314" y="253"/>
			<point x="1338" y="220" type="curve" smooth="yes"/>
			<point x="1362" y="187"/>
			<point x="1374" y="146"/>
			<point x="1374" y="98" type="curve" smooth="yes"/>
			<point x="1374" y="-17"/>
			<point x="1310" y="-116"/>
			<point x="1182" y="-198" type="curve" smooth="yes"/>
			<point x="1054" y="-280"/>
			<point x="901" y="-320"/>
			<point x="720" y="-320" type="curve" smooth="yes"/>
			<point x="539" y="-320"/>
			<point x="385" y="-269"/>
			<point x="257" y="-168" type="curve" smooth="yes"/>
			<point x="129" y="-67"/>
			<point x="65" y="56"/>
			<point x="65" y="202" type="curve" smooth="yes"/>
			<point x="65" y="348"/>
			<point x="136" y="474"/>
			<point x="278" y="580" type="curve" smooth="yes"/>
			<point x="420" y="686"/>
			<point x="591" y="738"/>
			<point x="792" y="738" type="curve" smooth="yes"/>
			<point x="993" y="738"/>
			<point x="1164" y="702"/>
			<point x="1306" y="630" type="curve" smooth="yes"/>
			<point x="1448" y="558"/>
			<point x="1518" y="470"/>
			<point x="1518" y="369" type="curve" smooth="yes"/>
			<point x="1518" y="184" type="line" smooth="yes"/>
			<point x="1518" y="119"/>
			<point x="1550" y="49"/>
			<point x="1611" y="49" type="curve" smooth="yes"/>
			<point x="1638" y="49"/>
			<point x="1662" y="68"/>
			<point x="1684" y="107" type="curve" smooth="yes"/>
			<point x="1706" y="146"/>
			<point x="1717" y="192"/>
			<point x="1717" y="246" type="curve" smooth="yes"/>
			<point x="1717" y="326"/>
			<point x="1688" y="443"/>
			<point x="1618" y="443" type="curve"/>
			<point x="1637" y="492" type="line"/>
			<point x="1672" y="492"/>
			<point x="1703" y="468"/>
			<point x="1728" y="420" type="curve" smooth="yes"/>
			<point x="1753" y="372"/>
			<point x="1766" y="314"/>
			<point x="1766" y="246" type="curve" smooth="yes"/>
			<point x="1766" y="178"/>
			<point x="1751" y="120"/>
			<point x="1720" y="72" type="curve" smooth="yes"/>
			<point x="1689" y="24"/>
			<point x="1652" y="0"/>
			<point x="1610" y="0" type="curve" smooth="yes"/>
			<point x="1520" y="0"/>
			<point x="1459" y="91"/>
			<point x="1459" y="184" type="curve" smooth="yes"/>
			<point x="1459" y="369" type="line" smooth="yes"/>
			<point x="1459" y="458"/>
			<point x="1394" y="533"/>
			<point x="1263" y="595" type="curve" smooth="yes"/>
			<point x="1132" y="657"/>
			<point x="974" y="688"/>
			<point x="789" y="688" type="curve" smooth="yes"/>
			<point x="604" y="688"/>
			<point x="446" y="640"/>
			<point x="315" y="544" type="curve" smooth="yes"/>
			<point x="184" y="448"/>
			<point x="119" y="334"/>
			<point x="119" y="202" type="curve" smooth="yes"/>
			<point x="119" y="70"/>
			<point x="177" y="-42"/>
			<point x="294" y="-133" type="curve" smooth="yes"/>
			<point x="411" y="-224"/>
			<point x="553" y="-270"/>
			<point x="718" y="-270" type="curve" smooth="yes"/>
			<point x="883" y="-270"/>
			<point x="1023" y="-234"/>
			<point x="1140" y="-162" type="curve" smooth="yes"/>
			<point x="1257" y="-90"/>
			<point x="1315" y="-3"/>
			<point x="1315" y="98" type="curve" smooth="yes"/>
			<point x="1315" y="149"/>
			<point x="1292" y="215"/>
			<point x="1246" y="215" type="curve" smooth="yes"/>
			<point x="1207" y="215"/>
			<point x="1175" y="181"/>
			<point x="1175" y="141" type="curve" smooth="yes"/>
			<point x="1175" y="0" type="line"/>
			<point x="1116" y="0" type="line"/>
			<point x="1116" y="443" type="line"/>
			<point x="990" y="443" type="line"/>
			<point x="990" y="0" type="line"/>
			<point x="668" y="0" type="line"/>
			<point x="668" y="37" type="line"/>
			<point x="704" y="84"/>
			<point x="722" y="150"/>
			<point x="722" y="234" type="curve" smooth="yes"/>
			<point x="722" y="295"/>
			<point x="702" y="347"/>
			<point x="660" y="390" type="curve" smooth="yes"/>
			<point x="618" y="433"/>
			<point x="568" y="455"/>
			<point x="510" y="455" type="curve" smooth="yes"/>
			<point x="452" y="455"/>
			<point x="402" y="433"/>
			<point x="360" y="390" type="curve" smooth="yes"/>
			<point x="318" y="347"/>
			<point x="297" y="295"/>
			<point x="297" y="234" type="curve" smooth="yes"/>
			<point x="297" y="171"/>
			<point x="314" y="118"/>
			<point x="348" y="74" type="curve"/>
			<point x="341" y="99"/>
			<point x="337" y="119"/>
			<point x="337" y="135" type="curve" smooth="yes"/>
			<point x="337" y="212"/>
			<point x="389" y="283"/>
			<point x="464" y="283" type="curve" smooth="yes"/>
			<point x="540" y="283"/>
			<point x="597" y="213"/>
			<point x="597" y="136" type="curve" smooth="yes"/>
			<point x="597" y="57"/>
			<point x="539" y="-12"/>
		</contour>
	</outline>
</glyph>
<glyph name="debit-tamil" format="2">
	<unicode hex="0BF6"/>
	<advance width="791"/>
	<outline>
		<contour>
			<point x="232" y="-12" type="curve" smooth="yes"/>
			<point x="151" y="-12"/>
			<point x="85" y="54"/>
			<point x="85" y="135" type="curve" smooth="yes"/>
			<point x="85" y="492" type="line"/>
			<point x="146" y="492" type="line"/>
			<point x="146" y="135" type="line" smooth="yes"/>
			<point x="146" y="81"/>
			<point x="183" y="37"/>
			<point x="237" y="37" type="curve" smooth="yes"/>
			<point x="293" y="37"/>
			<point x="343" y="90"/>
			<point x="343" y="148" type="curve" smooth="yes"/>
			<point x="343" y="492" type="line"/>
			<point x="404" y="492" type="line"/>
			<point x="404" y="-61" type="line"/>
			<point x="638" y="-61" type="line"/>
			<point x="638" y="492" type="line"/>
			<point x="699" y="492" type="line"/>
			<point x="699" y="-111" type="line"/>
			<point x="404" y="-111" type="line"/>
			<point x="404" y="-184" type="line" smooth="yes"/>
			<point x="404" y="-249"/>
			<point x="353" y="-307"/>
			<point x="288" y="-307" type="curve" smooth="yes"/>
			<point x="202" y="-307" type="line" smooth="yes"/>
			<point x="136" y="-307"/>
			<point x="79" y="-251"/>
			<point x="79" y="-184" type="curve" smooth="yes"/>
			<point x="79" y="-117"/>
			<point x="135" y="-61"/>
			<point x="202" y="-61" type="curve" smooth="yes"/>
			<point x="343" y="-61" type="line"/>
			<point x="343" y="37" type="line"/>
			<point x="324" y="6"/>
			<point x="282" y="-12"/>
		</contour>
		<contour>
			<point x="140" y="-184" type="curve" smooth="yes"/>
			<point x="140" y="-222"/>
			<point x="165" y="-258"/>
			<point x="202" y="-258" type="curve" smooth="yes"/>
			<point x="288" y="-258" type="line" smooth="yes"/>
			<point x="322" y="-258"/>
			<point x="343" y="-220"/>
			<point x="343" y="-184" type="curve" smooth="yes"/>
			<point x="343" y="-111" type="line"/>
			<point x="202" y="-111" type="line" smooth="yes"/>
			<point x="165" y="-111"/>
			<point x="140" y="-146"/>
		</contour>
	</outline>
</glyph>
<glyph name="credit-tamil" format="2">
	<unicode hex="0BF7"/>
	<advance width="1336"/>
	<outline>
		<contour>
			<point x="214" y="132" type="curve" smooth="yes"/>
			<point x="214" y="86"/>
			<point x="243" y="37"/>
			<point x="288" y="37" type="curve" smooth="yes"/>
			<point x="332" y="37"/>
			<point x="361" y="87"/>
			<point x="361" y="133" type="curve" smooth="yes"/>
			<point x="361" y="179"/>
			<point x="332" y="221"/>
			<point x="288" y="221" type="curve" smooth="yes"/>
			<point x="244" y="221"/>
			<point x="214" y="178"/>
		</contour>
		<contour>
			<point x="990" y="114" type="curve" smooth="yes"/>
			<point x="990" y="43"/>
			<point x="930" y="-9"/>
			<point x="857" y="-9" type="curve" smooth="yes"/>
			<point x="818" y="-9"/>
			<point x="784" y="9"/>
			<point x="755" y="44" type="curve" smooth="yes"/>
			<point x="726" y="79"/>
			<point x="711" y="122"/>
			<point x="711" y="171" type="curve"/>
			<point x="665" y="145"/>
			<point x="634" y="112"/>
			<point x="620" y="71" type="curve"/>
			<point x="620" y="0" type="line"/>
			<point x="558" y="0" type="line"/>
			<point x="558" y="443" type="line"/>
			<point x="312" y="443" type="line" smooth="yes"/>
			<point x="255" y="443"/>
			<point x="205" y="421"/>
			<point x="164" y="378" type="curve" smooth="yes"/>
			<point x="123" y="335"/>
			<point x="103" y="282"/>
			<point x="103" y="221" type="curve" smooth="yes"/>
			<point x="103" y="141"/>
			<point x="148" y="80"/>
			<point x="202" y="49" type="curve"/>
			<point x="177" y="78"/>
			<point x="165" y="109"/>
			<point x="165" y="142" type="curve" smooth="yes"/>
			<point x="165" y="210"/>
			<point x="222" y="270"/>
			<point x="291" y="270" type="curve" smooth="yes"/>
			<point x="365" y="270"/>
			<point x="423" y="208"/>
			<point x="423" y="133" type="curve" smooth="yes"/>
			<point x="423" y="51"/>
			<point x="346" y="-12"/>
			<point x="263" y="-12" type="curve" smooth="yes"/>
			<point x="206" y="-12"/>
			<point x="157" y="11"/>
			<point x="116" y="56" type="curve" smooth="yes"/>
			<point x="75" y="101"/>
			<point x="54" y="158"/>
			<point x="54" y="228" type="curve" smooth="yes"/>
			<point x="54" y="298"/>
			<point x="80" y="359"/>
			<point x="130" y="412" type="curve" smooth="yes"/>
			<point x="180" y="465"/>
			<point x="241" y="492"/>
			<point x="312" y="492" type="curve" smooth="yes"/>
			<point x="742" y="492" type="line"/>
			<point x="742" y="443" type="line"/>
			<point x="620" y="443" type="line"/>
			<point x="620" y="145" type="line"/>
			<point x="644" y="175"/>
			<point x="677" y="199"/>
			<point x="717" y="218" type="curve"/>
			<point x="736" y="298"/>
			<point x="812" y="368"/>
			<point x="908" y="368" type="curve" smooth="yes"/>
			<point x="965" y="368"/>
			<point x="1014" y="349"/>
			<point x="1054" y="310" type="curve" smooth="yes"/>
			<point x="1094" y="271"/>
			<point x="1114" y="225"/>
			<point x="1114" y="172" type="curve" smooth="yes"/>
			<point x="1114" y="119"/>
			<point x="1102" y="74"/>
			<point x="1079" y="36" type="curve"/>
			<point x="1329" y="36" type="line"/>
			<point x="1329" y="0" type="line"/>
			<point x="1024" y="0" type="line"/>
			<point x="1024" y="27" type="line"/>
			<point x="1053" y="63"/>
			<point x="1068" y="111"/>
			<point x="1068" y="171" type="curve" smooth="yes"/>
			<point x="1068" y="259"/>
			<point x="996" y="332"/>
			<point x="908" y="332" type="curve" smooth="yes"/>
			<point x="836" y="332"/>
			<point x="784" y="285"/>
			<point x="761" y="232" type="curve"/>
			<point x="788" y="239"/>
			<point x="813" y="242"/>
			<point x="837" y="242" type="curve" smooth="yes"/>
			<point x="914" y="242"/>
			<point x="990" y="188"/>
		</contour>
		<contour>
			<point x="940" y="114" type="curve" smooth="yes"/>
			<point x="940" y="164"/>
			<point x="889" y="202"/>
			<point x="837" y="202" type="curve" smooth="yes"/>
			<point x="808" y="202"/>
			<point x="779" y="197"/>
			<point x="749" y="187" type="curve"/>
			<point x="749" y="113"/>
			<point x="792" y="33"/>
			<point x="862" y="33" type="curve" smooth="yes"/>
			<point x="907" y="33"/>
			<point x="940" y="69"/>
		</contour>
	</outline>
</glyph>
<glyph name="asabove-tamil" format="2">
	<unicode hex="0BF8"/>
	<advance width="1595"/>
	<outline>
		<contour>
			<point x="983" y="219" type="curve" smooth="yes"/>
			<point x="983" y="299"/>
			<point x="926" y="369"/>
			<point x="848" y="369" type="curve" smooth="yes"/>
			<point x="827" y="369"/>
			<point x="809" y="367"/>
			<point x="793" y="363" type="curve"/>
			<point x="797" y="345"/>
			<point x="799" y="326"/>
			<point x="799" y="307" type="curve" smooth="yes"/>
			<point x="799" y="222"/>
			<point x="783" y="150"/>
			<point x="752" y="90" type="curve" smooth="yes"/>
			<point x="721" y="30"/>
			<point x="684" y="0"/>
			<point x="639" y="0" type="curve" smooth="yes"/>
			<point x="585" y="0"/>
			<point x="553" y="66"/>
			<point x="553" y="123" type="curve" smooth="yes"/>
			<point x="553" y="250"/>
			<point x="624" y="353"/>
			<point x="719" y="387" type="curve"/>
			<point x="677" y="504"/>
			<point x="574" y="627"/>
			<point x="430" y="627" type="curve" smooth="yes"/>
			<point x="343" y="627"/>
			<point x="269" y="596"/>
			<point x="208" y="534" type="curve" smooth="yes"/>
			<point x="147" y="472"/>
			<point x="117" y="396"/>
			<point x="117" y="307" type="curve" smooth="yes"/>
			<point x="117" y="248"/>
			<point x="135" y="187"/>
			<point x="172" y="123" type="curve"/>
			<point x="164" y="207"/>
			<point x="227" y="283"/>
			<point x="308" y="283" type="curve" smooth="yes"/>
			<point x="389" y="283"/>
			<point x="455" y="217"/>
			<point x="455" y="136" type="curve" smooth="yes"/>
			<point x="455" y="54"/>
			<point x="389" y="-12"/>
			<point x="307" y="-12" type="curve" smooth="yes"/>
			<point x="239" y="-12"/>
			<point x="181" y="20"/>
			<point x="133" y="82" type="curve" smooth="yes"/>
			<point x="85" y="144"/>
			<point x="61" y="219"/>
			<point x="61" y="307" type="curve" smooth="yes"/>
			<point x="61" y="408"/>
			<point x="98" y="496"/>
			<point x="170" y="568" type="curve" smooth="yes"/>
			<point x="242" y="640"/>
			<point x="329" y="676"/>
			<point x="430" y="676" type="curve" smooth="yes"/>
			<point x="603" y="676"/>
			<point x="730" y="542"/>
			<point x="781" y="406" type="curve"/>
			<point x="804" y="414"/>
			<point x="830" y="418"/>
			<point x="861" y="418" type="curve" smooth="yes"/>
			<point x="964" y="418"/>
			<point x="1045" y="325"/>
			<point x="1045" y="221" type="curve" smooth="yes"/>
			<point x="1045" y="141"/>
			<point x="1024" y="83"/>
			<point x="983" y="49" type="curve"/>
			<point x="1217" y="49" type="line"/>
			<point x="1162" y="75"/>
			<point x="1119" y="134"/>
			<point x="1119" y="212" type="curve" smooth="yes"/>
			<point x="1119" y="287"/>
			<point x="1189" y="344"/>
			<point x="1266" y="344" type="curve" smooth="yes"/>
			<point x="1344" y="344"/>
			<point x="1414" y="286"/>
			<point x="1414" y="209" type="curve" smooth="yes"/>
			<point x="1414" y="49" type="line"/>
			<point x="1586" y="49" type="line"/>
			<point x="1586" y="0" type="line"/>
			<point x="1414" y="0" type="line"/>
			<point x="1414" y="-295" type="line"/>
			<point x="1352" y="-295" type="line"/>
			<point x="1352" y="0" type="line"/>
			<point x="873" y="0" type="line"/>
			<point x="873" y="37" type="line"/>
			<point x="937" y="60"/>
			<point x="983" y="133"/>
		</contour>
		<contour>
			<point x="221" y="135" type="curve" smooth="yes"/>
			<point x="221" y="84"/>
			<point x="258" y="37"/>
			<point x="308" y="37" type="curve" smooth="yes"/>
			<point x="357" y="37"/>
			<point x="393" y="85"/>
			<point x="393" y="136" type="curve" smooth="yes"/>
			<point x="393" y="187"/>
			<point x="353" y="234"/>
			<point x="304" y="234" type="curve" smooth="yes"/>
			<point x="254" y="234"/>
			<point x="221" y="186"/>
		</contour>
		<contour>
			<point x="615" y="123" type="curve" smooth="yes"/>
			<point x="615" y="98"/>
			<point x="620" y="49"/>
			<point x="639" y="49" type="curve" smooth="yes"/>
			<point x="664" y="49"/>
			<point x="686" y="74"/>
			<point x="704" y="124" type="curve" smooth="yes"/>
			<point x="722" y="174"/>
			<point x="731" y="236"/>
			<point x="731" y="307" type="curve" smooth="yes"/>
			<point x="731" y="344" type="line"/>
			<point x="658" y="317"/>
			<point x="615" y="225"/>
		</contour>
		<contour>
			<point x="1266" y="295" type="curve" smooth="yes"/>
			<point x="1218" y="295"/>
			<point x="1180" y="257"/>
			<point x="1180" y="209" type="curve" smooth="yes"/>
			<point x="1180" y="119"/>
			<point x="1261" y="49"/>
			<point x="1352" y="49" type="curve"/>
			<point x="1352" y="209" type="line" smooth="yes"/>
			<point x="1352" y="257"/>
			<point x="1314" y="295"/>
		</contour>
	</outline>
</glyph>
<glyph name="rupee-tamil" format="2">
	<unicode hex="0BF9"/>
	<advance width="1231"/>
	<outline>
		<contour>
			<point x="789" y="123" type="curve" smooth="yes"/>
			<point x="789" y="191"/>
			<point x="741" y="258"/>
			<point x="677" y="258" type="curve" smooth="yes"/>
			<point x="648" y="258"/>
			<point x="620" y="242"/>
			<point x="593" y="209" type="curve"/>
			<point x="593" y="0" type="line"/>
			<point x="531" y="0" type="line"/>
			<point x="531" y="443" type="line"/>
			<point x="384" y="443" type="line"/>
			<point x="384" y="0" type="line"/>
			<point x="322" y="0" type="line"/>
			<point x="322" y="492" type="line"/>
			<point x="691" y="492" type="line"/>
			<point x="691" y="443" type="line"/>
			<point x="593" y="443" type="line"/>
			<point x="593" y="270" type="line"/>
			<point x="607" y="293"/>
			<point x="641" y="307"/>
			<point x="679" y="307" type="curve" smooth="yes"/>
			<point x="775" y="307"/>
			<point x="851" y="221"/>
			<point x="851" y="123" type="curve" smooth="yes"/>
			<point x="851" y="14"/>
			<point x="813" y="-78"/>
			<point x="736" y="-155" type="curve" smooth="yes"/>
			<point x="659" y="-232"/>
			<point x="567" y="-270"/>
			<point x="460" y="-270" type="curve" smooth="yes"/>
			<point x="353" y="-270"/>
			<point x="263" y="-223"/>
			<point x="188" y="-128" type="curve" smooth="yes"/>
			<point x="113" y="-33"/>
			<point x="76" y="83"/>
			<point x="76" y="222" type="curve" smooth="yes"/>
			<point x="76" y="361"/>
			<point x="116" y="482"/>
			<point x="198" y="584" type="curve" smooth="yes"/>
			<point x="280" y="686"/>
			<point x="379" y="738"/>
			<point x="494" y="738" type="curve" smooth="yes"/>
			<point x="570" y="738"/>
			<point x="640" y="715"/>
			<point x="703" y="670" type="curve" smooth="yes"/>
			<point x="766" y="625"/>
			<point x="811" y="565"/>
			<point x="838" y="492" type="curve"/>
			<point x="860" y="548"/>
			<point x="916" y="590"/>
			<point x="992" y="590" type="curve" smooth="yes"/>
			<point x="1062" y="590"/>
			<point x="1133" y="536"/>
			<point x="1133" y="467" type="curve"/>
			<point x="1232" y="467" type="line"/>
			<point x="1232" y="418" type="line"/>
			<point x="1084" y="418" type="line"/>
			<point x="1084" y="481"/>
			<point x="1043" y="541"/>
			<point x="981" y="541" type="curve" smooth="yes"/>
			<point x="951" y="541"/>
			<point x="924" y="527"/>
			<point x="900" y="498" type="curve" smooth="yes"/>
			<point x="876" y="469"/>
			<point x="863" y="434"/>
			<point x="863" y="393" type="curve"/>
			<point x="801" y="393" type="line"/>
			<point x="801" y="474"/>
			<point x="772" y="544"/>
			<point x="712" y="602" type="curve" smooth="yes"/>
			<point x="652" y="660"/>
			<point x="579" y="688"/>
			<point x="494" y="688" type="curve" smooth="yes"/>
			<point x="394" y="688"/>
			<point x="309" y="642"/>
			<point x="238" y="550" type="curve" smooth="yes"/>
			<point x="167" y="458"/>
			<point x="132" y="348"/>
			<point x="132" y="222" type="curve" smooth="yes"/>
			<point x="132" y="96"/>
			<point x="164" y="-9"/>
			<point x="227" y="-94" type="curve" smooth="yes"/>
			<point x="290" y="-179"/>
			<point x="367" y="-221"/>
			<point x="458" y="-221" type="curve" smooth="yes"/>
			<point x="549" y="-221"/>
			<point x="627" y="-187"/>
			<point x="692" y="-120" type="curve" smooth="yes"/>
			<point x="757" y="-53"/>
			<point x="789" y="28"/>
		</contour>
	</outline>
</glyph>
<glyph name="number-tamil" format="2">
	<unicode hex="0BFA"/>
	<advance width="1196"/>
	<outline>
		<contour>
			<point x="688" y="348" type="curve" smooth="yes"/>
			<point x="688" y="311"/>
			<point x="713" y="283"/>
			<point x="748" y="283" type="curve" smooth="yes"/>
			<point x="784" y="283"/>
			<point x="805" y="311"/>
			<point x="805" y="349" type="curve" smooth="yes"/>
			<point x="805" y="392"/>
			<point x="801" y="425"/>
			<point x="793" y="449" type="curve"/>
			<point x="746" y="437"/>
			<point x="688" y="400"/>
		</contour>
		<contour>
			<point x="547" y="155" type="curve" smooth="yes"/>
			<point x="547" y="210"/>
			<point x="502" y="246"/>
			<point x="446" y="246" type="curve" smooth="yes"/>
			<point x="417" y="246"/>
			<point x="390" y="230"/>
			<point x="363" y="197" type="curve"/>
			<point x="363" y="98" type="line"/>
			<point x="301" y="98" type="line"/>
			<point x="301" y="443" type="line"/>
			<point x="154" y="443" type="line"/>
			<point x="154" y="0" type="line"/>
			<point x="92" y="0" type="line"/>
			<point x="92" y="492" type="line"/>
			<point x="387" y="492" type="line"/>
			<point x="366" y="511"/>
			<point x="356" y="542"/>
			<point x="356" y="585" type="curve" smooth="yes"/>
			<point x="356" y="680"/>
			<point x="463" y="731"/>
			<point x="564" y="731" type="curve" smooth="yes"/>
			<point x="622" y="731"/>
			<point x="676" y="710"/>
			<point x="727" y="668" type="curve" smooth="yes"/>
			<point x="778" y="626"/>
			<point x="812" y="570"/>
			<point x="830" y="503" type="curve"/>
			<point x="848" y="504" type="line"/>
			<point x="915" y="504"/>
			<point x="971" y="485"/>
			<point x="1018" y="446" type="curve" smooth="yes"/>
			<point x="1065" y="407"/>
			<point x="1088" y="362"/>
			<point x="1088" y="310" type="curve" smooth="yes"/>
			<point x="1088" y="186"/>
			<point x="1003" y="100"/>
			<point x="916" y="49" type="curve"/>
			<point x="1186" y="49" type="line"/>
			<point x="1186" y="0" type="line"/>
			<point x="713" y="0" type="line"/>
			<point x="809" y="35"/>
			<point x="886" y="81"/>
			<point x="945" y="137" type="curve" smooth="yes"/>
			<point x="1004" y="193"/>
			<point x="1033" y="250"/>
			<point x="1033" y="307" type="curve" smooth="yes"/>
			<point x="1033" y="395"/>
			<point x="940" y="455"/>
			<point x="848" y="455" type="curve"/>
			<point x="858" y="432"/>
			<point x="863" y="395"/>
			<point x="863" y="344" type="curve" smooth="yes"/>
			<point x="863" y="283"/>
			<point x="811" y="234"/>
			<point x="750" y="234" type="curve" smooth="yes"/>
			<point x="686" y="234"/>
			<point x="633" y="284"/>
			<point x="633" y="349" type="curve" smooth="yes"/>
			<point x="633" y="425"/>
			<point x="705" y="483"/>
			<point x="774" y="495" type="curve"/>
			<point x="750" y="585"/>
			<point x="670" y="682"/>
			<point x="565" y="682" type="curve" smooth="yes"/>
			<point x="495" y="682"/>
			<point x="412" y="652"/>
			<point x="412" y="590" type="curve" smooth="yes"/>
			<point x="412" y="544"/>
			<point x="424" y="511"/>
			<point x="449" y="492" type="curve"/>
			<point x="535" y="492" type="line"/>
			<point x="535" y="443" type="line"/>
			<point x="363" y="443" type="line"/>
			<point x="363" y="264" type="line"/>
			<point x="385" y="289"/>
			<point x="415" y="301"/>
			<point x="455" y="301" type="curve" smooth="yes"/>
			<point x="495" y="301"/>
			<point x="531" y="287"/>
			<point x="562" y="260" type="curve" smooth="yes"/>
			<point x="593" y="233"/>
			<point x="608" y="198"/>
			<point x="608" y="156" type="curve" smooth="yes"/>
			<point x="608" y="114"/>
			<point x="591" y="78"/>
			<point x="558" y="47" type="curve" smooth="yes"/>
			<point x="525" y="16"/>
			<point x="484" y="0"/>
			<point x="436" y="0" type="curve" smooth="yes"/>
			<point x="301" y="0" type="line"/>
			<point x="301" y="49" type="line"/>
			<point x="436" y="49" type="line" smooth="yes"/>
			<point x="493" y="49"/>
			<point x="547" y="99"/>
		</contour>
	</outline>
</glyph>
<glyph name="anusvaraya-sinhala" format="2">
	<unicode hex="0D82"/>
	<advance width="481"/>
	<outline>
		<contour>
			<point x="239" y="67" type="curve" smooth="yes"/>
			<point x="121" y="64"/>
			<point x="34" y="154"/>
			<point x="34" y="272" type="curve" smooth="yes"/>
			<point x="34" y="356"/>
			<point x="79" y="420"/>
			<point x="136" y="451" type="curve" smooth="yes"/>
			<point x="190" y="481"/>
			<point x="267" y="487"/>
			<point x="326" y="462" type="curve" smooth="yes"/>
			<point x="398" y="432"/>
			<point x="448" y="361"/>
			<point x="447" y="270" type="curve" smooth="yes"/>
			<point x="446" y="150"/>
			<point x="361" y="67"/>
		</contour>
		<contour>
			<point x="109" y="274" type="curve" smooth="yes"/>
			<point x="109" y="193"/>
			<point x="158" y="138"/>
			<point x="239" y="138" type="curve" smooth="yes"/>
			<point x="280" y="138"/>
			<point x="312" y="150"/>
			<point x="336" y="175" type="curve" smooth="yes"/>
			<point x="359" y="202"/>
			<point x="371" y="235"/>
			<point x="371" y="275" type="curve" smooth="yes"/>
			<point x="371" y="355"/>
			<point x="320" y="406"/>
			<point x="240" y="406" type="curve" smooth="yes"/>
			<point x="160" y="406"/>
			<point x="109" y="355"/>
		</contour>
	</outline>
</glyph>
<glyph name="visargaya-sinhala" format="2">
	<unicode hex="0D83"/>
	<advance width="325"/>
	<outline>
		<contour>
			<point x="31" y="430" type="curve" smooth="yes"/>
			<point x="31" y="507"/>
			<point x="86" y="557"/>
			<point x="164" y="557" type="curve" smooth="yes"/>
			<point x="242" y="557"/>
			<point x="294" y="510"/>
			<point x="294" y="433" type="curve" smooth="yes"/>
			<point x="294" y="355"/>
			<point x="241" y="307"/>
			<point x="162" y="307" type="curve" smooth="yes"/>
			<point x="84" y="307"/>
			<point x="31" y="353"/>
		</contour>
		<contour>
			<point x="229" y="432" type="curve" smooth="yes"/>
			<point x="229" y="471"/>
			<point x="202" y="495"/>
			<point x="162" y="495" type="curve" smooth="yes"/>
			<point x="122" y="495"/>
			<point x="96" y="471"/>
			<point x="96" y="432" type="curve" smooth="yes"/>
			<point x="96" y="393"/>
			<point x="122" y="369"/>
			<point x="162" y="369" type="curve" smooth="yes"/>
			<point x="202" y="369"/>
			<point x="229" y="393"/>
		</contour>
		<contour>
			<point x="162" y="250" type="curve" smooth="yes"/>
			<point x="240" y="250"/>
			<point x="294" y="201"/>
			<point x="294" y="124" type="curve" smooth="yes"/>
			<point x="294" y="47"/>
			<point x="241" y="0"/>
			<point x="162" y="0" type="curve" smooth="yes"/>
			<point x="84" y="0"/>
			<point x="31" y="46"/>
			<point x="31" y="123" type="curve" smooth="yes"/>
			<point x="31" y="199"/>
			<point x="85" y="250"/>
		</contour>
		<contour>
			<point x="229" y="124" type="curve" smooth="yes"/>
			<point x="229" y="163"/>
			<point x="201" y="188"/>
			<point x="162" y="188" type="curve" smooth="yes"/>
			<point x="122" y="188"/>
			<point x="96" y="164"/>
			<point x="96" y="125" type="curve" smooth="yes"/>
			<point x="96" y="85"/>
			<point x="121" y="62"/>
			<point x="161" y="62" type="curve" smooth="yes"/>
			<point x="201" y="62"/>
			<point x="229" y="85"/>
		</contour>
	</outline>
</glyph>
<glyph name="a-sinhala" format="2">
	<unicode hex="0D85"/>
	<advance width="975"/>
	<outline>
		<contour>
			<point x="412" y="658" type="line"/>
			<point x="434" y="647"/>
			<point x="474" y="611"/>
			<point x="474" y="556" type="curve" smooth="yes"/>
			<point x="474" y="485"/>
			<point x="417" y="438"/>
			<point x="344" y="438" type="curve" smooth="yes"/>
			<point x="279" y="438"/>
			<point x="223" y="486"/>
			<point x="223" y="554" type="curve" smooth="yes"/>
			<point x="223" y="649"/>
			<point x="298" y="708"/>
			<point x="403" y="708" type="curve" smooth="yes"/>
			<point x="538" y="708"/>
			<point x="674" y="618"/>
			<point x="674" y="404" type="curve"/>
			<point x="674" y="276" type="line"/>
			<point x="674" y="66"/>
			<point x="510" y="-23"/>
			<point x="386" y="-23" type="curve" smooth="yes"/>
			<point x="229" y="-23"/>
			<point x="121" y="47"/>
			<point x="121" y="177" type="curve" smooth="yes"/>
			<point x="121" y="305"/>
			<point x="235" y="389"/>
			<point x="355" y="414" type="curve" smooth="yes"/>
			<point x="423" y="428"/>
			<point x="532" y="432"/>
			<point x="571" y="432" type="curve" smooth="yes"/>
			<point x="661" y="432"/>
			<point x="764" y="418"/>
			<point x="777" y="415" type="curve"/>
			<point x="747" y="391" type="line"/>
			<point x="747" y="514" type="line" smooth="yes"/>
			<point x="747" y="598"/>
			<point x="802" y="660"/>
			<point x="879" y="660" type="curve" smooth="yes"/>
			<point x="969" y="660"/>
			<point x="1017" y="584"/>
			<point x="991" y="499" type="curve"/>
			<point x="903" y="525" type="line"/>
			<point x="916" y="544"/>
			<point x="908" y="572"/>
			<point x="885" y="572" type="curve" smooth="yes"/>
			<point x="863" y="572"/>
			<point x="842" y="559"/>
			<point x="842" y="489" type="curve" smooth="yes"/>
			<point x="842" y="-150" type="line"/>
			<point x="747" y="-170" type="line"/>
			<point x="747" y="363" type="line"/>
			<point x="774" y="328" type="line"/>
			<point x="766" y="333"/>
			<point x="640" y="342"/>
			<point x="578" y="342" type="curve" smooth="yes"/>
			<point x="395" y="342"/>
			<point x="222" y="314"/>
			<point x="222" y="180" type="curve" smooth="yes"/>
			<point x="222" y="117"/>
			<point x="276" y="72"/>
			<point x="381" y="72" type="curve" smooth="yes"/>
			<point x="442" y="72"/>
			<point x="571" y="104"/>
			<point x="571" y="286" type="curve"/>
			<point x="571" y="414" type="line"/>
			<point x="571" y="572"/>
			<point x="494" y="619"/>
			<point x="407" y="623" type="curve" smooth="yes"/>
			<point x="332" y="626"/>
			<point x="307" y="584"/>
			<point x="307" y="556" type="curve" smooth="yes"/>
			<point x="307" y="528"/>
			<point x="327" y="507"/>
			<point x="355" y="507" type="curve" smooth="yes"/>
			<point x="388" y="507"/>
			<point x="407" y="528"/>
			<point x="407" y="556" type="curve" smooth="yes"/>
			<point x="407" y="584"/>
			<point x="385" y="630"/>
			<point x="352" y="630" type="curve"/>
		</contour>
	</outline>
</glyph>
<glyph name="i-sinhala" format="2">
	<unicode hex="0D89"/>
	<advance width="996"/>
	<outline>
		<contour>
			<point x="541" y="336" type="curve"/>
			<point x="541" y="180"/>
			<point x="407" y="56"/>
			<point x="266" y="56" type="curve" smooth="yes"/>
			<point x="140" y="56"/>
			<point x="41" y="135"/>
			<point x="41" y="255" type="curve" smooth="yes"/>
			<point x="41" y="369"/>
			<point x="131" y="451"/>
			<point x="317" y="451" type="curve" smooth="yes"/>
			<point x="476" y="451" type="line" smooth="yes"/>
			<point x="628" y="451"/>
			<point x="728" y="373"/>
			<point x="728" y="253" type="curve" smooth="yes"/>
			<point x="728" y="143"/>
			<point x="644" y="55"/>
			<point x="506" y="55" type="curve" smooth="yes"/>
			<point x="311" y="55"/>
			<point x="212" y="229"/>
			<point x="212" y="371" type="curve" smooth="yes"/>
			<point x="212" y="603"/>
			<point x="380" y="732"/>
			<point x="581" y="732" type="curve" smooth="yes"/>
			<point x="813" y="732"/>
			<point x="965" y="564"/>
			<point x="965" y="352" type="curve" smooth="yes"/>
			<point x="965" y="152"/>
			<point x="858" y="-6"/>
			<point x="706" y="-77" type="curve"/>
			<point x="724" y="-97"/>
			<point x="736" y="-137"/>
			<point x="736" y="-175" type="curve" smooth="yes"/>
			<point x="736" y="-270"/>
			<point x="668" y="-331"/>
			<point x="577" y="-331" type="curve" smooth="yes"/>
			<point x="515" y="-331"/>
			<point x="467" y="-300"/>
			<point x="427" y="-241" type="curve"/>
			<point x="507" y="-190" type="line"/>
			<point x="525" y="-220"/>
			<point x="543" y="-236"/>
			<point x="581" y="-236" type="curve" smooth="yes"/>
			<point x="610" y="-236"/>
			<point x="642" y="-202"/>
			<point x="642" y="-172" type="curve" smooth="yes"/>
			<point x="642" y="-142"/>
			<point x="628" y="-122"/>
			<point x="600" y="-110" type="curve"/>
			<point x="560" y="-115"/>
			<point x="538" y="-117"/>
			<point x="532" y="-117" type="curve" smooth="yes"/>
			<point x="524" y="-117" type="line"/>
			<point x="514" y="-26" type="line"/>
			<point x="713" y="-20"/>
			<point x="870" y="125"/>
			<point x="870" y="345" type="curve" smooth="yes"/>
			<point x="870" y="479"/>
			<point x="781" y="638"/>
			<point x="578" y="638" type="curve" smooth="yes"/>
			<point x="458" y="638"/>
			<point x="300" y="581"/>
			<point x="300" y="380" type="curve" smooth="yes"/>
			<point x="300" y="261"/>
			<point x="377" y="149"/>
			<point x="510" y="149" type="curve" smooth="yes"/>
			<point x="598" y="149"/>
			<point x="635" y="199"/>
			<point x="635" y="251" type="curve" smooth="yes"/>
			<point x="635" y="311"/>
			<point x="586" y="361"/>
			<point x="473" y="361" type="curve" smooth="yes"/>
			<point x="288" y="361" type="line" smooth="yes"/>
			<point x="169" y="361"/>
			<point x="122" y="314"/>
			<point x="122" y="257" type="curve" smooth="yes"/>
			<point x="122" y="191"/>
			<point x="184" y="147"/>
			<point x="258" y="147" type="curve" smooth="yes"/>
			<point x="376" y="147"/>
			<point x="454" y="236"/>
			<point x="454" y="338" type="curve" smooth="yes"/>
			<point x="454" y="416"/>
			<point x="402" y="489"/>
			<point x="384" y="511" type="curve"/>
			<point x="464" y="558" type="line"/>
			<point x="502" y="511"/>
			<point x="541" y="424"/>
		</contour>
	</outline>
</glyph>
<glyph name="ii-sinhala" format="2">
	<unicode hex="0D8A"/>
	<advance width="1043"/>
	<outline>
		<contour>
			<point x="439" y="429" type="curve" smooth="yes"/>
			<point x="409" y="429"/>
			<point x="384" y="454"/>
			<point x="384" y="484" type="curve" smooth="yes"/>
			<point x="384" y="514"/>
			<point x="409" y="540"/>
			<point x="439" y="540" type="curve" smooth="yes"/>
			<point x="469" y="540"/>
			<point x="495" y="514"/>
			<point x="495" y="484" type="curve" smooth="yes"/>
			<point x="495" y="454"/>
			<point x="469" y="429"/>
		</contour>
		<contour>
			<point x="874" y="429" type="curve" smooth="yes"/>
			<point x="844" y="429"/>
			<point x="819" y="454"/>
			<point x="819" y="484" type="curve" smooth="yes"/>
			<point x="819" y="514"/>
			<point x="844" y="540"/>
			<point x="874" y="540" type="curve" smooth="yes"/>
			<point x="904" y="540"/>
			<point x="930" y="514"/>
			<point x="930" y="484" type="curve" smooth="yes"/>
			<point x="930" y="454"/>
			<point x="904" y="429"/>
		</contour>
		<component base="ra-sinhala"/>
	</outline>
</glyph>
<glyph name="u-sinhala" format="2">
	<unicode hex="0D8B"/>
	<advance width="913"/>
	<outline>
		<contour>
			<point x="160" y="-1" type="curve" smooth="yes"/>
			<point x="160" y="-134"/>
			<point x="310" y="-194"/>
			<point x="456" y="-194" type="curve" smooth="yes"/>
			<point x="640" y="-194"/>
			<point x="796" y="-136"/>
			<point x="925" y="-20" type="curve"/>
			<point x="1027" y="-73" type="line"/>
			<point x="1024" y="-75" type="line"/>
			<point x="887" y="-198"/>
			<point x="691" y="-296"/>
			<point x="450" y="-296" type="curve" smooth="yes"/>
			<point x="336" y="-296"/>
			<point x="242" y="-268"/>
			<point x="168" y="-212" type="curve" smooth="yes"/>
			<point x="95" y="-156"/>
			<point x="58" y="-85"/>
			<point x="58" y="2" type="curve" smooth="yes"/>
			<point x="58" y="57"/>
			<point x="75" y="105"/>
			<point x="110" y="147" type="curve" smooth="yes"/>
			<point x="151" y="195"/>
			<point x="224" y="228"/>
			<point x="329" y="248" type="curve"/>
			<point x="333" y="248" type="line"/>
			<point x="398" y="261"/>
			<point x="444" y="279"/>
			<point x="472" y="300" type="curve" smooth="yes"/>
			<point x="501" y="321"/>
			<point x="516" y="351"/>
			<point x="516" y="390" type="curve" smooth="yes"/>
			<point x="516" y="470"/>
			<point x="454" y="533"/>
			<point x="390" y="553" type="curve"/>
			<point x="407" y="542"/>
			<point x="418" y="510"/>
			<point x="418" y="482" type="curve" smooth="yes"/>
			<point x="418" y="411"/>
			<point x="361" y="365"/>
			<point x="293" y="365" type="curve" smooth="yes"/>
			<point x="223" y="365"/>
			<point x="162" y="413"/>
			<point x="162" y="481" type="curve" smooth="yes"/>
			<point x="162" y="540"/>
			<point x="183" y="574"/>
			<point x="218" y="598" type="curve" smooth="yes"/>
			<point x="254" y="623"/>
			<point x="298" y="635"/>
			<point x="352" y="635" type="curve" smooth="yes"/>
			<point x="424" y="635"/>
			<point x="487" y="610"/>
			<point x="540" y="562" type="curve" smooth="yes"/>
			<point x="592" y="514"/>
			<point x="618" y="457"/>
			<point x="618" y="389" type="curve" smooth="yes"/>
			<point x="618" y="342"/>
			<point x="606" y="301"/>
			<point x="580" y="264" type="curve" smooth="yes"/>
			<point x="546" y="216"/>
			<point x="489" y="181"/>
			<point x="408" y="160" type="curve" smooth="yes"/>
			<point x="388" y="155"/>
			<point x="370" y="151"/>
			<point x="354" y="148" type="curve"/>
			<point x="349" y="148" type="line"/>
			<point x="305" y="139"/>
			<point x="274" y="132"/>
			<point x="256" y="125" type="curve" smooth="yes"/>
			<point x="192" y="101"/>
			<point x="160" y="59"/>
		</contour>
		<contour>
			<point x="301" y="533" type="curve" smooth="yes"/>
			<point x="273" y="533"/>
			<point x="251" y="511"/>
			<point x="251" y="483" type="curve" smooth="yes"/>
			<point x="251" y="455"/>
			<point x="273" y="433"/>
			<point x="301" y="433" type="curve" smooth="yes"/>
			<point x="329" y="433"/>
			<point x="351" y="455"/>
			<point x="351" y="483" type="curve" smooth="yes"/>
			<point x="351" y="511"/>
			<point x="329" y="533"/>
		</contour>
	</outline>
</glyph>
<glyph name="rVocalic-sinhala" format="2">
	<unicode hex="0D8D"/>
	<advance width="1290"/>
	<outline>
		<contour>
			<point x="272" y="470" type="curve"/>
			<point x="270" y="521"/>
			<point x="244" y="551"/>
			<point x="197" y="551" type="curve" smooth="yes"/>
			<point x="143" y="551"/>
			<point x="118" y="524"/>
			<point x="122" y="470" type="curve"/>
			<point x="26" y="454" type="line"/>
			<point x="16" y="497"/>
			<point x="30" y="542"/>
			<point x="48" y="572" type="curve" smooth="yes"/>
			<point x="78" y="621"/>
			<point x="127" y="645"/>
			<point x="196" y="645" type="curve" smooth="yes"/>
			<point x="316" y="645"/>
			<point x="381" y="556"/>
			<point x="381" y="432" type="curve" smooth="yes"/>
			<point x="381" y="385" type="line"/>
			<point x="281" y="382" type="line"/>
			<point x="205" y="379"/>
			<point x="163" y="352"/>
			<point x="138" y="303" type="curve" smooth="yes"/>
			<point x="127" y="282"/>
			<point x="122" y="255"/>
			<point x="122" y="224" type="curve" smooth="yes"/>
			<point x="122" y="165"/>
			<point x="141" y="139"/>
			<point x="172" y="114" type="curve" smooth="yes"/>
			<point x="199" y="92"/>
			<point x="230" y="82"/>
			<point x="264" y="82" type="curve" smooth="yes"/>
			<point x="295" y="82" type="line" smooth="yes"/>
			<point x="349" y="82"/>
			<point x="381" y="128"/>
			<point x="381" y="189" type="curve"/>
			<point x="454" y="189" type="line"/>
			<point x="454" y="122"/>
			<point x="491" y="81"/>
			<point x="559" y="81" type="curve" smooth="yes"/>
			<point x="653" y="81"/>
			<point x="712" y="130"/>
			<point x="712" y="218" type="curve" smooth="yes"/>
			<point x="712" y="323"/>
			<point x="656" y="376"/>
			<point x="553" y="381" type="curve" smooth="yes"/>
			<point x="454" y="385" type="line"/>
			<point x="454" y="432" type="line" smooth="yes"/>
			<point x="454" y="556"/>
			<point x="519" y="645"/>
			<point x="639" y="645" type="curve" smooth="yes"/>
			<point x="712" y="645"/>
			<point x="759" y="615"/>
			<point x="786" y="572" type="curve" smooth="yes"/>
			<point x="804" y="542"/>
			<point x="818" y="497"/>
			<point x="808" y="454" type="curve"/>
			<point x="712" y="470" type="line"/>
			<point x="716" y="524"/>
			<point x="691" y="551"/>
			<point x="638" y="551" type="curve" smooth="yes"/>
			<point x="591" y="551"/>
			<point x="565" y="521"/>
			<point x="563" y="470" type="curve"/>
			<point x="720" y="470"/>
			<point x="813" y="383"/>
			<point x="813" y="220" type="curve" smooth="yes"/>
			<point x="813" y="65"/>
			<point x="718" y="-20"/>
			<point x="567" y="-20" type="curve" smooth="yes"/>
			<point x="492" y="-20"/>
			<point x="442" y="0"/>
			<point x="417" y="41" type="curve"/>
			<point x="396" y="4"/>
			<point x="358" y="-16"/>
			<point x="303" y="-19" type="curve" smooth="yes"/>
			<point x="289" y="-20"/>
			<point x="270" y="-20"/>
			<point x="246" y="-20" type="curve" smooth="yes"/>
			<point x="187" y="-20"/>
			<point x="123" y="10"/>
			<point x="89" y="42" type="curve" smooth="yes"/>
			<point x="44" y="84"/>
			<point x="21" y="142"/>
			<point x="21" y="214" type="curve" smooth="yes"/>
			<point x="21" y="378"/>
			<point x="108" y="470"/>
		</contour>
		<component base="rVocalicMatra-sinhala" xOffset="830"/>
	</outline>
</glyph>
<glyph name="lVocalic-sinhala" format="2">
	<unicode hex="0D8F"/>
	<advance width="1246"/>
	<outline>
		<contour>
			<point x="392" y="558" type="curve" smooth="yes"/>
			<point x="348" y="558"/>
			<point x="325" y="528"/>
			<point x="325" y="487" type="curve"/>
			<point x="326" y="477" type="line"/>
			<point x="230" y="461" type="line"/>
			<point x="228" y="469"/>
			<point x="227" y="478"/>
			<point x="227" y="489" type="curve"/>
			<point x="164" y="446"/>
			<point x="132" y="368"/>
			<point x="132" y="254" type="curve" smooth="yes"/>
			<point x="132" y="196"/>
			<point x="141" y="139"/>
			<point x="160" y="85" type="curve"/>
			<point x="68" y="71" type="line"/>
			<point x="47" y="126"/>
			<point x="36" y="180"/>
			<point x="36" y="236" type="curve" smooth="yes"/>
			<point x="36" y="357"/>
			<point x="72" y="455"/>
			<point x="128" y="526" type="curve" smooth="yes"/>
			<point x="185" y="599"/>
			<point x="274" y="656"/>
			<point x="401" y="656" type="curve" smooth="yes"/>
			<point x="522" y="656"/>
			<point x="585" y="564"/>
			<point x="585" y="439" type="curve" smooth="yes"/>
			<point x="585" y="392" type="line"/>
			<point x="485" y="392" type="line"/>
			<point x="408" y="385"/>
			<point x="368" y="360"/>
			<point x="342" y="310" type="curve" smooth="yes"/>
			<point x="331" y="289"/>
			<point x="326" y="263"/>
			<point x="326" y="232" type="curve" smooth="yes"/>
			<point x="326" y="173"/>
			<point x="345" y="137"/>
			<point x="376" y="112" type="curve" smooth="yes"/>
			<point x="403" y="90"/>
			<point x="434" y="80"/>
			<point x="468" y="80" type="curve" smooth="yes"/>
			<point x="775" y="80" type="line" smooth="yes"/>
			<point x="857" y="80"/>
			<point x="916" y="145"/>
			<point x="916" y="225" type="curve" smooth="yes"/>
			<point x="916" y="328"/>
			<point x="859" y="389"/>
			<point x="757" y="389" type="curve" smooth="yes"/>
			<point x="657" y="389" type="line"/>
			<point x="657" y="439" type="line" smooth="yes"/>
			<point x="657" y="563"/>
			<point x="720" y="656"/>
			<point x="839" y="656" type="curve" smooth="yes"/>
			<point x="962" y="656"/>
			<point x="1052" y="609"/>
			<point x="1110" y="541" type="curve" smooth="yes"/>
			<point x="1174" y="467"/>
			<point x="1205" y="372"/>
			<point x="1205" y="256" type="curve" smooth="yes"/>
			<point x="1205" y="197"/>
			<point x="1197" y="144"/>
			<point x="1181" y="94" type="curve" smooth="yes"/>
			<point x="1178" y="84"/>
			<point x="1175" y="76"/>
			<point x="1174" y="71" type="curve"/>
			<point x="1082" y="85" type="line"/>
			<point x="1101" y="139"/>
			<point x="1110" y="196"/>
			<point x="1110" y="256" type="curve" smooth="yes"/>
			<point x="1110" y="368"/>
			<point x="1078" y="445"/>
			<point x="1015" y="489" type="curve"/>
			<point x="1015" y="478"/>
			<point x="1014" y="469"/>
			<point x="1012" y="461" type="curve"/>
			<point x="916" y="477" type="line"/>
			<point x="916" y="487" type="line" smooth="yes"/>
			<point x="916" y="528"/>
			<point x="893" y="558"/>
			<point x="849" y="558" type="curve" smooth="yes"/>
			<point x="795" y="558"/>
			<point x="768" y="532"/>
			<point x="766" y="477" type="curve"/>
			<point x="924" y="477"/>
			<point x="1017" y="389"/>
			<point x="1017" y="225" type="curve" smooth="yes"/>
			<point x="1017" y="143"/>
			<point x="991" y="88"/>
			<point x="949" y="48" type="curve" smooth="yes"/>
			<point x="906" y="7"/>
			<point x="848" y="-13"/>
			<point x="776" y="-13" type="curve" smooth="yes"/>
			<point x="468" y="-13" type="line" smooth="yes"/>
			<point x="323" y="-13"/>
			<point x="225" y="77"/>
			<point x="225" y="221" type="curve" smooth="yes"/>
			<point x="225" y="385"/>
			<point x="312" y="477"/>
			<point x="476" y="477" type="curve"/>
			<point x="474" y="532"/>
			<point x="446" y="558"/>
		</contour>
	</outline>
</glyph>
<glyph name="e-sinhala" format="2">
	<unicode hex="0D91"/>
	<advance width="1198"/>
	<outline>
		<contour>
			<point x="974" y="518" type="curve" smooth="yes"/>
			<point x="969" y="492"/>
			<point x="991" y="470"/>
			<point x="1016" y="470" type="curve" smooth="yes"/>
			<point x="1030" y="470"/>
			<point x="1040" y="474"/>
			<point x="1049" y="483" type="curve"/>
			<point x="1051" y="491"/>
			<point x="1052" y="511"/>
			<point x="1052" y="543" type="curve" smooth="yes"/>
			<point x="1052" y="603" type="line"/>
			<point x="1039" y="590"/>
			<point x="1022" y="579"/>
			<point x="1008" y="567" type="curve" smooth="yes"/>
			<point x="988" y="547"/>
			<point x="976" y="530"/>
		</contour>
		<contour>
			<point x="335" y="143" type="curve" smooth="yes"/>
			<point x="379" y="207"/>
			<point x="333" y="303"/>
			<point x="264" y="302" type="curve" smooth="yes"/>
			<point x="224" y="301"/>
			<point x="202" y="292"/>
			<point x="182" y="274" type="curve" smooth="yes"/>
			<point x="156" y="250"/>
			<point x="147" y="229"/>
			<point x="147" y="192" type="curve" smooth="yes"/>
			<point x="147" y="183"/>
			<point x="149" y="175"/>
			<point x="152" y="167" type="curve" smooth="yes"/>
			<point x="166" y="120"/>
			<point x="218" y="83"/>
			<point x="284" y="104" type="curve" smooth="yes"/>
			<point x="305" y="111"/>
			<point x="322" y="124"/>
		</contour>
		<contour>
			<point x="1151" y="536" type="line" smooth="yes"/>
			<point x="1151" y="421"/>
			<point x="1141" y="330"/>
			<point x="1102" y="245" type="curve" smooth="yes"/>
			<point x="1056" y="145"/>
			<point x="967" y="67"/>
			<point x="860" y="24" type="curve" smooth="yes"/>
			<point x="803" y="1"/>
			<point x="743" y="-10"/>
			<point x="678" y="-10" type="curve" smooth="yes"/>
			<point x="654" y="-10"/>
			<point x="630" y="-10"/>
			<point x="606" y="-6" type="curve" smooth="yes"/>
			<point x="562" y="2" type="line"/>
			<point x="563" y="322" type="line"/>
			<point x="525" y="317"/>
			<point x="441" y="322"/>
			<point x="411" y="328" type="curve"/>
			<point x="466" y="253"/>
			<point x="479" y="166"/>
			<point x="422" y="85" type="curve" smooth="yes"/>
			<point x="379" y="24"/>
			<point x="321" y="-7"/>
			<point x="248" y="-7" type="curve" smooth="yes"/>
			<point x="197" y="-7"/>
			<point x="151" y="10"/>
			<point x="111" y="44" type="curve" smooth="yes"/>
			<point x="38" y="110"/>
			<point x="19" y="214"/>
			<point x="76" y="310" type="curve" smooth="yes"/>
			<point x="129" y="399"/>
			<point x="228" y="437"/>
			<point x="380" y="430" type="curve" smooth="yes"/>
			<point x="498" y="425"/>
			<point x="567" y="424"/>
			<point x="587" y="429" type="curve" smooth="yes"/>
			<point x="653" y="446"/>
			<point x="712" y="496"/>
			<point x="709" y="573" type="curve"/>
			<point x="809" y="589" type="line"/>
			<point x="812" y="552"/>
			<point x="806" y="517"/>
			<point x="792" y="482" type="curve" smooth="yes"/>
			<point x="768" y="422"/>
			<point x="724" y="377"/>
			<point x="659" y="348" type="curve"/>
			<point x="659" y="87" type="line"/>
			<point x="716" y="84"/>
			<point x="769" y="92"/>
			<point x="818" y="112" type="curve" smooth="yes"/>
			<point x="946" y="164"/>
			<point x="1021" y="252"/>
			<point x="1042" y="375" type="curve"/>
			<point x="1037" y="374"/>
			<point x="1031" y="373"/>
			<point x="1026" y="373" type="curve" smooth="yes"/>
			<point x="1011" y="373" type="line" smooth="yes"/>
			<point x="972" y="373"/>
			<point x="938" y="389"/>
			<point x="909" y="421" type="curve" smooth="yes"/>
			<point x="845" y="495"/>
			<point x="881" y="579"/>
			<point x="942" y="638" type="curve" smooth="yes"/>
			<point x="953" y="649"/>
			<point x="963" y="656"/>
			<point x="975" y="666" type="curve" smooth="yes"/>
			<point x="1018" y="702"/>
			<point x="1030" y="715"/>
			<point x="1042" y="760" type="curve" smooth="yes"/>
			<point x="1048" y="785"/>
			<point x="1051" y="804"/>
			<point x="1051" y="816" type="curve"/>
			<point x="1149" y="816" type="line"/>
		</contour>
	</outline>
</glyph>
<glyph name="o-sinhala" format="2">
	<unicode hex="0D94"/>
	<advance width="907"/>
	<outline>
		<contour>
			<point x="301" y="282" type="curve" smooth="yes"/>
			<point x="332" y="282"/>
			<point x="362" y="319"/>
			<point x="359" y="353" type="curve" smooth="yes"/>
			<point x="356" y="384"/>
			<point x="335" y="406"/>
			<point x="295" y="417" type="curve" smooth="yes"/>
			<point x="271" y="421"/>
			<point x="248" y="417"/>
			<point x="226" y="404" type="curve" smooth="yes"/>
			<point x="180" y="378"/>
			<point x="152" y="337"/>
			<point x="142" y="281" type="curve" smooth="yes"/>
			<point x="135" y="237"/>
			<point x="143" y="196"/>
			<point x="165" y="158" type="curve" smooth="yes"/>
			<point x="194" y="107"/>
			<point x="257" y="69"/>
			<point x="329" y="100" type="curve" smooth="yes"/>
			<point x="353" y="110"/>
			<point x="372" y="127"/>
			<point x="387" y="150" type="curve"/>
			<point x="473" y="151" type="line"/>
			<point x="487" y="128"/>
			<point x="508" y="110"/>
			<point x="538" y="95" type="curve" smooth="yes"/>
			<point x="569" y="82"/>
			<point x="598" y="88"/>
			<point x="624" y="113" type="curve" smooth="yes"/>
			<point x="637" y="125"/>
			<point x="649" y="135"/>
			<point x="658" y="148" type="curve"/>
			<point x="590" y="190"/>
			<point x="536" y="265"/>
			<point x="534" y="364" type="curve" smooth="yes"/>
			<point x="533" y="416"/>
			<point x="546" y="466"/>
			<point x="576" y="514" type="curve" smooth="yes"/>
			<point x="585" y="528"/>
			<point x="597" y="543"/>
			<point x="612" y="558" type="curve"/>
			<point x="680" y="485" type="line"/>
			<point x="671" y="476"/>
			<point x="667" y="468"/>
			<point x="667" y="460" type="curve" smooth="yes"/>
			<point x="667" y="445"/>
			<point x="675" y="432"/>
			<point x="694" y="427" type="curve" smooth="yes"/>
			<point x="740" y="414"/>
			<point x="774" y="459"/>
			<point x="777" y="502" type="curve" smooth="yes"/>
			<point x="779" y="528"/>
			<point x="774" y="552"/>
			<point x="763" y="574" type="curve" smooth="yes"/>
			<point x="722" y="655"/>
			<point x="649" y="701"/>
			<point x="552" y="723" type="curve" smooth="yes"/>
			<point x="505" y="734"/>
			<point x="456" y="735"/>
			<point x="406" y="728" type="curve" smooth="yes"/>
			<point x="288" y="711"/>
			<point x="193" y="640"/>
			<point x="146" y="541" type="curve"/>
			<point x="56" y="583" type="line"/>
			<point x="115" y="707"/>
			<point x="232" y="802"/>
			<point x="389" y="826" type="curve" smooth="yes"/>
			<point x="531" y="848"/>
			<point x="654" y="808"/>
			<point x="739" y="750" type="curve" smooth="yes"/>
			<point x="787" y="717"/>
			<point x="824" y="675"/>
			<point x="849" y="625" type="curve" smooth="yes"/>
			<point x="867" y="587"/>
			<point x="876" y="543"/>
			<point x="876" y="493" type="curve" smooth="yes"/>
			<point x="876" y="403"/>
			<point x="801" y="324"/>
			<point x="702" y="326" type="curve" smooth="yes"/>
			<point x="668" y="327"/>
			<point x="653" y="336"/>
			<point x="635" y="346" type="curve"/>
			<point x="645" y="277"/>
			<point x="701" y="215"/>
			<point x="780" y="209" type="curve"/>
			<point x="778" y="110" type="line"/>
			<point x="763" y="108"/>
			<point x="743" y="93"/>
			<point x="718" y="66" type="curve" smooth="yes"/>
			<point x="709" y="57"/>
			<point x="699" y="46"/>
			<point x="688" y="36" type="curve" smooth="yes"/>
			<point x="656" y="5"/>
			<point x="615" y="-10"/>
			<point x="566" y="-10" type="curve" smooth="yes"/>
			<point x="517" y="-10"/>
			<point x="472" y="9"/>
			<point x="430" y="47" type="curve"/>
			<point x="372" y="-3"/>
			<point x="307" y="-20"/>
			<point x="236" y="-6" type="curve" smooth="yes"/>
			<point x="112" y="20"/>
			<point x="21" y="145"/>
			<point x="45" y="293" type="curve" smooth="yes"/>
			<point x="59" y="381"/>
			<point x="107" y="451"/>
			<point x="175" y="490" type="curve" smooth="yes"/>
			<point x="299" y="559"/>
			<point x="446" y="491"/>
			<point x="459" y="363" type="curve" smooth="yes"/>
			<point x="462" y="336"/>
			<point x="457" y="311"/>
			<point x="446" y="287" type="curve" smooth="yes"/>
			<point x="422" y="226"/>
			<point x="347" y="178"/>
			<point x="264" y="193" type="curve" smooth="yes"/>
			<point x="213" y="202"/>
			<point x="176" y="235"/>
			<point x="160" y="284" type="curve"/>
			<point x="240" y="321" type="line"/>
			<point x="248" y="293"/>
			<point x="268" y="280"/>
		</contour>
	</outline>
</glyph>
<glyph name="ka-sinhala" format="2">
	<unicode hex="0D9A"/>
	<advance width="1072"/>
	<outline>
		<contour>
			<point x="553" y="368" type="line" smooth="yes"/>
			<point x="553" y="435"/>
			<point x="569" y="570"/>
			<point x="600" y="642" type="curve"/>
			<point x="577" y="641"/>
			<point x="553" y="641"/>
			<point x="530" y="641" type="curve" smooth="yes"/>
			<point x="455" y="641" type="line" smooth="yes"/>
			<point x="395" y="641"/>
			<point x="342" y="634"/>
			<point x="342" y="578" type="curve" smooth="yes"/>
			<point x="342" y="564"/>
			<point x="353" y="540"/>
			<point x="387" y="540" type="curve" smooth="yes"/>
			<point x="419" y="540"/>
			<point x="428" y="551"/>
			<point x="446" y="567" type="curve"/>
			<point x="482" y="506" type="line"/>
			<point x="460" y="478"/>
			<point x="425" y="450"/>
			<point x="375" y="450" type="curve" smooth="yes"/>
			<point x="335" y="450"/>
			<point x="255" y="475"/>
			<point x="255" y="567" type="curve" smooth="yes"/>
			<point x="255" y="685"/>
			<point x="345" y="731"/>
			<point x="458" y="731" type="curve" smooth="yes"/>
			<point x="729" y="731" type="line"/>
			<point x="703" y="672" type="line"/>
			<point x="682" y="622"/>
			<point x="646" y="527"/>
			<point x="646" y="458" type="curve" smooth="yes"/>
			<point x="646" y="157" type="line"/>
			<point x="646" y="60"/>
			<point x="584" y="-13"/>
			<point x="487" y="-13" type="curve" smooth="yes"/>
			<point x="383" y="-13"/>
			<point x="366" y="91"/>
			<point x="362" y="127" type="curve"/>
			<point x="398" y="127" type="line"/>
			<point x="387" y="85"/>
			<point x="354" y="-13"/>
			<point x="236" y="-13" type="curve" smooth="yes"/>
			<point x="119" y="-13"/>
			<point x="26" y="76"/>
			<point x="26" y="202" type="curve" smooth="yes"/>
			<point x="26" y="353"/>
			<point x="135" y="433"/>
			<point x="285" y="433" type="curve" smooth="yes"/>
			<point x="759" y="433" type="line" smooth="yes"/>
			<point x="922" y="433"/>
			<point x="1047" y="351"/>
			<point x="1047" y="197" type="curve"/>
			<point x="1047" y="79"/>
			<point x="951" y="-13"/>
			<point x="837" y="-13" type="curve" smooth="yes"/>
			<point x="765" y="-13"/>
			<point x="708" y="24"/>
			<point x="674" y="67" type="curve"/>
			<point x="747" y="124" type="line"/>
			<point x="771" y="95"/>
			<point x="801" y="80"/>
			<point x="838" y="80" type="curve" smooth="yes"/>
			<point x="899" y="80"/>
			<point x="940" y="134"/>
			<point x="940" y="195" type="curve" smooth="yes"/>
			<point x="940" y="318"/>
			<point x="837" y="338"/>
			<point x="686" y="338" type="curve" smooth="yes"/>
			<point x="606" y="338" type="line"/>
			<point x="594" y="338"/>
			<point x="542" y="338"/>
			<point x="530" y="338" type="curve" smooth="yes"/>
			<point x="286" y="338" type="line" smooth="yes"/>
			<point x="209" y="338"/>
			<point x="118" y="320"/>
			<point x="118" y="208" type="curve" smooth="yes"/>
			<point x="118" y="129"/>
			<point x="165" y="80"/>
			<point x="234" y="80" type="curve" smooth="yes"/>
			<point x="302" y="80"/>
			<point x="336" y="143"/>
			<point x="336" y="174" type="curve"/>
			<point x="426" y="174" type="line"/>
			<point x="426" y="140"/>
			<point x="441" y="79"/>
			<point x="486" y="79" type="curve" smooth="yes"/>
			<point x="530" y="79"/>
			<point x="553" y="108"/>
			<point x="553" y="157" type="curve" smooth="yes"/>
		</contour>
	</outline>
</glyph>
<glyph name="ga-sinhala" format="2">
	<unicode hex="0D9C"/>
	<advance width="1071"/>
	<outline>
		<contour>
			<point x="903" y="326" type="curve" smooth="yes"/>
			<point x="903" y="413"/>
			<point x="854" y="533"/>
			<point x="731" y="533" type="curve" smooth="yes"/>
			<point x="632" y="533"/>
			<point x="604" y="467"/>
			<point x="583" y="319" type="curve" smooth="yes"/>
			<point x="559" y="148"/>
			<point x="504" y="-4"/>
			<point x="319" y="-4" type="curve" smooth="yes"/>
			<point x="172" y="-4"/>
			<point x="49" y="99"/>
			<point x="49" y="293" type="curve" smooth="yes"/>
			<point x="49" y="474"/>
			<point x="157" y="590"/>
			<point x="282" y="652" type="curve"/>
			<point x="341" y="584" type="line"/>
			<point x="246" y="531"/>
			<point x="139" y="445"/>
			<point x="139" y="294" type="curve" smooth="yes"/>
			<point x="139" y="194"/>
			<point x="200" y="99"/>
			<point x="319" y="99" type="curve" smooth="yes"/>
			<point x="418" y="99"/>
			<point x="476" y="198"/>
			<point x="484" y="331" type="curve" smooth="yes"/>
			<point x="493" y="495"/>
			<point x="573" y="635"/>
			<point x="731" y="635" type="curve" smooth="yes"/>
			<point x="923" y="635"/>
			<point x="995" y="450"/>
			<point x="995" y="328" type="curve" smooth="yes"/>
			<point x="995" y="182"/>
			<point x="928" y="-3"/>
			<point x="719" y="-3" type="curve"/>
			<point x="704" y="82" type="line"/>
			<point x="841" y="102"/>
			<point x="903" y="172"/>
		</contour>
	</outline>
</glyph>
<glyph name="nga-sinhala" format="2">
	<unicode hex="0D9E"/>
	<advance width="912"/>
	<outline>
		<contour>
			<point x="284" y="62" type="curve" smooth="yes"/>
			<point x="381" y="62"/>
			<point x="421" y="111"/>
			<point x="421" y="212" type="curve" smooth="yes"/>
			<point x="421" y="219" type="line"/>
			<point x="490" y="219" type="line"/>
			<point x="490" y="212" type="line" smooth="yes"/>
			<point x="490" y="112"/>
			<point x="533" y="62"/>
			<point x="619" y="62" type="curve" smooth="yes"/>
			<point x="735" y="62"/>
			<point x="793" y="159"/>
			<point x="793" y="353" type="curve" smooth="yes"/>
			<point x="793" y="640"/>
			<point x="672" y="784"/>
			<point x="430" y="784" type="curve" smooth="yes"/>
			<point x="314" y="784"/>
			<point x="211" y="757"/>
			<point x="120" y="702" type="curve"/>
			<point x="86" y="769" type="line"/>
			<point x="190" y="827"/>
			<point x="307" y="856"/>
			<point x="435" y="856" type="curve" smooth="yes"/>
			<point x="734" y="856"/>
			<point x="870" y="665"/>
			<point x="870" y="356" type="curve" smooth="yes"/>
			<point x="870" y="111"/>
			<point x="787" y="-11"/>
			<point x="620" y="-11" type="curve" smooth="yes"/>
			<point x="538" y="-11"/>
			<point x="493" y="25"/>
			<point x="454" y="79" type="curve"/>
			<point x="415" y="20"/>
			<point x="369" y="-11"/>
			<point x="281" y="-11" type="curve" smooth="yes"/>
			<point x="218" y="-11"/>
			<point x="168" y="6"/>
			<point x="131" y="41" type="curve" smooth="yes"/>
			<point x="94" y="78"/>
			<point x="76" y="125"/>
			<point x="76" y="183" type="curve" smooth="yes"/>
			<point x="76" y="241"/>
			<point x="94" y="287"/>
			<point x="128" y="321" type="curve" smooth="yes"/>
			<point x="162" y="355"/>
			<point x="218" y="383"/>
			<point x="297" y="406" type="curve"/>
			<point x="332" y="417" type="line" smooth="yes"/>
			<point x="380" y="431"/>
			<point x="430" y="439"/>
			<point x="430" y="489" type="curve" smooth="yes"/>
			<point x="430" y="514"/>
			<point x="415" y="531"/>
			<point x="386" y="542" type="curve" smooth="yes"/>
			<point x="357" y="553"/>
			<point x="313" y="559"/>
			<point x="254" y="559" type="curve" smooth="yes"/>
			<point x="251" y="559" type="line"/>
			<point x="266" y="536"/>
			<point x="273" y="510"/>
			<point x="273" y="478" type="curve" smooth="yes"/>
			<point x="273" y="410"/>
			<point x="214" y="371"/>
			<point x="144" y="371" type="curve" smooth="yes"/>
			<point x="73" y="371"/>
			<point x="26" y="413"/>
			<point x="26" y="482" type="curve" smooth="yes"/>
			<point x="26" y="527"/>
			<point x="46" y="562"/>
			<point x="86" y="588" type="curve" smooth="yes"/>
			<point x="126" y="614"/>
			<point x="185" y="627"/>
			<point x="262" y="627" type="curve" smooth="yes"/>
			<point x="423" y="627"/>
			<point x="504" y="581"/>
			<point x="504" y="489" type="curve" smooth="yes"/>
			<point x="504" y="450"/>
			<point x="489" y="421"/>
			<point x="460" y="400" type="curve" smooth="yes"/>
			<point x="438" y="384"/>
			<point x="393" y="366"/>
			<point x="326" y="347" type="curve" smooth="yes"/>
			<point x="263" y="331"/>
			<point x="219" y="310"/>
			<point x="192" y="285" type="curve" smooth="yes"/>
			<point x="165" y="260"/>
			<point x="151" y="227"/>
			<point x="151" y="187" type="curve" smooth="yes"/>
			<point x="151" y="104"/>
			<point x="195" y="62"/>
		</contour>
		<contour>
			<point x="183" y="554" type="curve"/>
			<point x="139" y="548"/>
			<point x="98" y="530"/>
			<point x="98" y="488" type="curve" smooth="yes"/>
			<point x="98" y="454"/>
			<point x="115" y="437"/>
			<point x="150" y="437" type="curve" smooth="yes"/>
			<point x="185" y="437"/>
			<point x="203" y="454"/>
			<point x="203" y="489" type="curve" smooth="yes"/>
			<point x="203" y="516"/>
			<point x="196" y="538"/>
		</contour>
	</outline>
</glyph>
<glyph name="ca-sinhala" format="2">
	<unicode hex="0DA0"/>
	<advance width="834"/>
	<outline>
		<contour>
			<point x="401" y="466" type="line"/>
			<point x="397" y="523"/>
			<point x="365" y="559"/>
			<point x="306" y="559" type="curve" smooth="yes"/>
			<point x="253" y="559"/>
			<point x="227" y="540"/>
			<point x="227" y="502" type="curve" smooth="yes"/>
			<point x="227" y="496" type="line" smooth="yes"/>
			<point x="227" y="493"/>
			<point x="227" y="490"/>
			<point x="228" y="489" type="curve"/>
			<point x="155" y="485" type="line"/>
			<point x="154" y="493"/>
			<point x="153" y="501"/>
			<point x="153" y="508" type="curve" smooth="yes"/>
			<point x="153" y="593"/>
			<point x="217" y="627"/>
			<point x="308" y="627" type="curve" smooth="yes"/>
			<point x="417" y="627"/>
			<point x="473" y="554"/>
			<point x="473" y="440" type="curve" smooth="yes"/>
			<point x="473" y="398" type="line"/>
			<point x="385" y="398" type="line" smooth="yes"/>
			<point x="327" y="398"/>
			<point x="285" y="396"/>
			<point x="258" y="391" type="curve" smooth="yes"/>
			<point x="178" y="377"/>
			<point x="124" y="325"/>
			<point x="124" y="238" type="curve" smooth="yes"/>
			<point x="124" y="112"/>
			<point x="230" y="62"/>
			<point x="365" y="62" type="curve" smooth="yes"/>
			<point x="517" y="62"/>
			<point x="621" y="118"/>
			<point x="678" y="231" type="curve" smooth="yes"/>
			<point x="706" y="287"/>
			<point x="720" y="352"/>
			<point x="720" y="428" type="curve" smooth="yes"/>
			<point x="720" y="582"/>
			<point x="660" y="691"/>
			<point x="557" y="743" type="curve" smooth="yes"/>
			<point x="506" y="770"/>
			<point x="450" y="784"/>
			<point x="389" y="784" type="curve" smooth="yes"/>
			<point x="252" y="784"/>
			<point x="175" y="756"/>
			<point x="82" y="702" type="curve"/>
			<point x="49" y="769" type="line"/>
			<point x="151" y="827"/>
			<point x="262" y="856"/>
			<point x="383" y="856" type="curve" smooth="yes"/>
			<point x="558" y="856"/>
			<point x="685" y="777"/>
			<point x="747" y="658" type="curve" smooth="yes"/>
			<point x="780" y="594"/>
			<point x="797" y="517"/>
			<point x="797" y="428" type="curve" smooth="yes"/>
			<point x="797" y="243"/>
			<point x="724" y="109"/>
			<point x="602" y="42" type="curve" smooth="yes"/>
			<point x="538" y="7"/>
			<point x="460" y="-11"/>
			<point x="369" y="-11" type="curve" smooth="yes"/>
			<point x="193" y="-11"/>
			<point x="47" y="68"/>
			<point x="50" y="232" type="curve" smooth="yes"/>
			<point x="50" y="310"/>
			<point x="82" y="367"/>
			<point x="146" y="402" type="curve"/>
			<point x="123" y="399"/>
			<point x="93" y="398"/>
			<point x="56" y="398" type="curve" smooth="yes"/>
			<point x="31" y="398" type="line"/>
			<point x="31" y="466" type="line"/>
		</contour>
	</outline>
</glyph>
<glyph name="cha-sinhala" format="2">
	<unicode hex="0DA1"/>
	<advance width="819"/>
	<outline>
		<contour>
			<point x="315" y="466" type="line"/>
			<point x="311" y="523"/>
			<point x="280" y="559"/>
			<point x="220" y="559" type="curve" smooth="yes"/>
			<point x="168" y="559"/>
			<point x="142" y="539"/>
			<point x="142" y="499" type="curve" smooth="yes"/>
			<point x="142" y="490"/>
			<point x="143" y="479"/>
			<point x="146" y="468" type="curve"/>
			<point x="74" y="457" type="line"/>
			<point x="69" y="476"/>
			<point x="67" y="493"/>
			<point x="67" y="508" type="curve" smooth="yes"/>
			<point x="67" y="593"/>
			<point x="130" y="627"/>
			<point x="222" y="627" type="curve" smooth="yes"/>
			<point x="332" y="627"/>
			<point x="388" y="554"/>
			<point x="388" y="440" type="curve" smooth="yes"/>
			<point x="388" y="398" type="line"/>
			<point x="300" y="398" type="line" smooth="yes"/>
			<point x="180" y="398"/>
			<point x="112" y="364"/>
			<point x="112" y="253" type="curve" smooth="yes"/>
			<point x="112" y="194"/>
			<point x="138" y="147"/>
			<point x="188" y="113" type="curve" smooth="yes"/>
			<point x="238" y="79"/>
			<point x="311" y="62"/>
			<point x="407" y="62" type="curve" smooth="yes"/>
			<point x="567" y="62"/>
			<point x="707" y="113"/>
			<point x="707" y="258" type="curve" smooth="yes"/>
			<point x="707" y="280"/>
			<point x="705" y="298"/>
			<point x="701" y="312" type="curve"/>
			<point x="672" y="265"/>
			<point x="626" y="241"/>
			<point x="564" y="241" type="curve" smooth="yes"/>
			<point x="468" y="241"/>
			<point x="420" y="318"/>
			<point x="420" y="430" type="curve" smooth="yes"/>
			<point x="420" y="515"/>
			<point x="450" y="592"/>
			<point x="511" y="663" type="curve" smooth="yes"/>
			<point x="573" y="734"/>
			<point x="657" y="789"/>
			<point x="762" y="829" type="curve"/>
			<point x="792" y="765" type="line"/>
			<point x="687" y="726"/>
			<point x="605" y="675"/>
			<point x="548" y="612" type="curve"/>
			<point x="566" y="622"/>
			<point x="584" y="627"/>
			<point x="603" y="627" type="curve" smooth="yes"/>
			<point x="697" y="627"/>
			<point x="740" y="557"/>
			<point x="740" y="460" type="curve" smooth="yes"/>
			<point x="740" y="435"/>
			<point x="738" y="413"/>
			<point x="734" y="394" type="curve"/>
			<point x="766" y="360"/>
			<point x="782" y="314"/>
			<point x="782" y="257" type="curve" smooth="yes"/>
			<point x="782" y="59"/>
			<point x="619" y="-11"/>
			<point x="404" y="-11" type="curve" smooth="yes"/>
			<point x="280" y="-11"/>
			<point x="188" y="12"/>
			<point x="128" y="60" type="curve" smooth="yes"/>
			<point x="68" y="108"/>
			<point x="37" y="174"/>
			<point x="37" y="257" type="curve" smooth="yes"/>
			<point x="37" y="396"/>
			<point x="124" y="466"/>
			<point x="299" y="466" type="curve" smooth="yes"/>
		</contour>
		<contour>
			<point x="518" y="466" type="line" smooth="yes"/>
			<point x="577" y="466"/>
			<point x="627" y="457"/>
			<point x="668" y="440" type="curve"/>
			<point x="668" y="444"/>
			<point x="668" y="447"/>
			<point x="669" y="448" type="curve" smooth="yes"/>
			<point x="669" y="457" type="line" smooth="yes"/>
			<point x="669" y="528"/>
			<point x="641" y="564"/>
			<point x="585" y="564" type="curve" smooth="yes"/>
			<point x="527" y="564"/>
			<point x="496" y="520"/>
			<point x="489" y="466" type="curve"/>
		</contour>
		<contour>
			<point x="489" y="398" type="line"/>
			<point x="493" y="344"/>
			<point x="511" y="309"/>
			<point x="572" y="309" type="curve" smooth="yes"/>
			<point x="614" y="309"/>
			<point x="642" y="329"/>
			<point x="656" y="368" type="curve"/>
			<point x="626" y="388"/>
			<point x="577" y="398"/>
			<point x="509" y="398" type="curve" smooth="yes"/>
		</contour>
	</outline>
</glyph>
<glyph name="ja-sinhala" format="2">
	<unicode hex="0DA2"/>
	<advance width="869"/>
	<outline>
		<contour>
			<point x="563" y="147" type="line"/>
			<point x="578" y="103"/>
			<point x="615" y="72"/>
			<point x="651" y="72" type="curve" smooth="yes"/>
			<point x="683" y="72"/>
			<point x="706" y="88"/>
			<point x="706" y="106" type="curve" smooth="yes"/>
			<point x="706" y="127"/>
			<point x="692" y="146"/>
			<point x="661" y="146" type="curve" smooth="yes"/>
			<point x="630" y="146"/>
			<point x="590" y="126"/>
			<point x="561" y="109" type="curve" smooth="yes"/>
			<point x="441" y="36" type="line" smooth="yes"/>
			<point x="378" y="-2"/>
			<point x="307" y="-24"/>
			<point x="256" y="-24" type="curve" smooth="yes"/>
			<point x="133" y="-24"/>
			<point x="49" y="46"/>
			<point x="49" y="155" type="curve" smooth="yes"/>
			<point x="49" y="309"/>
			<point x="182" y="365"/>
			<point x="301" y="365" type="curve" smooth="yes"/>
			<point x="432" y="365" type="line" smooth="yes"/>
			<point x="533" y="365"/>
			<point x="647" y="386"/>
			<point x="690" y="461" type="curve"/>
			<point x="703" y="436" type="line"/>
			<point x="583" y="403"/>
			<point x="515" y="480"/>
			<point x="515" y="551" type="curve" smooth="yes"/>
			<point x="515" y="689"/>
			<point x="627" y="780"/>
			<point x="775" y="805" type="curve" smooth="yes"/>
			<point x="819" y="813"/>
			<point x="856" y="816"/>
			<point x="886" y="814" type="curve"/>
			<point x="884" y="716" type="line"/>
			<point x="749" y="722"/>
			<point x="596" y="658"/>
			<point x="596" y="560" type="curve" smooth="yes"/>
			<point x="596" y="535"/>
			<point x="620" y="508"/>
			<point x="646" y="508" type="curve" smooth="yes"/>
			<point x="672" y="508"/>
			<point x="688" y="519"/>
			<point x="688" y="544" type="curve" smooth="yes"/>
			<point x="688" y="569"/>
			<point x="672" y="606"/>
			<point x="586" y="606" type="curve" smooth="yes"/>
			<point x="557" y="606"/>
			<point x="460" y="584"/>
			<point x="460" y="488" type="curve"/>
			<point x="460" y="473" type="line"/>
			<point x="355" y="475" type="line"/>
			<point x="355" y="489" type="line"/>
			<point x="355" y="556"/>
			<point x="302" y="611"/>
			<point x="233" y="611" type="curve" smooth="yes"/>
			<point x="179" y="611"/>
			<point x="153" y="585"/>
			<point x="153" y="556" type="curve" smooth="yes"/>
			<point x="153" y="532"/>
			<point x="176" y="516"/>
			<point x="199" y="516" type="curve" smooth="yes"/>
			<point x="210" y="516"/>
			<point x="221" y="521"/>
			<point x="231" y="532" type="curve"/>
			<point x="304" y="469" type="line"/>
			<point x="276" y="437"/>
			<point x="235" y="419"/>
			<point x="195" y="419" type="curve" smooth="yes"/>
			<point x="121" y="419"/>
			<point x="62" y="480"/>
			<point x="62" y="555" type="curve" smooth="yes"/>
			<point x="62" y="647"/>
			<point x="135" y="706"/>
			<point x="229" y="706" type="curve" smooth="yes"/>
			<point x="294" y="706"/>
			<point x="355" y="670"/>
			<point x="408" y="604" type="curve"/>
			<point x="458" y="672"/>
			<point x="518" y="700"/>
			<point x="596" y="700" type="curve" smooth="yes"/>
			<point x="741" y="700"/>
			<point x="791" y="587"/>
			<point x="791" y="516" type="curve" smooth="yes"/>
			<point x="791" y="333"/>
			<point x="633" y="276"/>
			<point x="416" y="271" type="curve"/>
			<point x="306" y="271" type="line"/>
			<point x="194" y="271"/>
			<point x="147" y="229"/>
			<point x="147" y="166" type="curve" smooth="yes"/>
			<point x="147" y="118"/>
			<point x="190" y="76"/>
			<point x="256" y="76" type="curve" smooth="yes"/>
			<point x="305" y="76"/>
			<point x="359" y="96"/>
			<point x="406" y="126" type="curve" smooth="yes"/>
			<point x="496" y="184" type="line" smooth="yes"/>
			<point x="532" y="207"/>
			<point x="595" y="244"/>
			<point x="663" y="244" type="curve" smooth="yes"/>
			<point x="753" y="244"/>
			<point x="804" y="185"/>
			<point x="804" y="106" type="curve" smooth="yes"/>
			<point x="804" y="32"/>
			<point x="736" y="-26"/>
			<point x="655" y="-26" type="curve" smooth="yes"/>
			<point x="574" y="-26"/>
			<point x="504" y="26"/>
			<point x="483" y="88" type="curve"/>
		</contour>
	</outline>
</glyph>
<glyph name="jha-sinhala" format="2">
	<unicode hex="0DA3"/>
	<advance width="1747"/>
	<outline>
		<contour>
			<point x="988" y="764" type="curve"/>
			<point x="1001" y="856" type="line"/>
			<point x="1488" y="856"/>
			<point x="1617" y="657"/>
			<point x="1617" y="356" type="curve" smooth="yes"/>
			<point x="1617" y="111"/>
			<point x="1536" y="-11"/>
			<point x="1373" y="-11" type="curve" smooth="yes"/>
			<point x="1293" y="-11"/>
			<point x="1249" y="25"/>
			<point x="1212" y="79" type="curve"/>
			<point x="1166" y="13"/>
			<point x="1123" y="-11"/>
			<point x="1043" y="-11" type="curve" smooth="yes"/>
			<point x="969" y="-11"/>
			<point x="839" y="34"/>
			<point x="839" y="229" type="curve" smooth="yes"/>
			<point x="839" y="408"/>
			<point x="944" y="510"/>
			<point x="1017" y="510" type="curve" smooth="yes"/>
			<point x="1072" y="510"/>
			<point x="1075" y="502"/>
			<point x="1143" y="502" type="curve"/>
			<point x="1117" y="427" type="line"/>
			<point x="1000" y="421"/>
			<point x="919" y="389"/>
			<point x="919" y="230" type="curve" smooth="yes"/>
			<point x="919" y="131"/>
			<point x="957" y="92"/>
			<point x="1050" y="92" type="curve" smooth="yes"/>
			<point x="1135" y="92"/>
			<point x="1178" y="132"/>
			<point x="1178" y="232" type="curve" smooth="yes"/>
			<point x="1178" y="239" type="line"/>
			<point x="1246" y="239" type="line"/>
			<point x="1246" y="232" type="line" smooth="yes"/>
			<point x="1246" y="132"/>
			<point x="1288" y="82"/>
			<point x="1371" y="82" type="curve" smooth="yes"/>
			<point x="1483" y="82"/>
			<point x="1530" y="169"/>
			<point x="1530" y="363" type="curve" smooth="yes"/>
			<point x="1530" y="650"/>
			<point x="1332" y="764"/>
		</contour>
		<contour>
			<point x="561" y="79" type="curve" smooth="yes"/>
			<point x="605" y="79"/>
			<point x="629" y="108"/>
			<point x="629" y="157" type="curve" smooth="yes"/>
			<point x="629" y="339" type="line"/>
			<point x="617" y="339"/>
			<point x="617" y="339"/>
			<point x="605" y="339" type="curve" smooth="yes"/>
			<point x="491" y="338" type="line" smooth="yes"/>
			<point x="344" y="337"/>
			<point x="193" y="320"/>
			<point x="193" y="208" type="curve" smooth="yes"/>
			<point x="193" y="129"/>
			<point x="263" y="80"/>
			<point x="342" y="80" type="curve" smooth="yes"/>
			<point x="375" y="80"/>
			<point x="411" y="98"/>
			<point x="411" y="129" type="curve"/>
			<point x="501" y="129" type="line" smooth="yes"/>
			<point x="514" y="129"/>
			<point x="507" y="79"/>
		</contour>
		<contour>
			<point x="392" y="587" type="curve" smooth="yes"/>
			<point x="392" y="563"/>
			<point x="412" y="545"/>
			<point x="436" y="545" type="curve" smooth="yes"/>
			<point x="458" y="545"/>
			<point x="473" y="555"/>
			<point x="480" y="576" type="curve"/>
			<point x="562" y="538" type="line"/>
			<point x="542" y="481"/>
			<point x="509" y="455"/>
			<point x="432" y="455" type="curve" smooth="yes"/>
			<point x="359" y="455"/>
			<point x="300" y="515"/>
			<point x="300" y="587" type="curve" smooth="yes"/>
			<point x="300" y="685"/>
			<point x="380" y="731"/>
			<point x="483" y="731" type="curve" smooth="yes"/>
			<point x="814" y="731" type="line"/>
			<point x="788" y="672" type="line"/>
			<point x="767" y="612"/>
			<point x="723" y="528"/>
			<point x="723" y="458" type="curve" smooth="yes"/>
			<point x="723" y="433" type="line"/>
			<point x="936" y="433" type="line"/>
			<point x="863" y="338" type="line"/>
			<point x="724" y="338" type="line"/>
			<point x="721" y="157" type="line"/>
			<point x="721" y="60"/>
			<point x="659" y="-13"/>
			<point x="562" y="-13" type="curve" smooth="yes"/>
			<point x="519" y="-13"/>
			<point x="483" y="1"/>
			<point x="456" y="28" type="curve"/>
			<point x="425" y="1"/>
			<point x="390" y="-13"/>
			<point x="351" y="-13" type="curve" smooth="yes"/>
			<point x="214" y="-13"/>
			<point x="101" y="76"/>
			<point x="101" y="202" type="curve" smooth="yes"/>
			<point x="101" y="373"/>
			<point x="270" y="433"/>
			<point x="490" y="433" type="curve" smooth="yes"/>
			<point x="629" y="433" type="line"/>
			<point x="629" y="500"/>
			<point x="644" y="570"/>
			<point x="675" y="642" type="curve"/>
			<point x="652" y="641"/>
			<point x="628" y="641"/>
			<point x="605" y="641" type="curve" smooth="yes"/>
			<point x="500" y="641" type="line" smooth="yes"/>
			<point x="440" y="641"/>
			<point x="392" y="633"/>
		</contour>
	</outline>
</glyph>
<glyph name="nya-sinhala" format="2">
	<unicode hex="0DA4"/>
	<advance width="1329"/>
	<outline>
		<contour>
			<point x="619" y="729" type="line"/>
			<point x="630" y="661" type="line"/>
			<point x="517" y="660" type="line"/>
			<point x="339" y="660"/>
			<point x="122" y="604"/>
			<point x="122" y="440" type="curve" smooth="yes"/>
			<point x="122" y="352"/>
			<point x="144" y="298"/>
			<point x="198" y="223" type="curve"/>
			<point x="132" y="184" type="line"/>
			<point x="75" y="266"/>
			<point x="47" y="350"/>
			<point x="47" y="436" type="curve" smooth="yes"/>
			<point x="47" y="604"/>
			<point x="193" y="734"/>
			<point x="469" y="734" type="curve"/>
		</contour>
		<contour>
			<point x="661" y="79" type="curve" smooth="yes"/>
			<point x="705" y="79"/>
			<point x="729" y="108"/>
			<point x="729" y="157" type="curve" smooth="yes"/>
			<point x="729" y="339" type="line"/>
			<point x="717" y="339"/>
			<point x="717" y="339"/>
			<point x="705" y="339" type="curve" smooth="yes"/>
			<point x="591" y="338" type="line" smooth="yes"/>
			<point x="444" y="337"/>
			<point x="293" y="320"/>
			<point x="293" y="208" type="curve" smooth="yes"/>
			<point x="293" y="129"/>
			<point x="363" y="80"/>
			<point x="442" y="80" type="curve" smooth="yes"/>
			<point x="475" y="80"/>
			<point x="511" y="98"/>
			<point x="511" y="129" type="curve"/>
			<point x="601" y="129" type="line" smooth="yes"/>
			<point x="614" y="129"/>
			<point x="607" y="79"/>
		</contour>
		<contour>
			<point x="492" y="587" type="curve" smooth="yes"/>
			<point x="492" y="563"/>
			<point x="512" y="545"/>
			<point x="536" y="545" type="curve" smooth="yes"/>
			<point x="558" y="545"/>
			<point x="573" y="555"/>
			<point x="580" y="576" type="curve"/>
			<point x="662" y="538" type="line"/>
			<point x="642" y="481"/>
			<point x="609" y="455"/>
			<point x="532" y="455" type="curve" smooth="yes"/>
			<point x="459" y="455"/>
			<point x="400" y="515"/>
			<point x="400" y="587" type="curve" smooth="yes"/>
			<point x="400" y="685"/>
			<point x="480" y="731"/>
			<point x="583" y="731" type="curve" smooth="yes"/>
			<point x="914" y="731" type="line"/>
			<point x="888" y="672" type="line"/>
			<point x="867" y="612"/>
			<point x="823" y="528"/>
			<point x="823" y="458" type="curve" smooth="yes"/>
			<point x="823" y="433" type="line"/>
			<point x="1036" y="433" type="line"/>
			<point x="963" y="338" type="line"/>
			<point x="824" y="338" type="line"/>
			<point x="821" y="157" type="line"/>
			<point x="821" y="60"/>
			<point x="759" y="-13"/>
			<point x="662" y="-13" type="curve" smooth="yes"/>
			<point x="619" y="-13"/>
			<point x="583" y="1"/>
			<point x="556" y="28" type="curve"/>
			<point x="525" y="1"/>
			<point x="490" y="-13"/>
			<point x="451" y="-13" type="curve" smooth="yes"/>
			<point x="314" y="-13"/>
			<point x="201" y="76"/>
			<point x="201" y="202" type="curve" smooth="yes"/>
			<point x="201" y="373"/>
			<point x="370" y="433"/>
			<point x="590" y="433" type="curve" smooth="yes"/>
			<point x="729" y="433" type="line"/>
			<point x="729" y="500"/>
			<point x="744" y="570"/>
			<point x="775" y="642" type="curve"/>
			<point x="752" y="641"/>
			<point x="728" y="641"/>
			<point x="705" y="641" type="curve" smooth="yes"/>
			<point x="600" y="641" type="line" smooth="yes"/>
			<point x="540" y="641"/>
			<point x="492" y="633"/>
		</contour>
		<component base="da-sinhala" xOffset="828" yOffset="-181"/>
	</outline>
</glyph>
<glyph name="jnya-sinhala" format="2">
	<unicode hex="0DA5"/>
	<advance width="1198"/>
	<outline>
		<contour>
			<point x="478" y="62" type="curve" smooth="yes"/>
			<point x="594" y="62"/>
			<point x="673" y="116"/>
			<point x="673" y="225" type="curve" smooth="yes"/>
			<point x="673" y="274"/>
			<point x="657" y="298"/>
			<point x="624" y="298" type="curve" smooth="yes"/>
			<point x="605" y="298"/>
			<point x="587" y="292"/>
			<point x="572" y="280" type="curve"/>
			<point x="499" y="303" type="line"/>
			<point x="530" y="494"/>
			<point x="635" y="627"/>
			<point x="842" y="627" type="curve" smooth="yes"/>
			<point x="873" y="627"/>
			<point x="904" y="625"/>
			<point x="933" y="621" type="curve"/>
			<point x="949" y="625"/>
			<point x="968" y="627"/>
			<point x="991" y="627" type="curve" smooth="yes"/>
			<point x="1108" y="627"/>
			<point x="1168" y="559"/>
			<point x="1168" y="440" type="curve" smooth="yes"/>
			<point x="1168" y="398" type="line"/>
			<point x="1010" y="398" type="line" smooth="yes"/>
			<point x="952" y="398"/>
			<point x="908" y="396"/>
			<point x="878" y="390" type="curve" smooth="yes"/>
			<point x="798" y="375"/>
			<point x="745" y="327"/>
			<point x="745" y="237" type="curve" smooth="yes"/>
			<point x="745" y="114"/>
			<point x="843" y="62"/>
			<point x="973" y="62" type="curve" smooth="yes"/>
			<point x="1046" y="62"/>
			<point x="1111" y="77"/>
			<point x="1169" y="106" type="curve"/>
			<point x="1191" y="37" type="line"/>
			<point x="1162" y="22"/>
			<point x="1129" y="10"/>
			<point x="1093" y="1" type="curve"/>
			<point x="1049" y="-35"/>
			<point x="1027" y="-76"/>
			<point x="1027" y="-122" type="curve" smooth="yes"/>
			<point x="1027" y="-179"/>
			<point x="1060" y="-208"/>
			<point x="1125" y="-208" type="curve" smooth="yes"/>
			<point x="1152" y="-208"/>
			<point x="1176" y="-203"/>
			<point x="1197" y="-192" type="curve"/>
			<point x="1214" y="-258" type="line"/>
			<point x="1183" y="-271"/>
			<point x="1146" y="-278"/>
			<point x="1101" y="-278" type="curve" smooth="yes"/>
			<point x="1012" y="-278"/>
			<point x="951" y="-219"/>
			<point x="951" y="-130" type="curve" smooth="yes"/>
			<point x="951" y="-85"/>
			<point x="965" y="-46"/>
			<point x="994" y="-11" type="curve"/>
			<point x="970" y="-11" type="line" smooth="yes"/>
			<point x="841" y="-11"/>
			<point x="754" y="29"/>
			<point x="710" y="108" type="curve"/>
			<point x="670" y="29"/>
			<point x="594" y="-11"/>
			<point x="482" y="-11" type="curve" smooth="yes"/>
			<point x="303" y="-11"/>
			<point x="200" y="100"/>
			<point x="200" y="280" type="curve" smooth="yes"/>
			<point x="200" y="437"/>
			<point x="301" y="536"/>
			<point x="444" y="555" type="curve"/>
			<point x="424" y="559"/>
			<point x="396" y="561"/>
			<point x="359" y="561" type="curve" smooth="yes"/>
			<point x="209" y="561"/>
			<point x="113" y="460"/>
			<point x="113" y="310" type="curve" smooth="yes"/>
			<point x="113" y="234"/>
			<point x="131" y="171"/>
			<point x="166" y="119" type="curve"/>
			<point x="99" y="85" type="line"/>
			<point x="58" y="158"/>
			<point x="38" y="234"/>
			<point x="38" y="315" type="curve" smooth="yes"/>
			<point x="38" y="508"/>
			<point x="166" y="627"/>
			<point x="359" y="627" type="curve" smooth="yes"/>
			<point x="423" y="627"/>
			<point x="482" y="611"/>
			<point x="536" y="580" type="curve"/>
			<point x="509" y="508" type="line"/>
			<point x="370" y="503"/>
			<point x="277" y="419"/>
			<point x="277" y="276" type="curve" smooth="yes"/>
			<point x="277" y="140"/>
			<point x="346" y="62"/>
		</contour>
		<contour>
			<point x="998" y="559" type="curve" smooth="yes"/>
			<point x="951" y="559"/>
			<point x="915" y="544"/>
			<point x="915" y="503" type="curve" smooth="yes"/>
			<point x="915" y="498"/>
			<point x="916" y="493"/>
			<point x="917" y="488" type="curve"/>
			<point x="843" y="479" type="line"/>
			<point x="842" y="490"/>
			<point x="841" y="503"/>
			<point x="841" y="518" type="curve" smooth="yes"/>
			<point x="841" y="533"/>
			<point x="845" y="547"/>
			<point x="853" y="561" type="curve"/>
			<point x="845" y="561" type="line" smooth="yes"/>
			<point x="698" y="561"/>
			<point x="615" y="477"/>
			<point x="580" y="357" type="curve"/>
			<point x="594" y="363"/>
			<point x="613" y="366"/>
			<point x="636" y="366" type="curve" smooth="yes"/>
			<point x="659" y="366"/>
			<point x="679" y="357"/>
			<point x="698" y="338" type="curve"/>
			<point x="722" y="395"/>
			<point x="780" y="433"/>
			<point x="848" y="451" type="curve" smooth="yes"/>
			<point x="886" y="461"/>
			<point x="939" y="466"/>
			<point x="1008" y="466" type="curve" smooth="yes"/>
			<point x="1095" y="466" type="line"/>
			<point x="1091" y="523"/>
			<point x="1058" y="559"/>
		</contour>
	</outline>
</glyph>
<glyph name="nyja-sinhala" format="2">
	<unicode hex="0DA6"/>
	<advance width="1006"/>
	<outline>
		<contour>
			<point x="45" y="253" type="line"/>
			<point x="36" y="333"/>
			<point x="32" y="399"/>
			<point x="32" y="451" type="curve" smooth="yes"/>
			<point x="32" y="540"/>
			<point x="45" y="592"/>
			<point x="82" y="634" type="curve" smooth="yes"/>
			<point x="121" y="678"/>
			<point x="185" y="694"/>
			<point x="261" y="675" type="curve" smooth="yes"/>
			<point x="281" y="669"/>
			<point x="260" y="633"/>
			<point x="260" y="623" type="curve"/>
			<point x="238" y="618" type="line" smooth="yes"/>
			<point x="199" y="609"/>
			<point x="166" y="592"/>
			<point x="140" y="564" type="curve" smooth="yes"/>
			<point x="125" y="548"/>
			<point x="118" y="528"/>
			<point x="118" y="503" type="curve" smooth="yes"/>
			<point x="118" y="438"/>
			<point x="118" y="373"/>
			<point x="120" y="306" type="curve" smooth="yes"/>
			<point x="121" y="286" type="line"/>
		</contour>
		<contour>
			<point x="685" y="560" type="curve" smooth="yes"/>
			<point x="685" y="535"/>
			<point x="706" y="514"/>
			<point x="732" y="514" type="curve" smooth="yes"/>
			<point x="758" y="514"/>
			<point x="777" y="535"/>
			<point x="777" y="560" type="curve" smooth="yes"/>
			<point x="777" y="585"/>
			<point x="758" y="606"/>
			<point x="732" y="606" type="curve" smooth="yes"/>
			<point x="706" y="606"/>
			<point x="685" y="585"/>
		</contour>
		<contour>
			<point x="786" y="122" type="curve" smooth="yes"/>
			<point x="765" y="155"/>
			<point x="717" y="152"/>
			<point x="668" y="127" type="curve"/>
			<point x="681" y="97"/>
			<point x="701" y="80"/>
			<point x="729" y="74" type="curve" smooth="yes"/>
			<point x="749" y="69"/>
			<point x="766" y="72"/>
			<point x="780" y="84" type="curve" smooth="yes"/>
			<point x="791" y="93"/>
			<point x="795" y="107"/>
		</contour>
		<contour>
			<point x="389" y="469" type="line"/>
			<point x="336" y="408"/>
			<point x="240" y="400"/>
			<point x="182" y="461" type="curve" smooth="yes"/>
			<point x="138" y="503"/>
			<point x="129" y="568"/>
			<point x="160" y="624" type="curve" smooth="yes"/>
			<point x="186" y="670"/>
			<point x="245" y="707"/>
			<point x="302" y="709" type="curve" smooth="yes"/>
			<point x="371" y="712"/>
			<point x="429" y="689"/>
			<point x="476" y="642" type="curve" smooth="yes"/>
			<point x="485" y="633" type="line" smooth="yes"/>
			<point x="488" y="630"/>
			<point x="490" y="627"/>
			<point x="493" y="624" type="curve"/>
			<point x="543" y="692"/>
			<point x="603" y="710"/>
			<point x="671" y="710" type="curve"/>
			<point x="715" y="759"/>
			<point x="778" y="791"/>
			<point x="860" y="805" type="curve" smooth="yes"/>
			<point x="904" y="813"/>
			<point x="941" y="816"/>
			<point x="971" y="814" type="curve"/>
			<point x="969" y="716" type="line"/>
			<point x="905" y="719"/>
			<point x="830" y="702"/>
			<point x="786" y="678" type="curve"/>
			<point x="855" y="643"/>
			<point x="899" y="543"/>
			<point x="864" y="447" type="curve" smooth="yes"/>
			<point x="839" y="380"/>
			<point x="789" y="332"/>
			<point x="714" y="300" type="curve" smooth="yes"/>
			<point x="666" y="280"/>
			<point x="600" y="269"/>
			<point x="516" y="269" type="curve" smooth="yes"/>
			<point x="496" y="269" type="line" smooth="yes"/>
			<point x="490" y="269"/>
			<point x="482" y="270"/>
			<point x="475" y="271" type="curve" smooth="yes"/>
			<point x="405" y="273"/>
			<point x="355" y="269"/>
			<point x="326" y="260" type="curve" smooth="yes"/>
			<point x="297" y="251"/>
			<point x="272" y="238"/>
			<point x="255" y="219" type="curve" smooth="yes"/>
			<point x="237" y="199"/>
			<point x="231" y="178"/>
			<point x="232" y="159" type="curve" smooth="yes"/>
			<point x="232" y="134"/>
			<point x="246" y="115"/>
			<point x="269" y="97" type="curve" smooth="yes"/>
			<point x="311" y="66"/>
			<point x="369" y="66"/>
			<point x="449" y="102" type="curve" smooth="yes"/>
			<point x="524" y="141"/>
			<point x="581" y="191"/>
			<point x="620" y="211" type="curve" smooth="yes"/>
			<point x="678" y="243"/>
			<point x="731" y="253"/>
			<point x="782" y="238" type="curve" smooth="yes"/>
			<point x="827" y="225"/>
			<point x="858" y="199"/>
			<point x="876" y="161" type="curve" smooth="yes"/>
			<point x="897" y="117"/>
			<point x="894" y="74"/>
			<point x="866" y="33" type="curve" smooth="yes"/>
			<point x="845" y="6"/>
			<point x="818" y="-12"/>
			<point x="784" y="-21" type="curve" smooth="yes"/>
			<point x="772" y="-24"/>
			<point x="760" y="-26"/>
			<point x="750" y="-26" type="curve" smooth="yes"/>
			<point x="698" y="-26"/>
			<point x="638" y="2"/>
			<point x="612" y="34" type="curve" smooth="yes"/>
			<point x="598" y="52"/>
			<point x="589" y="64"/>
			<point x="585" y="72" type="curve"/>
			<point x="556" y="51"/>
			<point x="525" y="32"/>
			<point x="492" y="14" type="curve" smooth="yes"/>
			<point x="446" y="-7"/>
			<point x="398" y="-20"/>
			<point x="349" y="-23" type="curve" smooth="yes"/>
			<point x="284" y="-27"/>
			<point x="228" y="-6"/>
			<point x="182" y="42" type="curve" smooth="yes"/>
			<point x="142" y="84"/>
			<point x="118" y="153"/>
			<point x="144" y="223" type="curve" smooth="yes"/>
			<point x="152" y="246"/>
			<point x="166" y="266"/>
			<point x="183" y="284" type="curve" smooth="yes"/>
			<point x="224" y="331"/>
			<point x="301" y="366"/>
			<point x="386" y="368" type="curve" smooth="yes"/>
			<point x="417" y="369"/>
			<point x="447" y="369"/>
			<point x="477" y="368" type="curve" smooth="yes"/>
			<point x="517" y="367" type="line"/>
			<point x="565" y="367"/>
			<point x="600" y="370"/>
			<point x="621" y="374" type="curve" smooth="yes"/>
			<point x="671" y="384"/>
			<point x="718" y="405"/>
			<point x="747" y="439" type="curve"/>
			<point x="744" y="438"/>
			<point x="740" y="438"/>
			<point x="735" y="438" type="curve" smooth="yes"/>
			<point x="725" y="438" type="line"/>
			<point x="676" y="442"/>
			<point x="619" y="488"/>
			<point x="613" y="541" type="curve" smooth="yes"/>
			<point x="611" y="561"/>
			<point x="611" y="580"/>
			<point x="613" y="599" type="curve"/>
			<point x="576" y="580"/>
			<point x="545" y="540"/>
			<point x="541" y="488" type="curve"/>
			<point x="541" y="473" type="line"/>
			<point x="443" y="475" type="line"/>
			<point x="443" y="489" type="line"/>
			<point x="440" y="558"/>
			<point x="384" y="614"/>
			<point x="312" y="611" type="curve" smooth="yes"/>
			<point x="292" y="610"/>
			<point x="275" y="604"/>
			<point x="260" y="595" type="curve"/>
			<point x="235" y="570"/>
			<point x="232" y="548"/>
			<point x="250" y="529" type="curve"/>
			<point x="275" y="511"/>
			<point x="297" y="512"/>
			<point x="316" y="532" type="curve"/>
		</contour>
	</outline>
</glyph>
<glyph name="tta-sinhala" format="2">
	<unicode hex="0DA7"/>
	<advance width="940"/>
	<outline>
		<contour>
			<point x="555" y="837" type="line"/>
			<point x="663" y="737"/>
			<point x="746" y="617"/>
			<point x="804" y="476" type="curve" smooth="yes"/>
			<point x="861" y="339"/>
			<point x="888" y="198"/>
			<point x="884" y="52" type="curve"/>
			<point x="884" y="-3" type="line"/>
			<point x="37" y="0" type="line"/>
			<point x="36" y="383" type="line"/>
			<point x="146" y="383" type="line"/>
			<point x="147" y="109" type="line"/>
			<point x="774" y="107" type="line"/>
			<point x="765" y="292"/>
			<point x="710" y="460"/>
			<point x="608" y="608" type="curve" smooth="yes"/>
			<point x="570" y="663"/>
			<point x="528" y="713"/>
			<point x="480" y="758" type="curve"/>
		</contour>
	</outline>
</glyph>
<glyph name="dda-sinhala" format="2">
	<unicode hex="0DA9"/>
	<advance width="965"/>
	<outline>
		<contour>
			<point x="294" y="488" type="line"/>
			<point x="356" y="560"/>
			<point x="472" y="576"/>
			<point x="544" y="504" type="curve" smooth="yes"/>
			<point x="566" y="482"/>
			<point x="579" y="453"/>
			<point x="582" y="419" type="curve" smooth="yes"/>
			<point x="587" y="355"/>
			<point x="545" y="294"/>
			<point x="478" y="279" type="curve" smooth="yes"/>
			<point x="462" y="274"/>
			<point x="439" y="271"/>
			<point x="408" y="271" type="curve" smooth="yes"/>
			<point x="255" y="271" type="line"/>
			<point x="243" y="252"/>
			<point x="237" y="234"/>
			<point x="237" y="218" type="curve" smooth="yes"/>
			<point x="237" y="187"/>
			<point x="242" y="164"/>
			<point x="251" y="150" type="curve" smooth="yes"/>
			<point x="283" y="100"/>
			<point x="326" y="80"/>
			<point x="379" y="89" type="curve" smooth="yes"/>
			<point x="418" y="95"/>
			<point x="447" y="116"/>
			<point x="467" y="153" type="curve"/>
			<point x="558" y="157" type="line"/>
			<point x="579" y="115"/>
			<point x="636" y="74"/>
			<point x="704" y="92" type="curve" smooth="yes"/>
			<point x="771" y="110"/>
			<point x="802" y="189"/>
			<point x="818" y="272" type="curve" smooth="yes"/>
			<point x="830" y="348"/>
			<point x="826" y="422"/>
			<point x="805" y="492" type="curve" smooth="yes"/>
			<point x="784" y="566"/>
			<point x="758" y="614"/>
			<point x="710" y="655" type="curve" smooth="yes"/>
			<point x="673" y="686"/>
			<point x="645" y="707"/>
			<point x="598" y="722" type="curve" smooth="yes"/>
			<point x="562" y="733"/>
			<point x="524" y="739"/>
			<point x="484" y="739" type="curve" smooth="yes"/>
			<point x="402" y="739"/>
			<point x="355" y="719"/>
			<point x="302" y="689" type="curve" smooth="yes"/>
			<point x="249" y="659"/>
			<point x="208" y="624"/>
			<point x="178" y="584" type="curve"/>
			<point x="94" y="643" type="line"/>
			<point x="131" y="695"/>
			<point x="183" y="740"/>
			<point x="251" y="780" type="curve" smooth="yes"/>
			<point x="324" y="822"/>
			<point x="394" y="844"/>
			<point x="462" y="844" type="curve" smooth="yes"/>
			<point x="562" y="844"/>
			<point x="642" y="825"/>
			<point x="704" y="788" type="curve" smooth="yes"/>
			<point x="793" y="734"/>
			<point x="853" y="665"/>
			<point x="886" y="578" type="curve" smooth="yes"/>
			<point x="945" y="423"/>
			<point x="943" y="221"/>
			<point x="867" y="100" type="curve" smooth="yes"/>
			<point x="831" y="43"/>
			<point x="784" y="6"/>
			<point x="725" y="-9" type="curve" smooth="yes"/>
			<point x="641" y="-33"/>
			<point x="564" y="3"/>
			<point x="515" y="46" type="curve"/>
			<point x="469" y="3"/>
			<point x="417" y="-18"/>
			<point x="359" y="-18" type="curve" smooth="yes"/>
			<point x="303" y="-18"/>
			<point x="253" y="1"/>
			<point x="210" y="38" type="curve" smooth="yes"/>
			<point x="157" y="84"/>
			<point x="112" y="167"/>
			<point x="142" y="271" type="curve"/>
			<point x="30" y="272" type="line"/>
			<point x="31" y="375" type="line"/>
			<point x="405" y="375" type="line" smooth="yes"/>
			<point x="458" y="375"/>
			<point x="482" y="387"/>
			<point x="478" y="412" type="curve" smooth="yes"/>
			<point x="478" y="420"/>
			<point x="475" y="427"/>
			<point x="468" y="432" type="curve" smooth="yes"/>
			<point x="460" y="442"/>
			<point x="447" y="447"/>
			<point x="426" y="447" type="curve" smooth="yes"/>
			<point x="405" y="447"/>
			<point x="388" y="438"/>
			<point x="374" y="421" type="curve"/>
		</contour>
	</outline>
</glyph>
